<mxfile modified="2020-12-18T12:15:30.278Z" host="1c040ca8-f702-4384-8c24-6cd06fb5438c" agent="5.0 (Macintosh; Intel Mac OS X 11_0_0) AppleWebKit/537.36 (KHTML, like Gecko) Code/1.52.1 Chrome/83.0.4103.122 Electron/9.3.5 Safari/537.36" etag="11-eFwyGP-L00NfTTVf8" version="13.10.0" type="embed">
    <diagram id="yuxzbyRYRNna8c080PGl" name="Page-1">
        <mxGraphModel dx="2146" dy="2016" grid="1" gridSize="10" guides="1" tooltips="1" connect="1" arrows="1" fold="1" page="1" pageScale="1" pageWidth="1470" pageHeight="650" math="0" shadow="0">
            <root>
                <mxCell id="0"/>
                <mxCell id="1" parent="0"/>
                <mxCell id="h4DD63BsNahQlmRNBtQ3-49" value="" style="group" parent="1" vertex="1" connectable="0">
                    <mxGeometry x="993" y="-540" width="254" height="159" as="geometry"/>
                </mxCell>
                <mxCell id="SLsqdyoGx3VEHhg5HpJQ-54" value="" style="rounded=0;whiteSpace=wrap;html=1;strokeColor=#666666;strokeWidth=4;align=left;dashed=1;fillColor=none;verticalAlign=top;" parent="h4DD63BsNahQlmRNBtQ3-49" vertex="1">
                    <mxGeometry width="254" height="159" as="geometry"/>
                </mxCell>
                <mxCell id="SLsqdyoGx3VEHhg5HpJQ-55" value="&lt;div align=&quot;right&quot;&gt;Kubernetes Job&lt;/div&gt;" style="text;html=1;strokeColor=none;fillColor=none;align=right;verticalAlign=top;whiteSpace=wrap;rounded=0;fontColor=#666666;fontSize=14;" parent="h4DD63BsNahQlmRNBtQ3-49" vertex="1">
                    <mxGeometry x="136.25" y="4" width="109.5" height="26" as="geometry"/>
                </mxCell>
                <mxCell id="WwHgvZpowAIh_IYd4Kne-26" value="" style="rounded=0;whiteSpace=wrap;html=1;strokeColor=#66B2FF;strokeWidth=4;align=left;dashed=1;fillColor=none;" parent="1" vertex="1">
                    <mxGeometry x="100" y="-570" width="1180" height="540" as="geometry"/>
                </mxCell>
                <mxCell id="h4DD63BsNahQlmRNBtQ3-42" style="edgeStyle=orthogonalEdgeStyle;rounded=0;orthogonalLoop=1;jettySize=auto;html=1;endArrow=block;endFill=1;strokeColor=#666666;strokeWidth=4;exitX=0.5;exitY=0;exitDx=0;exitDy=0;entryX=0;entryY=0.5;entryDx=0;entryDy=0;" parent="1" source="WwHgvZpowAIh_IYd4Kne-27" target="h4DD63BsNahQlmRNBtQ3-29" edge="1">
                    <mxGeometry relative="1" as="geometry">
                        <Array as="points">
                            <mxPoint x="780" y="-143"/>
                            <mxPoint x="780" y="-190"/>
                            <mxPoint x="930" y="-190"/>
                            <mxPoint x="930" y="-270"/>
                        </Array>
                        <mxPoint x="860.0588235294117" y="-133" as="sourcePoint"/>
                        <mxPoint x="1171.4999999999995" y="-230" as="targetPoint"/>
                    </mxGeometry>
                </mxCell>
                <mxCell id="SLsqdyoGx3VEHhg5HpJQ-23" style="edgeStyle=orthogonalEdgeStyle;rounded=0;orthogonalLoop=1;jettySize=auto;html=1;entryX=0;entryY=0.5;entryDx=0;entryDy=0;endArrow=block;endFill=1;strokeColor=#666666;strokeWidth=4;" parent="1" source="WwHgvZpowAIh_IYd4Kne-2" target="SLsqdyoGx3VEHhg5HpJQ-19" edge="1">
                    <mxGeometry relative="1" as="geometry">
                        <Array as="points">
                            <mxPoint x="56" y="-101"/>
                        </Array>
                    </mxGeometry>
                </mxCell>
                <mxCell id="h4DD63BsNahQlmRNBtQ3-4" value="&lt;font style=&quot;font-size: 12px&quot; face=&quot;Courier New&quot;&gt;kubectl apply -f scan.yaml&lt;/font&gt;" style="edgeLabel;html=1;align=center;verticalAlign=middle;resizable=0;points=[];rotation=-90;" parent="SLsqdyoGx3VEHhg5HpJQ-23" vertex="1" connectable="0">
                    <mxGeometry x="-0.0827" y="1" relative="1" as="geometry">
                        <mxPoint x="-15.310000000000002" y="-21.850000000000005" as="offset"/>
                    </mxGeometry>
                </mxCell>
                <mxCell id="WwHgvZpowAIh_IYd4Kne-2" value="" style="shape=image;verticalLabelPosition=bottom;labelBackgroundColor=#ffffff;verticalAlign=top;aspect=fixed;imageAspect=0;image=data:image/svg+xml,PHN2ZyB4bWxucz0iaHR0cDovL3d3dy53My5vcmcvMjAwMC9zdmciIGlkPSJlbW9qaSIgdmlld0JveD0iMCAwIDcyIDcyIj4mI3hhOyAgPGcgaWQ9ImNvbG9yIj4mI3hhOyAgICA8cGF0aCBmaWxsPSIjOTJEM0Y1IiBkPSJNMTcsNjF2LTRjMC00Ljk5NDEsNS4wMDc4LTksMTAtOWM2LDUsMTIsNSwxOCwwYzQuOTk0MSwwLDEwLDQuMDA1OSwxMCw5djQiIHN0cm9rZT0ibm9uZSIvPiYjeGE7ICA8L2c+JiN4YTsgIDxnIGlkPSJoYWlyIj4mI3hhOyAgICA8cGF0aCBmaWxsPSIjRjFCMzFDIiBkPSJNMjYsMzljLTQsMC00LTYtNC0xM3M0LTE0LDE0LTE0czE0LDcsMTQsMTRzMCwxMy00LDEzIiBzdHJva2U9Im5vbmUiLz4mI3hhOyAgPC9nPiYjeGE7ICA8ZyBpZD0ic2tpbiI+JiN4YTsgICAgPHBhdGggZmlsbD0iI0ZDRUEyQiIgZD0iTTI0LjkzNjUsMzFjMCw5LDQuOTM2NSwxNCwxMSwxNEM0MS44NzMsNDUsNDcsNDAsNDcsMzFjMC0zLTEtNS4wMDA1LTEtNS4wMDA1Yy0zLTIuOTk5NS03LTgtNy04IGMtNCwzLTcsNi0xMyw3LjAwMDVDMjYsMjUsMjQuOTM2NSwyNS45OTk1LDI0LjkzNjUsMzF6IiBzdHJva2U9Im5vbmUiLz4mI3hhOyAgPC9nPiYjeGE7ICA8ZyBpZD0ic2tpbi1zaGFkb3ciLz4mI3hhOyAgPGcgaWQ9ImxpbmUiPiYjeGE7ICAgIDxwYXRoIGZpbGw9Im5vbmUiIHN0cm9rZT0iIzAwMDAwMCIgc3Ryb2tlLXdpZHRoPSIyIiBzdHJva2UtbGluZWNhcD0icm91bmQiIHN0cm9rZS1saW5lam9pbj0icm91bmQiIGQ9Ik0yNiwzOWMtNCwwLTQtNi00LTEzIHM0LTE0LDE0LTE0czE0LDcsMTQsMTRzMCwxMy00LDEzIi8+JiN4YTsgICAgPHBhdGggZmlsbD0ibm9uZSIgc3Ryb2tlPSIjMDAwMDAwIiBzdHJva2Utd2lkdGg9IjIiIHN0cm9rZS1saW5lY2FwPSJyb3VuZCIgc3Ryb2tlLWxpbmVqb2luPSJyb3VuZCIgZD0iTTE3LDYwdi0zIGMwLTQuOTk0MSw1LjAwNzgtOSwxMC05YzYsNSwxMiw1LDE4LDBjNC45OTQxLDAsMTAsNC4wMDU5LDEwLDl2MyIvPiYjeGE7ICAgIDxwYXRoIGZpbGw9IiMwMDAwMDAiIGQ9Ik00MS44NzMsMzBjMCwxLjEwNDUtMC44OTU1LDItMiwyYy0xLjEwNDQsMC0yLTAuODk1NS0yLTJzMC44OTU2LTIsMi0yIEM0MC45Nzc1LDI4LDQxLjg3MywyOC44OTU1LDQxLjg3MywzMCIgc3Ryb2tlPSJub25lIi8+JiN4YTsgICAgPHBhdGggZmlsbD0iIzAwMDAwMCIgZD0iTTMzLjg3MywzMGMwLDEuMTA0NS0wLjg5NTUsMi0yLDJjLTEuMTA0NCwwLTItMC44OTU1LTItMnMwLjg5NTYtMiwyLTIgQzMyLjk3NzUsMjgsMzMuODczLDI4Ljg5NTUsMzMuODczLDMwIiBzdHJva2U9Im5vbmUiLz4mI3hhOyAgICA8cGF0aCBmaWxsPSJub25lIiBzdHJva2U9IiMwMDAwMDAiIHN0cm9rZS13aWR0aD0iMiIgc3Ryb2tlLWxpbmVqb2luPSJyb3VuZCIgZD0iTTI0LjkzNjUsMzFjMCw5LDQuOTM2NSwxNCwxMSwxNCBDNDEuODczLDQ1LDQ3LDQwLDQ3LDMxYzAtMy0xLTUuMDAwNS0xLTUuMDAwNWMtMy0yLjk5OTUtNy04LTctOGMtNCwzLTcsNi0xMyw3LjAwMDVDMjYsMjUsMjQuOTM2NSwyNS45OTk1LDI0LjkzNjUsMzF6Ii8+JiN4YTsgICAgPHBhdGggZmlsbD0ibm9uZSIgc3Ryb2tlPSIjMDAwMDAwIiBzdHJva2Utd2lkdGg9IjIiIHN0cm9rZS1saW5lY2FwPSJyb3VuZCIgc3Ryb2tlLWxpbmVqb2luPSJyb3VuZCIgZD0iTTMzLDM4IGMxLjkzODUsMC45Mzg1LDQsMSw2LDAiLz4mI3hhOyAgPC9nPiYjeGE7PC9zdmc+;" parent="1" vertex="1">
                    <mxGeometry x="20" y="-522.5" width="72" height="72" as="geometry"/>
                </mxCell>
                <mxCell id="WwHgvZpowAIh_IYd4Kne-32" value="" style="rounded=0;whiteSpace=wrap;html=1;strokeColor=#666666;strokeWidth=4;align=left;dashed=1;fillColor=none;verticalAlign=top;" parent="1" vertex="1">
                    <mxGeometry x="343" y="-499" width="254" height="260" as="geometry"/>
                </mxCell>
                <mxCell id="WwHgvZpowAIh_IYd4Kne-40" value="&lt;div align=&quot;right&quot;&gt;Kubernetes Job&lt;/div&gt;" style="text;html=1;strokeColor=none;fillColor=none;align=right;verticalAlign=top;whiteSpace=wrap;rounded=0;fontColor=#666666;fontSize=14;" parent="1" vertex="1">
                    <mxGeometry x="482.5" y="-495" width="109.5" height="26" as="geometry"/>
                </mxCell>
                <mxCell id="SLsqdyoGx3VEHhg5HpJQ-4" value="" style="group;strokeColor=#666666;" parent="1" vertex="1" connectable="0">
                    <mxGeometry x="358.5" y="-450.5" width="220" height="84" as="geometry"/>
                </mxCell>
                <mxCell id="WwHgvZpowAIh_IYd4Kne-41" value="" style="rounded=0;whiteSpace=wrap;html=1;strokeWidth=4;strokeColor=#666666;" parent="SLsqdyoGx3VEHhg5HpJQ-4" vertex="1">
                    <mxGeometry width="220" height="84" as="geometry"/>
                </mxCell>
                <mxCell id="WwHgvZpowAIh_IYd4Kne-43" value="&lt;font&gt;&lt;span style=&quot;font-size: 16px&quot;&gt;Scanner Container&lt;br&gt;&lt;/span&gt;&lt;span style=&quot;font-size: 18px&quot;&gt;&lt;b&gt;Run Scan&lt;/b&gt;&lt;/span&gt;&lt;br&gt;&lt;/font&gt;" style="text;html=1;strokeColor=none;fillColor=none;align=left;verticalAlign=middle;whiteSpace=wrap;rounded=0;" parent="SLsqdyoGx3VEHhg5HpJQ-4" vertex="1">
                    <mxGeometry x="67.5" y="17" width="139" height="50" as="geometry"/>
                </mxCell>
                <mxCell id="WwHgvZpowAIh_IYd4Kne-44" value="" style="shape=image;verticalLabelPosition=bottom;labelBackgroundColor=#ffffff;verticalAlign=top;aspect=fixed;imageAspect=0;image=data:image/svg+xml,PHN2ZyB4bWxucz0iaHR0cDovL3d3dy53My5vcmcvMjAwMC9zdmciIGlkPSJlbW9qaSIgdmlld0JveD0iMCAwIDcyIDcyIj4mI3hhOyAgPGcgaWQ9ImNvbG9yIj4mI3hhOyAgICA8cGF0aCBmaWxsPSIjZDBjZmNlIiBkPSJNNjAuODEsNDUuMjVjLTAuMDYsMC4wMS0wLjEyLDAuMDItMC4xOCwwLjAzYy0wLjA3LDAtMC4xNCwwLjAxLTAuMjIsMC4wMmMwLjA4LTAuMDEsMC4xNi0wLjAyLDAuMjQtMC4wMyBDNjAuNzEsNDUuMjcsNjAuNzYsNDUuMjYsNjAuODEsNDUuMjV6IiBzdHJva2U9Im5vbmUiLz4mI3hhOyAgICA8cGF0aCBmaWxsPSIjZDBjZmNlIiBkPSJNNjAuNjUsNDUuMjdjLTAuMDEsMC0wLjAxLDAtMC4wMiwwLjAxYy0wLjA3LDAtMC4xNCwwLjAxLTAuMjIsMC4wMkM2MC40OSw0NS4yOSw2MC41Nyw0NS4yOCw2MC42NSw0NS4yN3oiIHN0cm9rZT0ibm9uZSIvPiYjeGE7ICAgIDxwYXRoIGZpbGw9IiNkMGNmY2UiIGQ9Ik02MC44MSw0NS4yNWMtMC4wNiwwLjAxLTAuMTIsMC4wMi0wLjE4LDAuMDNjLTAuMDcsMC0wLjE0LDAuMDEtMC4yMiwwLjAyYzAuMDgtMC4wMSwwLjE2LTAuMDIsMC4yNC0wLjAzIEM2MC43MSw0NS4yNyw2MC43Niw0NS4yNiw2MC44MSw0NS4yNXoiIHN0cm9rZT0ibm9uZSIvPiYjeGE7ICAgIDxwYXRoIGZpbGw9IiNkMGNmY2UiIGQ9Ik02MS42Niw0Ni4wN2MtMC4zLDAuMy00LjY1LDAuNTUtMTAuNjksMC43M2MtMS42MiwwLjA0LTMuMzYsMC4wOC01LjE3LDAuMTJjLTEuMTgsMC4wMi0yLjQsMC4wNC0zLjY0LDAuMDUgYy0wLjQyLDAtMC44MywwLjAxLTEuMjUsMC4wMWMtMC4xMiwwLjAxLTAuMjMsMC4wMS0wLjM1LDAuMDFDMzkuOTEsNDcsMzkuMjYsNDcsMzguNiw0Ny4wMWMtMS4wMSwwLjAxLTIuMDIsMC4wMi0zLjA0LDAuMDIgYy0zLjA0LDAuMDItNi4wOCwwLjAxLTguOTItMC4wMmMtMS4xNS0wLjAxLTIuMjctMC4wMy0zLjM0LTAuMDRjLTAuMTYtMC4wMS0wLjMxLTAuMDEtMC40Ny0wLjAxYy0wLjUxLTAuMDEtMS4wMS0wLjAyLTEuNS0wLjAzIGMtNS45OC0wLjE1LTEwLjMyLTAuNDItMTAuNzYtMC44NmMtMC43MS0wLjcyLTAuNzctMS40My0wLjYxLTEuOThjMC4xNy0wLjY1LDAuNjEtMS4wOSwwLjYxLTEuMDlsMTAuMjItNy4xNWgzMC42NUw2MS42Niw0MyBjMCwwLDAuMjksMC41OSwwLjQsMS4yOEM2Mi4xNyw0NC44OCw2Mi4xNCw0NS41OSw2MS42Niw0Ni4wN3oiIHN0cm9rZT0ibm9uZSIvPiYjeGE7ICAgIDxwb2x5Z29uIGZpbGw9IiM5YjliOWEiIHBvaW50cz0iNDAuNzk2MSwzNi41MzY2IDQ4Ljc1LDQ2LjU4MzMgNjEuMjkxNyw0NS45OCA2Mi4xMTI4LDQ0Ljk1ODMgNjEuMjU2MSw0Mi43MTc1IDUxLjQsMzUuODUgNDAuNTYsMzYiIHN0cm9rZT0ibm9uZSIvPiYjeGE7ICAgIDxwYXRoIGZpbGw9IiNkMGNmY2UiIGQ9Ik00MC45Nyw0NS45N2MtMC4yMSwwLTAuNDIsMC4wMS0wLjYzLDAuMDFoLTAuNDZjMC4yMS0wLjAxLDAuNDItMC4wMSwwLjYzLTAuMDFINDAuOTd6IiBzdHJva2U9Im5vbmUiLz4mI3hhOyAgICA8cGF0aCBmaWxsPSIjZDBjZmNlIiBkPSJNNDYuMjIsNDUuODljLTAuMTEsMC0wLjIyLDAtMC4zMiwwLjAxYy0wLjIsMC0wLjQsMC0wLjYsMC4wMWgtMC4xN2MwLjEtMC4wMSwwLjItMC4wMSwwLjMtMC4wMSBjMC4yLDAsMC40LTAuMDEsMC42LTAuMDFINDYuMjJ6IiBzdHJva2U9Im5vbmUiLz4mI3hhOyAgICA8cGF0aCBmaWxsPSIjZDBjZmNlIiBkPSJNNTEuMzYsNDUuNzZjMCwwLjAxLDAsMC4wMSwwLDAuMDFjLTAuMjMsMC0wLjQ2LDAuMDEtMC43LDAuMDJDNTAuOSw0NS43OCw1MS4xMyw0NS43Nyw1MS4zNiw0NS43NnoiIHN0cm9rZT0ibm9uZSIvPiYjeGE7ICAgIDxwYXRoIGZpbGw9IiM5YjliOWEiIGQ9Ik01MC45Nyw0Ni44Yy0xLjYzLDMuMDQtNy40Myw1LjMtMTQuMzgsNS4zOWMwLjEtMC4wOCwwLjE5LTAuMTgsMC4yOC0wLjI3YzEuMjktMS4yOSwyLjQyLTIuNjMsMy4zOC0zLjk2IGMwLjIzLTAuMzMsMC40NS0wLjY1LDAuNjYtMC45OGMxLjY3LTAuMDEsMy4zMS0wLjAzLDQuODktMC4wNkM0Ny42MSw0Ni44OCw0OS4zNSw0Ni44NCw1MC45Nyw0Ni44eiIgc3Ryb2tlPSJub25lIi8+JiN4YTsgICAgPHBhdGggZmlsbD0iI2QwY2ZjZSIgZD0iTTQwLjkxLDQ2Ljk4Yy0wLjIxLDAuMzMtMC40MywwLjY1LTAuNjYsMC45OGMtMC45NiwxLjMzLTIuMDksMi42Ny0zLjM4LDMuOTYgYy0wLjA5LDAuMDktMC4xOCwwLjE5LTAuMjgsMC4yN2MtMC4xNSwwLjAxLTAuMzEsMC4wMS0wLjQ3LDAuMDFjLTAuODcsMC0xLjczLTAuMDMtMi41Ni0wLjFjLTAuODgtMC4wNy0xLjczLTAuMTctMi41NS0wLjMxIGMtNC42My0wLjc2LTguMjQtMi41My05LjYxLTQuNzVjLTAuMDMtMC4wNC0wLjA1LTAuMDctMC4wNy0wLjExYzEuOTYsMC4wNCw0LjEsMC4wNyw2LjM0LDAuMDljMC4xMywwLDAuMjUtMC4wMSwwLjM4LDAgYzQuMDIsMC4wMyw4LjM1LDAuMDIsMTIuNTEtMC4wM0M0MC42OCw0Ni45OSw0MC43OSw0Ni45OSw0MC45MSw0Ni45OHoiIHN0cm9rZT0ibm9uZSIvPiYjeGE7ICAgIDxwYXRoIGZpbGw9IiNkMGNmY2UiIGQ9Ik00MC45Nyw0NS45N2MtMC4yMSwwLTAuNDIsMC4wMS0wLjYzLDAuMDFoLTAuNDZjMC4yMS0wLjAxLDAuNDItMC4wMSwwLjYzLTAuMDFINDAuOTd6IiBzdHJva2U9Im5vbmUiLz4mI3hhOyAgICA8cGF0aCBmaWxsPSIjZDBjZmNlIiBkPSJNNDYuMjIsNDUuODljLTAuMTEsMC0wLjIyLDAtMC4zMiwwLjAxYy0wLjIsMC0wLjQsMC0wLjYsMC4wMWgtMC4xN2MwLjEtMC4wMSwwLjItMC4wMSwwLjMtMC4wMSBjMC4yLDAsMC40LTAuMDEsMC42LTAuMDFINDYuMjJ6IiBzdHJva2U9Im5vbmUiLz4mI3hhOyAgICA8cGF0aCBmaWxsPSIjOWI5YjlhIiBkPSJNNDAuOTcsNDUuOTdjLTAuMjEsMC0wLjQyLDAuMDEtMC42MywwLjAxYzAuMDYsMCwwLjEyLDAsMC4xNy0wLjAxSDQwLjk3eiIgc3Ryb2tlPSJub25lIi8+JiN4YTsgICAgPHBhdGggZmlsbD0iIzliOWI5YSIgZD0iTTQ1LjksNDUuOWMtMC4yLDAtMC40LDAtMC42LDAuMDFjMC4wNCwwLDAuMDksMCwwLjEzLTAuMDFINDUuOXoiIHN0cm9rZT0ibm9uZSIvPiYjeGE7ICAgIDxwYXRoIGZpbGw9IiM5YjliOWEiIGQ9Ik00Ni4yMiw0NS44OWMtMC4xMSwwLTAuMjIsMC0wLjMyLDAuMDFjMC4wNSwwLDAuMDktMC4wMSwwLjEzLTAuMDFINDYuMjJ6IiBzdHJva2U9Im5vbmUiLz4mI3hhOyAgICA8cGF0aCBmaWxsPSIjOWI5YjlhIiBkPSJNNTEuOTQsNDUuNzVjLTAuMTEsMC0wLjIyLDAtMC4zMywwLjAxYzAuMDMsMCwwLjA1LDAsMC4wOC0wLjAxSDUxLjk0eiIgc3Ryb2tlPSJub25lIi8+JiN4YTsgICAgPHBhdGggZmlsbD0iIzliOWI5YSIgZD0iTTUzLjQ2LDQ1LjdjLTAuMTEsMC0wLjIyLDAtMC4zMywwLjAxYzAuMDQsMCwwLjA3LDAsMC4xLTAuMDFINTMuNDZ6IiBzdHJva2U9Im5vbmUiLz4mI3hhOyAgICA8cGF0aCBmaWxsPSIjOWI5YjlhIiBkPSJNNTUuMzksNDUuNjJjLTAuMTMsMC4wMS0wLjI2LDAuMDEtMC4zOSwwLjAyYzAuMDMsMCwwLjA2LDAsMC4wOC0wLjAxQzU1LjE5LDQ1LjYzLDU1LjI5LDQ1LjYzLDU1LjM5LDQ1LjYyIHoiIHN0cm9rZT0ibm9uZSIvPiYjeGE7ICAgIDxwYXRoIGZpbGw9IiM5YjliOWEiIGQ9Ik02MC44MSw0NS4yNWMtMC4wNiwwLjAxLTAuMTIsMC4wMi0wLjE4LDAuMDNjLTAuMDcsMC0wLjE0LDAuMDEtMC4yMiwwLjAyYzAuMDgtMC4wMSwwLjE2LTAuMDIsMC4yNC0wLjAzIEM2MC43MSw0NS4yNyw2MC43Niw0NS4yNiw2MC44MSw0NS4yNXoiIHN0cm9rZT0ibm9uZSIvPiYjeGE7ICAgIDxwYXRoIGZpbGw9IiNkMGNmY2UiIGQ9Ik0xNS42NSw0NS43aC0wLjA4Yy0wLjExLTAuMDEtMC4yMi0wLjAyLTAuMzItMC4wMmMwLjA5LDAsMC4xOCwwLjAxLDAuMjcsMC4wMSBDMTUuNTcsNDUuNjksMTUuNjEsNDUuNywxNS42NSw0NS43eiIgc3Ryb2tlPSJub25lIi8+JiN4YTsgICAgPHBhdGggZmlsbD0iI2QwY2ZjZSIgZD0iTTE2LjI1LDQ1LjczYy0wLjIxLTAuMDEtMC40MS0wLjAyLTAuNi0wLjAzYzAuMTgsMC4wMSwwLjM1LDAuMDIsMC41MywwLjAyIEMxNi4yLDQ1LjczLDE2LjIzLDQ1LjczLDE2LjI1LDQ1LjczeiIgc3Ryb2tlPSJub25lIi8+JiN4YTsgICAgPHBhdGggZmlsbD0iI2QwY2ZjZSIgZD0iTTIwLjksNDUuOWMtMC4wNy0wLjAxLTAuMTMtMC4wMS0wLjE5LTAuMDFoMC4xOEwyMC45LDQ1Ljl6IiBzdHJva2U9Im5vbmUiLz4mI3hhOyAgICA8cGF0aCBmaWxsPSIjZDBjZmNlIiBkPSJNNDAuOTcsNDUuOTdjLTAuMjEsMC0wLjQyLDAuMDEtMC42MywwLjAxaC0wLjQ2YzAuMjEtMC4wMSwwLjQyLTAuMDEsMC42My0wLjAxSDQwLjk3eiIgc3Ryb2tlPSJub25lIi8+JiN4YTsgICAgPHBhdGggZmlsbD0iI2QwY2ZjZSIgZD0iTTQ2LjIyLDQ1Ljg5Yy0wLjExLDAtMC4yMiwwLTAuMzIsMC4wMWMtMC4yLDAtMC40LDAtMC42LDAuMDFoLTAuMTdjMC4xLTAuMDEsMC4yLTAuMDEsMC4zLTAuMDEgYzAuMiwwLDAuNC0wLjAxLDAuNi0wLjAxSDQ2LjIyeiIgc3Ryb2tlPSJub25lIi8+JiN4YTsgICAgPHBhdGggZmlsbD0iI2QwY2ZjZSIgZD0iTTUxLjQxLDQ1Ljc2Yy0wLjAyLDAuMDEtMC4wNCwwLjAxLTAuMDUsMC4wMWMtMC4yMywwLTAuNDYsMC4wMS0wLjcsMC4wMmMwLjI0LTAuMDEsMC40Ny0wLjAyLDAuNy0wLjAzIEg1MS40MXoiIHN0cm9rZT0ibm9uZSIvPiYjeGE7ICAgIDxwYXRoIGZpbGw9IiNkMGNmY2UiIGQ9Ik02MC42NSw0NS4yN2MtMC4wMSwwLTAuMDEsMC0wLjAyLDAuMDFjLTAuMDcsMC0wLjE0LDAuMDEtMC4yMiwwLjAyQzYwLjQ5LDQ1LjI5LDYwLjU3LDQ1LjI4LDYwLjY1LDQ1LjI3eiIgc3Ryb2tlPSJub25lIi8+JiN4YTsgICAgPHBhdGggZmlsbD0iIzliOWI5YSIgZD0iTTUyLjA0LDQ1Ljc0Yy0wLjAzLDAtMC4wNywwLTAuMSwwLjAxYy0wLjExLDAtMC4yMiwwLTAuMzMsMC4wMWMwLjAzLDAsMC4wNSwwLDAuMDgtMC4wMSBDNTEuODEsNDUuNzUsNTEuOTMsNDUuNzUsNTIuMDQsNDUuNzR6IiBzdHJva2U9Im5vbmUiLz4mI3hhOyAgICA8cGF0aCBmaWxsPSIjOWI5YjlhIiBkPSJNNTMuNTQsNDUuNjljLTAuMDIsMC0wLjA1LDAtMC4wOCwwLjAxYy0wLjExLDAtMC4yMiwwLTAuMzMsMC4wMWMwLjA0LDAsMC4wNywwLDAuMS0wLjAxIEM1My4zNCw0NS43LDUzLjQ0LDQ1LjcsNTMuNTQsNDUuNjl6IiBzdHJva2U9Im5vbmUiLz4mI3hhOyAgICA8cGF0aCBmaWxsPSIjOWI5YjlhIiBkPSJNNTUuMzksNDUuNjJjLTAuMTMsMC4wMS0wLjI2LDAuMDEtMC4zOSwwLjAyYzAuMDMsMCwwLjA2LDAsMC4wOC0wLjAxQzU1LjE5LDQ1LjYzLDU1LjI5LDQ1LjYzLDU1LjM5LDQ1LjYyIHoiIHN0cm9rZT0ibm9uZSIvPiYjeGE7ICAgIDxwYXRoIGZpbGw9IiM5YjliOWEiIGQ9Ik02MC44MSw0NS4yNWMtMC4wNiwwLjAxLTAuMTIsMC4wMi0wLjE4LDAuMDNjLTAuMDcsMC0wLjE0LDAuMDEtMC4yMiwwLjAyYzAuMDgtMC4wMSwwLjE2LTAuMDIsMC4yNC0wLjAzIEM2MC43MSw0NS4yNyw2MC43Niw0NS4yNiw2MC44MSw0NS4yNXoiIHN0cm9rZT0ibm9uZSIvPiYjeGE7ICAgIDxwYXRoIGZpbGw9IiNkMGNmY2UiIGQ9Ik0xMS4wMyw0NS4yNGMtMC4wMiwwLTAuMDQtMC4wMS0wLjA2LTAuMDFjLTAuMDMtMC4wMS0wLjA2LTAuMDItMC4wOS0wLjAzYzAuMDQsMC4wMSwwLjA4LDAuMDIsMC4xMywwLjAzIEMxMS4wMiw0NS4yMywxMS4wMiw0NS4yNCwxMS4wMyw0NS4yNHoiIHN0cm9rZT0ibm9uZSIvPiYjeGE7ICAgIDxwYXRoIGZpbGw9IiNkMGNmY2UiIGQ9Ik0xNS42NSw0NS43aC0wLjA4Yy0wLjAyLTAuMDEtMC4wMy0wLjAxLTAuMDUtMC4wMUMxNS41Nyw0NS42OSwxNS42MSw0NS43LDE1LjY1LDQ1Ljd6IiBzdHJva2U9Im5vbmUiLz4mI3hhOyAgICA8cGF0aCBmaWxsPSIjZDBjZmNlIiBkPSJNMTEuMDMsNDUuMjRjLTAuMDIsMC0wLjA0LTAuMDEtMC4wNi0wLjAxYy0wLjAzLTAuMDEtMC4wNi0wLjAyLTAuMDktMC4wM2MwLjA0LDAuMDEsMC4wOCwwLjAyLDAuMTMsMC4wMyBDMTEuMDIsNDUuMjMsMTEuMDIsNDUuMjQsMTEuMDMsNDUuMjR6IiBzdHJva2U9Im5vbmUiLz4mI3hhOyAgICA8cGF0aCBmaWxsPSIjZDBjZmNlIiBkPSJNMTUuNjUsNDUuN2gtMC4wOGMtMC4wMi0wLjAxLTAuMDMtMC4wMS0wLjA1LTAuMDFDMTUuNTcsNDUuNjksMTUuNjEsNDUuNywxNS42NSw0NS43eiIgc3Ryb2tlPSJub25lIi8+JiN4YTsgICAgPHBhdGggZmlsbD0iIzYxYjJlNCIgZD0iTTUxLjQsMzUuNzV2MC4xSDQxLjAzYzEuMDMtNC45LTAuMzUtMTAuMjEtNC4xNi0xNC4wMWMtMC4wOS0wLjEtMC4xOS0wLjE5LTAuMjktMC4yOCBDNDQuNDUsMjEuNzksNTAuODMsMjcuOTYsNTEuNCwzNS43NXoiIHN0cm9rZT0ibm9uZSIvPiYjeGE7ICAgIDxwYXRoIGZpbGw9IiM5MmQzZjUiIGQ9Ik00MS4wMywzNS44NWgtMjAuMnYtMC4wOWMwLjE5LTIuNjcsMS4wNy01LjE2LDIuNDYtNy4yOGMyLjMtMy41LDUuOTgtNiwxMC4yNy02LjcyIGMwLjgzLTAuMTQsMS42OS0wLjIxLDIuNTYtMC4yMWMwLjE1LDAsMC4zMSwwLDAuNDYsMC4wMWMwLjEsMC4wOSwwLjIsMC4xOCwwLjI5LDAuMjhDNDAuNjgsMjUuNjQsNDIuMDYsMzAuOTUsNDEuMDMsMzUuODV6IiBzdHJva2U9Im5vbmUiLz4mI3hhOyAgICA8cGF0aCBmaWxsPSIjOTJkM2Y1IiBzdHJva2U9Im5vbmUiIHN0cm9rZS13aWR0aD0iMiIgc3Ryb2tlLW1pdGVybGltaXQ9IjEwIiBkPSJNNTIuMDQsNDEuNDQwMmMwLDAuMzEtMC4wNywwLjYxLTAuMiwwLjg4IGMtMC4wMiwwLjA1LTAuMDQsMC4wOS0wLjA3LDAuMTRjLTAuMzUsMC42MS0xLjAyLDEuMDMtMS43NywxLjAzYy0wLjE4LDAtMC4zNS0wLjAyLTAuNTEtMC4wOGMtMC41My0wLjEzLTAuOTktMC40OC0xLjI1LTAuOTUgYy0wLjE5LTAuMy0wLjI5LTAuNjUtMC4yOS0xLjAyYzAtMC41NSwwLjIyLTEuMDYsMC42LTEuNDJjMC4yNC0wLjI3LDAuNTctMC40NiwwLjk0LTAuNTVjMC4xNi0wLjA1LDAuMzMtMC4wNywwLjUxLTAuMDcgQzUxLjEyLDM5LjQwMDIsNTIuMDQsNDAuMzIwMiw1Mi4wNCw0MS40NDAyeiIvPiYjeGE7ICAgIDxwYXRoIGZpbGw9IiM5MmQzZjUiIHN0cm9rZT0ibm9uZSIgc3Ryb2tlLXdpZHRoPSIyIiBzdHJva2UtbWl0ZXJsaW1pdD0iMTAiIGQ9Ik0zOC4xOTUsNDEuNDQwMmMwLDAuMzEtMC4wNywwLjYxLTAuMiwwLjg4IGMtMC4wMiwwLjA1LTAuMDQsMC4wOS0wLjA3LDAuMTRjLTAuMzUsMC42MS0xLjAyLDEuMDMtMS43NywxLjAzYy0wLjE4LDAtMC4zNS0wLjAyLTAuNTEtMC4wOGMtMC41My0wLjEzLTAuOTktMC40OC0xLjI1LTAuOTUgYy0wLjE5LTAuMy0wLjI5LTAuNjUtMC4yOS0xLjAyYzAtMC41NSwwLjIyLTEuMDYsMC42LTEuNDJjMC4yNC0wLjI3LDAuNTctMC40NiwwLjk0LTAuNTVjMC4xNi0wLjA1LDAuMzMtMC4wNywwLjUxLTAuMDcgQzM3LjI3NSwzOS40MDAyLDM4LjE5NSw0MC4zMjAyLDM4LjE5NSw0MS40NDAyeiIvPiYjeGE7ICAgIDxwYXRoIGZpbGw9IiM5MmQzZjUiIHN0cm9rZT0ibm9uZSIgc3Ryb2tlLXdpZHRoPSIyIiBzdHJva2UtbWl0ZXJsaW1pdD0iMTAiIGQ9Ik0yNC40NDUsNDEuNDQwMmMwLDAuMzEtMC4wNywwLjYxLTAuMiwwLjg4IGMtMC4wMiwwLjA1LTAuMDQsMC4wOS0wLjA3LDAuMTRjLTAuMzUsMC42MS0xLjAyLDEuMDMtMS43NywxLjAzYy0wLjE4LDAtMC4zNS0wLjAyLTAuNTEtMC4wOGMtMC41My0wLjEzLTAuOTktMC40OC0xLjI1LTAuOTUgYy0wLjE5LTAuMy0wLjI5LTAuNjUtMC4yOS0xLjAyYzAtMC41NSwwLjIyLTEuMDYsMC42LTEuNDJjMC4yNC0wLjI3LDAuNTctMC40NiwwLjk0LTAuNTVjMC4xNi0wLjA1LDAuMzMtMC4wNywwLjUxLTAuMDcgQzIzLjUyNSwzOS40MDAyLDI0LjQ0NSw0MC4zMjAyLDI0LjQ0NSw0MS40NDAyeiIvPiYjeGE7ICA8L2c+JiN4YTsgIDxnIGlkPSJoYWlyIi8+JiN4YTsgIDxnIGlkPSJza2luIi8+JiN4YTsgIDxnIGlkPSJza2luLXNoYWRvdyIvPiYjeGE7ICA8ZyBpZD0ibGluZSI+JiN4YTsgICAgPHBhdGggZmlsbD0ibm9uZSIgc3Ryb2tlPSIjMDAwMDAwIiBzdHJva2Utd2lkdGg9IjIiIHN0cm9rZS1taXRlcmxpbWl0PSIxMCIgZD0iTTUyLjA0LDQxLjQ0MDJjMCwwLjMxLTAuMDcsMC42MS0wLjIsMC44OCBjLTAuMDIsMC4wNS0wLjA0LDAuMDktMC4wNywwLjE0Yy0wLjM1LDAuNjEtMS4wMiwxLjAzLTEuNzcsMS4wM2MtMC4xOCwwLTAuMzUtMC4wMi0wLjUxLTAuMDhjLTAuNTMtMC4xMy0wLjk5LTAuNDgtMS4yNS0wLjk1IGMtMC4xOS0wLjMtMC4yOS0wLjY1LTAuMjktMS4wMmMwLTAuNTUsMC4yMi0xLjA2LDAuNi0xLjQyYzAuMjQtMC4yNywwLjU3LTAuNDYsMC45NC0wLjU1YzAuMTYtMC4wNSwwLjMzLTAuMDcsMC41MS0wLjA3IEM1MS4xMiwzOS40MDAyLDUyLjA0LDQwLjMyMDIsNTIuMDQsNDEuNDQwMnoiLz4mI3hhOyAgICA8cGF0aCBmaWxsPSJub25lIiBzdHJva2U9IiMwMDAwMDAiIHN0cm9rZS13aWR0aD0iMiIgc3Ryb2tlLW1pdGVybGltaXQ9IjEwIiBkPSJNMzguMTk1LDQxLjQ0MDJjMCwwLjMxLTAuMDcsMC42MS0wLjIsMC44OCBjLTAuMDIsMC4wNS0wLjA0LDAuMDktMC4wNywwLjE0Yy0wLjM1LDAuNjEtMS4wMiwxLjAzLTEuNzcsMS4wM2MtMC4xOCwwLTAuMzUtMC4wMi0wLjUxLTAuMDhjLTAuNTMtMC4xMy0wLjk5LTAuNDgtMS4yNS0wLjk1IGMtMC4xOS0wLjMtMC4yOS0wLjY1LTAuMjktMS4wMmMwLTAuNTUsMC4yMi0xLjA2LDAuNi0xLjQyYzAuMjQtMC4yNywwLjU3LTAuNDYsMC45NC0wLjU1YzAuMTYtMC4wNSwwLjMzLTAuMDcsMC41MS0wLjA3IEMzNy4yNzUsMzkuNDAwMiwzOC4xOTUsNDAuMzIwMiwzOC4xOTUsNDEuNDQwMnoiLz4mI3hhOyAgICA8cGF0aCBmaWxsPSJub25lIiBzdHJva2U9IiMwMDAwMDAiIHN0cm9rZS13aWR0aD0iMiIgc3Ryb2tlLW1pdGVybGltaXQ9IjEwIiBkPSJNMjQuNDQ1LDQxLjQ0MDJjMCwwLjMxLTAuMDcsMC42MS0wLjIsMC44OCBjLTAuMDIsMC4wNS0wLjA0LDAuMDktMC4wNywwLjE0Yy0wLjM1LDAuNjEtMS4wMiwxLjAzLTEuNzcsMS4wM2MtMC4xOCwwLTAuMzUtMC4wMi0wLjUxLTAuMDhjLTAuNTMtMC4xMy0wLjk5LTAuNDgtMS4yNS0wLjk1IGMtMC4xOS0wLjMtMC4yOS0wLjY1LTAuMjktMS4wMmMwLTAuNTUsMC4yMi0xLjA2LDAuNi0xLjQyYzAuMjQtMC4yNywwLjU3LTAuNDYsMC45NC0wLjU1YzAuMTYtMC4wNSwwLjMzLTAuMDcsMC41MS0wLjA3IEMyMy41MjUsMzkuNDAwMiwyNC40NDUsNDAuMzIwMiwyNC40NDUsNDEuNDQwMnoiLz4mI3hhOyAgICA8cGF0aCBmaWxsPSJub25lIiBzdHJva2U9IiMwMDAwMDAiIHN0cm9rZS13aWR0aD0iMiIgc3Ryb2tlLWxpbmVjYXA9InJvdW5kIiBzdHJva2UtbGluZWpvaW49InJvdW5kIiBzdHJva2UtbWl0ZXJsaW1pdD0iMTAiIGQ9Ik02MS42Niw0Ni4wN2MtMC4zLDAuMy00LjY1LDAuNTUtMTAuNjksMC43M2MtMS42MiwwLjA0LTMuMzYsMC4wOC01LjE3LDAuMTJjLTEuMTgsMC4wMi0yLjQsMC4wNC0zLjY0LDAuMDUgYy0wLjQyLDAtMC44MywwLjAxLTEuMjUsMC4wMWMtMC4xMiwwLjAxLTAuMjMsMC4wMS0wLjM1LDAuMDFDMzkuOTEsNDcsMzkuMjYsNDcsMzguNiw0Ny4wMWMtMS4wMSwwLjAxLTIuMDIsMC4wMi0zLjA0LDAuMDIgYy0zLjA0LDAuMDItNi4wOCwwLjAxLTguOTItMC4wMmMtMS4xNS0wLjAxLTIuMjctMC4wMy0zLjM0LTAuMDRjLTAuMTYtMC4wMS0wLjMxLTAuMDEtMC40Ny0wLjAxYy0wLjUxLTAuMDEtMS4wMS0wLjAyLTEuNS0wLjAzIGMtNS45OC0wLjE1LTEwLjMyLTAuNDItMTAuNzYtMC44NmMtMC43MS0wLjcyLTAuNzctMS40My0wLjYxLTEuOThjMC4xNy0wLjY1LDAuNjEtMS4wOSwwLjYxLTEuMDlsMTAuMjItNy4xNWgzMC42NUw2MS42Niw0MyBjMCwwLDAuMjksMC41OSwwLjQsMS4yOEM2Mi4xNyw0NC44OCw2Mi4xNCw0NS41OSw2MS42Niw0Ni4wN3oiLz4mI3hhOyAgICA8cGF0aCBmaWxsPSJub25lIiBzdHJva2U9IiMwMDAwMDAiIHN0cm9rZS13aWR0aD0iMiIgc3Ryb2tlLWxpbmVjYXA9InJvdW5kIiBzdHJva2UtbGluZWpvaW49InJvdW5kIiBzdHJva2UtbWl0ZXJsaW1pdD0iMTAiIGQ9Ik00Mi4xNiw0Ni45N2MtMC40MiwwLjAxLTAuODQsMC4wMS0xLjI2LDAuMDJjMC4wMSwwLDAuMDEtMC4wMSwwLjAxLTAuMDFDNDEuMzMsNDYuOTgsNDEuNzQsNDYuOTcsNDIuMTYsNDYuOTd6Ii8+JiN4YTsgICAgPHBhdGggZmlsbD0ibm9uZSIgc3Ryb2tlPSIjMDAwMDAwIiBzdHJva2Utd2lkdGg9IjIiIHN0cm9rZS1saW5lY2FwPSJyb3VuZCIgc3Ryb2tlLWxpbmVqb2luPSJyb3VuZCIgc3Ryb2tlLW1pdGVybGltaXQ9IjEwIiBkPSJNNTAuOTcsNDYuOGMtMS42MywzLjA0LTcuNDMsNS4zLTE0LjM4LDUuMzljLTAuMTUsMC4wMS0wLjMxLDAuMDEtMC40NywwLjAxYy0wLjg3LDAtMS43My0wLjAzLTIuNTYtMC4xIGMtMC44OC0wLjA3LTEuNzMtMC4xNy0yLjU1LTAuMzFjLTQuNjMtMC43Ni04LjI0LTIuNTMtOS42MS00Ljc1Yy0wLjAzLTAuMDQtMC4wNS0wLjA3LTAuMDctMC4xMWMwLjQ5LDAuMDEsMC45OSwwLjAyLDEuNSwwLjAzIGMwLjE2LDAsMC4zMSwwLDAuNDcsMC4wMWMxLjA3LDAuMDEsMi4xOSwwLjAzLDMuMzQsMC4wNGMyLjg0LDAuMDMsNS44OCwwLjA0LDguOTIsMC4wMmMxLjAyLDAsMi4wMy0wLjAxLDMuMDQtMC4wMiBjMC42Ni0wLjAxLDEuMzEtMC4wMSwxLjk2LTAuMDJoMC4zNGMwLjQyLTAuMDEsMC44NC0wLjAxLDEuMjYtMC4wMmMxLjI0LTAuMDEsMi40Ni0wLjAzLDMuNjQtMC4wNSBDNDcuNjEsNDYuODgsNDkuMzUsNDYuODQsNTAuOTcsNDYuOHoiLz4mI3hhOyAgICA8cGF0aCBmaWxsPSJub25lIiBzdHJva2U9IiMwMDAwMDAiIHN0cm9rZS13aWR0aD0iMiIgc3Ryb2tlLWxpbmVjYXA9InJvdW5kIiBzdHJva2UtbGluZWpvaW49InJvdW5kIiBzdHJva2UtbWl0ZXJsaW1pdD0iMTAiIGQ9Ik00MC45MSw0Ni45OGMwLDAsMCwwLjAxLTAuMDEsMC4wMWgtMC4zNEM0MC42OCw0Ni45OSw0MC43OSw0Ni45OSw0MC45MSw0Ni45OHoiLz4mI3hhOyAgICA8cGF0aCBmaWxsPSJub25lIiBzdHJva2U9IiMwMDAwMDAiIHN0cm9rZS13aWR0aD0iMiIgc3Ryb2tlLWxpbmVjYXA9InJvdW5kIiBzdHJva2UtbGluZWpvaW49InJvdW5kIiBzdHJva2UtbWl0ZXJsaW1pdD0iMTAiIGQ9Ik00Mi4xNiw0Ni45N2MtMC40MiwwLjAxLTAuODQsMC4wMS0xLjI2LDAuMDJoLTAuMzRjMC4xMiwwLDAuMjMsMCwwLjM1LTAuMDFDNDEuMzMsNDYuOTgsNDEuNzQsNDYuOTcsNDIuMTYsNDYuOTd6Ii8+JiN4YTsgICAgPHBhdGggZmlsbD0ibm9uZSIgc3Ryb2tlPSIjMDAwMDAwIiBzdHJva2Utd2lkdGg9IjIiIHN0cm9rZS1saW5lY2FwPSJyb3VuZCIgc3Ryb2tlLWxpbmVqb2luPSJyb3VuZCIgc3Ryb2tlLW1pdGVybGltaXQ9IjEwIiBkPSJNNTEuNCwzNS43NXYwLjFIMjAuODN2LTAuMDljMC4xOS0yLjY3LDEuMDctNS4xNiwyLjQ2LTcuMjhjMi4zLTMuNSw1Ljk4LTYsMTAuMjctNi43MmMwLjgzLTAuMTQsMS42OS0wLjIxLDIuNTYtMC4yMSBjMC4xNSwwLDAuMzEsMCwwLjQ2LDAuMDFDNDQuNDUsMjEuNzksNTAuODMsMjcuOTYsNTEuNCwzNS43NXoiLz4mI3hhOyAgPC9nPiYjeGE7PC9zdmc+;" parent="SLsqdyoGx3VEHhg5HpJQ-4" vertex="1">
                    <mxGeometry x="9.5" y="14" width="55" height="55" as="geometry"/>
                </mxCell>
                <mxCell id="SLsqdyoGx3VEHhg5HpJQ-5" value="" style="group;strokeColor=#666666;" parent="1" vertex="1" connectable="0">
                    <mxGeometry x="360" y="-344.5" width="220" height="84" as="geometry"/>
                </mxCell>
                <mxCell id="WwHgvZpowAIh_IYd4Kne-46" value="" style="rounded=0;whiteSpace=wrap;html=1;strokeWidth=4;strokeColor=#666666;" parent="SLsqdyoGx3VEHhg5HpJQ-5" vertex="1">
                    <mxGeometry width="220" height="84" as="geometry"/>
                </mxCell>
                <mxCell id="WwHgvZpowAIh_IYd4Kne-47" value="" style="shape=image;verticalLabelPosition=bottom;labelBackgroundColor=#ffffff;verticalAlign=top;aspect=fixed;imageAspect=0;image=data:image/svg+xml,PHN2ZyB4bWxucz0iaHR0cDovL3d3dy53My5vcmcvMjAwMC9zdmciIHhtbG5zOnhsaW5rPSJodHRwOi8vd3d3LnczLm9yZy8xOTk5L3hsaW5rIiB3aWR0aD0iMjU2cHgiIGhlaWdodD0iMjU2cHgiIHZpZXdCb3g9IjAgMCAyNTYgMjU2IiB2ZXJzaW9uPSIxLjEiPiYjeGE7ICAgIDwhLS0gR2VuZXJhdG9yOiBTa2V0Y2ggNTcuMSAoODMwODgpIC0gaHR0cHM6Ly9za2V0Y2guY29tIC0tPiYjeGE7ICAgIDx0aXRsZT5GYXZpY29uQDF4PC90aXRsZT4mI3hhOyAgICA8ZGVzYz5DcmVhdGVkIHdpdGggU2tldGNoLjwvZGVzYz4mI3hhOyAgICA8ZyBpZD0iRmF2aWNvbiIgc3Ryb2tlPSJub25lIiBzdHJva2Utd2lkdGg9IjEiIGZpbGw9Im5vbmUiIGZpbGwtcnVsZT0iZXZlbm9kZCI+JiN4YTsgICAgICAgIDxwYXRoIGQ9Ik00MCw4IEwyMTcsOCBDMjM0LjY3MzExMiw4IDI0OSwyMi4zMjY4ODggMjQ5LDQwIEwyNDksMjE3IEMyNDksMjM0LjY3MzExMiAyMzQuNjczMTEyLDI0OSAyMTcsMjQ5IEw0MCwyNDkgQzIyLjMyNjg4OCwyNDkgOCwyMzQuNjczMTEyIDgsMjE3IEw4LDQwIEM4LDIyLjMyNjg4OCAyMi4zMjY4ODgsOCA0MCw4IFoiIGlkPSJSZWN0YW5nbGUiIGZpbGw9IiMwMDlFREEiLz4mI3hhOyAgICAgICAgPHBhdGggZD0iTTE3MC4xMzcyNTUsMTAyLjkzNzI1NSBMMTcwLjEzNzI1NSw4Ni4zMTk2MDc4IEMxNzAuMTM3MjU1LDYyLjgzMzMzMzMgMTUwLjYzOTIxNiw0NCAxMjcuMTUyOTQxLDQ0IEMxMDMuNjY2NjY3LDQ0IDg0LjE2ODYyNzUsNjMuMDU0OTAyIDg0LjE2ODYyNzUsODYuMzE5NjA3OCBMODQuMTY4NjI3NSwxMDYuMjYwNzg0IEM3Mi44Njg2Mjc1LDExNy41NjA3ODQgNjYsMTMzLjI5MjE1NyA2NiwxNTAuNTc0NTEgQzY2LDE4NS4zNjA3ODQgOTQuMTM5MjE1NywyMTMuNSAxMjguOTI1NDksMjEzLjUgQzE2My43MTE3NjUsMjEzLjUgMTkxLjg1MDk4LDE4NS4zNjA3ODQgMTkxLjg1MDk4LDE1MC41NzQ1MSBDMTkyLjA3MjU0OSwxMzEuNTE5NjA4IDE4My40MzEzNzMsMTE0LjQ1ODgyNCAxNzAuMTM3MjU1LDEwMi45MzcyNTUgWiBNMTQwLjg5MDE5NiwxNzUuMzkwMTk2IEwxMTUuNDA5ODA0LDE3NS4zOTAxOTYgTDEyMi4yNzg0MzEsMTUyLjEyNTQ5IEMxMTcuMTgyMzUzLDE0OS45MDk4MDQgMTEzLjYzNzI1NSwxNDQuODEzNzI1IDExMy42MzcyNTUsMTM4LjgzMTM3MyBDMTEzLjYzNzI1NSwxMzAuODU0OTAyIDEyMC4yODQzMTQsMTI0LjIwNzg0MyAxMjguMjYwNzg0LDEyNC4yMDc4NDMgQzEzNi4yMzcyNTUsMTI0LjIwNzg0MyAxNDIuODg0MzE0LDEzMC44NTQ5MDIgMTQyLjg4NDMxNCwxMzguODMxMzczIEMxNDIuODg0MzE0LDE0NC44MTM3MjUgMTM5LjMzOTIxNiwxNDkuOTA5ODA0IDEzNC4yNDMxMzcsMTUyLjEyNTQ5IEwxNDAuODkwMTk2LDE3NS4zOTAxOTYgWiBNMTU1LjUxMzcyNSw5Ni4yOTAxOTYxIEMxNDkuOTc0NTEsOTEuNDE1Njg2MyAxNDAuODkwMTk2LDg3LjY0OTAxOTYgMTI5LjE0NzA1OSw4Ny42NDkwMTk2IEMxMTcuNDAzOTIyLDg3LjY0OTAxOTYgMTA2LjU0NzA1OSw4OS44NjQ3MDU5IDk3LjI0MTE3NjUsOTUuNDAzOTIxNiBMOTcuMjQxMTc2NSw5My4xODgyMzUzIEM5Ny4yNDExNzY1LDcxLjAzMTM3MjUgMTA2LjMyNTQ5LDU4LjYyMzUyOTQgMTI4LjI2MDc4NCw1OC42MjM1Mjk0IEMxNTAuMTk2MDc4LDU4LjYyMzUyOTQgMTU1LjczNTI5NCw3Mi44MDM5MjE2IDE1NS43MzUyOTQsOTUuMTgyMzUyOSBMMTU1LjczNTI5NCw5Ni4yOTAxOTYxIEwxNTUuNTEzNzI1LDk2LjI5MDE5NjEgWiIgaWQ9IlNoYXBlIiBmaWxsPSIjRkZGRkZGIiBmaWxsLXJ1bGU9Im5vbnplcm8iLz4mI3hhOyAgICA8L2c+JiN4YTs8L3N2Zz4=;align=left;" parent="SLsqdyoGx3VEHhg5HpJQ-5" vertex="1">
                    <mxGeometry x="12.5" y="18" width="49" height="49" as="geometry"/>
                </mxCell>
                <mxCell id="WwHgvZpowAIh_IYd4Kne-48" value="&lt;font&gt;&lt;span style=&quot;font-size: 16px&quot;&gt;Lurker&lt;br&gt;&lt;/span&gt;&lt;span style=&quot;font-size: 18px&quot;&gt;&lt;b&gt;Extract Results&lt;/b&gt;&lt;/span&gt;&lt;br&gt;&lt;/font&gt;" style="text;html=1;strokeColor=none;fillColor=none;align=left;verticalAlign=middle;whiteSpace=wrap;rounded=0;" parent="SLsqdyoGx3VEHhg5HpJQ-5" vertex="1">
                    <mxGeometry x="67" y="17" width="140" height="50" as="geometry"/>
                </mxCell>
                <mxCell id="SLsqdyoGx3VEHhg5HpJQ-33" style="edgeStyle=orthogonalEdgeStyle;rounded=0;orthogonalLoop=1;jettySize=auto;html=1;endArrow=block;endFill=1;strokeColor=#666666;strokeWidth=4;entryX=0.5;entryY=1;entryDx=0;entryDy=0;exitX=0.5;exitY=0;exitDx=0;exitDy=0;" parent="1" source="WwHgvZpowAIh_IYd4Kne-27" target="WwHgvZpowAIh_IYd4Kne-32" edge="1">
                    <mxGeometry relative="1" as="geometry">
                        <Array as="points">
                            <mxPoint x="780" y="-143"/>
                            <mxPoint x="780" y="-190"/>
                            <mxPoint x="470" y="-190"/>
                        </Array>
                    </mxGeometry>
                </mxCell>
                <mxCell id="SLsqdyoGx3VEHhg5HpJQ-43" value="" style="rounded=0;whiteSpace=wrap;html=1;strokeColor=#666666;strokeWidth=4;align=left;dashed=1;fillColor=none;verticalAlign=top;" parent="1" vertex="1">
                    <mxGeometry x="651.5" y="-499" width="254" height="259" as="geometry"/>
                </mxCell>
                <mxCell id="SLsqdyoGx3VEHhg5HpJQ-44" value="&lt;div align=&quot;right&quot;&gt;Kubernetes Job&lt;/div&gt;" style="text;html=1;strokeColor=none;fillColor=none;align=right;verticalAlign=top;whiteSpace=wrap;rounded=0;fontColor=#666666;fontSize=14;" parent="1" vertex="1">
                    <mxGeometry x="791.5" y="-497" width="109.5" height="26" as="geometry"/>
                </mxCell>
                <mxCell id="SLsqdyoGx3VEHhg5HpJQ-66" style="edgeStyle=orthogonalEdgeStyle;rounded=0;orthogonalLoop=1;jettySize=auto;html=1;entryX=0.5;entryY=1;entryDx=0;entryDy=0;endArrow=block;endFill=1;strokeColor=#666666;strokeWidth=4;" parent="1" source="WwHgvZpowAIh_IYd4Kne-27" target="SLsqdyoGx3VEHhg5HpJQ-43" edge="1">
                    <mxGeometry relative="1" as="geometry">
                        <Array as="points">
                            <mxPoint x="780" y="-190"/>
                            <mxPoint x="779" y="-190"/>
                        </Array>
                    </mxGeometry>
                </mxCell>
                <mxCell id="SLsqdyoGx3VEHhg5HpJQ-67" style="edgeStyle=orthogonalEdgeStyle;rounded=0;orthogonalLoop=1;jettySize=auto;html=1;entryX=0;entryY=0.5;entryDx=0;entryDy=0;endArrow=block;endFill=1;strokeColor=#666666;strokeWidth=4;exitX=0.5;exitY=0;exitDx=0;exitDy=0;" parent="1" source="WwHgvZpowAIh_IYd4Kne-27" target="SLsqdyoGx3VEHhg5HpJQ-54" edge="1">
                    <mxGeometry relative="1" as="geometry">
                        <Array as="points">
                            <mxPoint x="780" y="-143"/>
                            <mxPoint x="780" y="-190"/>
                            <mxPoint x="930" y="-190"/>
                            <mxPoint x="930" y="-460"/>
                        </Array>
                    </mxGeometry>
                </mxCell>
                <mxCell id="WwHgvZpowAIh_IYd4Kne-34" value="" style="shape=image;verticalLabelPosition=bottom;labelBackgroundColor=#ffffff;verticalAlign=top;aspect=fixed;imageAspect=0;image=data:image/svg+xml,PHN2ZyB4bWxucz0iaHR0cDovL3d3dy53My5vcmcvMjAwMC9zdmciIHhtbG5zOnhsaW5rPSJodHRwOi8vd3d3LnczLm9yZy8xOTk5L3hsaW5rIiB3aWR0aD0iOTNweCIgaGVpZ2h0PSI5MHB4IiB2aWV3Qm94PSIwIDAgOTMgOTAiIHZlcnNpb249IjEuMSI+JiN4YTsgICAgPCEtLSBHZW5lcmF0b3I6IFNrZXRjaCA1Ny4xICg4MzA4OCkgLSBodHRwczovL3NrZXRjaC5jb20gLS0+JiN4YTsgICAgPHRpdGxlPmt1YmVybmV0ZXNfaWNvbjwvdGl0bGU+JiN4YTsgICAgPGRlc2M+Q3JlYXRlZCB3aXRoIFNrZXRjaC48L2Rlc2M+JiN4YTsgICAgPGcgaWQ9IlBhZ2UtMSIgc3Ryb2tlPSJub25lIiBzdHJva2Utd2lkdGg9IjEiIGZpbGw9Im5vbmUiIGZpbGwtcnVsZT0iZXZlbm9kZCI+JiN4YTsgICAgICAgIDxnIGlkPSJrdWJlcm5ldGVzX2ljb24iIHRyYW5zZm9ybT0idHJhbnNsYXRlKDIuMDAwMDAwLCAyLjAwMDAwMCkiIGZpbGwtcnVsZT0ibm9uemVybyI+JiN4YTsgICAgICAgICAgICA8cGF0aCBkPSJNODAuMywxOS4zIEM3OS44LDE3LjcgNzguNiwxNi40IDc3LjEsMTUuNiBMNDYuNiwxIEM0NS44LDAuNiA0NC45LDAuNSA0NC4xLDAuNSBDNDMuMywwLjUgNDIuNCwwLjUgNDEuNiwwLjcgTDExLjEsMTUuNCBDOS42LDE2LjEgOC41LDE3LjQgOC4xLDE5LjEgTDAuNiw1MiBDMC4zLDUzLjcgMC43LDU1LjQgMS43LDU2LjggTDIyLjgsODIuOSBDMjQsODQuMSAyNS43LDg0LjkgMjcuNCw4NSBMNjEsODUgQzYyLjgsODUuMiA2NC41LDg0LjQgNjUuNiw4Mi45IEw4Ni43LDU2LjggQzg3LjcsNTUuNCA4OC4xLDUzLjcgODcuOSw1MiBMODAuMywxOS4zIFoiIGlkPSJQYXRoIiBzdHJva2U9IiNGRkZGRkYiIHN0cm9rZS13aWR0aD0iNSIgZmlsbD0iI0ZGRkZGRiIvPiYjeGE7ICAgICAgICAgICAgPHBhdGggZD0iTTgwLjMsMTkuMyBDNzkuOCwxNy43IDc4LjYsMTYuNCA3Ny4xLDE1LjYgTDQ2LjYsMSBDNDUuOCwwLjYgNDQuOSwwLjUgNDQuMSwwLjUgQzQzLjMsMC41IDQyLjQsMC41IDQxLjYsMC43IEwxMS4xLDE1LjQgQzkuNiwxNi4xIDguNSwxNy40IDguMSwxOS4xIEwwLjYsNTIgQzAuMyw1My43IDAuNyw1NS40IDEuNyw1Ni44IEwyMi44LDgyLjkgQzI0LDg0LjEgMjUuNyw4NC45IDI3LjQsODUgTDYxLDg1IEM2Mi44LDg1LjIgNjQuNSw4NC40IDY1LjYsODIuOSBMODYuNyw1Ni44IEM4Ny43LDU1LjQgODguMSw1My43IDg3LjksNTIgTDgwLjMsMTkuMyBaIiBpZD0iUGF0aCIgZmlsbD0iIzMyNkRFNiIvPiYjeGE7ICAgICAgICAgICAgPHBhdGggZD0iTTc1LjYsNTAuNyBMNzUuNiw1MC43IEM3NS41LDUwLjcgNzUuNCw1MC43IDc1LjQsNTAuNiBDNzUuNCw1MC41IDc1LjIsNTAuNSA3NSw1MC41IEM3NC42LDUwLjQgNzQuMiw1MC40IDczLjgsNTAuNCBDNzMuNiw1MC40IDczLjQsNTAuNCA3My4yLDUwLjMgTDczLjEsNTAuMyBDNzIsNTAuMiA3MC44LDUwIDY5LjcsNDkuNyBDNjkuNCw0OS42IDY5LjEsNDkuMyA2OSw0OSBDNjkuMSw0OSA2OSw0OSA2OSw0OSBMNjksNDkgTDY4LjIsNDguOCBDNjguNiw0NS45IDY4LjQsNDIuOSA2Ny44LDQwIEM2Ny4xLDM3LjEgNjUuOSwzNC4zIDY0LjMsMzEuOCBMNjQuOSwzMS4yIEw2NC45LDMxLjIgTDY0LjksMzEuMSBDNjQuOSwzMC44IDY1LDMwLjQgNjUuMiwzMC4yIEM2Ni4xLDI5LjQgNjcsMjguOCA2OCwyOC4yIEw2OCwyOC4yIEM2OC4yLDI4LjEgNjguNCwyOCA2OC42LDI3LjkgQzY5LDI3LjcgNjkuMywyNy41IDY5LjcsMjcuMyBDNjkuOCwyNy4yIDY5LjksMjcuMiA3MCwyNy4xIEM3MC4xLDI3IDcwLDI3IDcwLDI2LjkgTDcwLDI2LjkgQzcwLjksMjYuMiA3MS4xLDI1IDcwLjQsMjQuMSBDNzAuMSwyMy43IDY5LjUsMjMuNCA2OSwyMy40IEM2OC41LDIzLjQgNjgsMjMuNiA2Ny42LDIzLjkgTDY3LjYsMjMuOSBMNjcuNSwyNCBDNjcuNCwyNC4xIDY3LjMsMjQuMiA2Ny4yLDI0LjIgQzY2LjksMjQuNSA2Ni42LDI0LjggNjYuNCwyNS4xIEM2Ni4zLDI1LjMgNjYuMSwyNS40IDY2LDI1LjUgTDY2LDI1LjUgQzY1LjMsMjYuMyA2NC40LDI3LjEgNjMuNSwyNy43IEM2My4zLDI3LjggNjMuMSwyNy45IDYyLjksMjcuOSBDNjIuOCwyNy45IDYyLjYsMjcuOSA2Mi41LDI3LjggTDYyLjQsMjcuOCBMNjEuNiwyOC4zIEM2MC44LDI3LjUgNTkuOSwyNi43IDU5LjEsMjUuOSBDNTUuNCwyMyA1MC44LDIxLjIgNDYuMSwyMC43IEw0NiwxOS45IEw0NiwxOS45IEw0NiwyMCBDNDUuNywxOS44IDQ1LjYsMTkuNSA0NS41LDE5LjIgQzQ1LjUsMTguMSA0NS41LDE3IDQ1LjcsMTUuOCBMNDUuNywxNS43IEM0NS43LDE1LjUgNDUuOCwxNS4zIDQ1LjgsMTUuMSBDNDUuOSwxNC43IDQ1LjksMTQuMyA0NiwxMy45IEw0NiwxMy4zIEw0NiwxMy4zIEM0Ni4xLDEyLjMgNDUuMywxMS4zIDQ0LjMsMTEuMiBDNDMuNywxMS4xIDQzLjEsMTEuNCA0Mi42LDExLjkgQzQyLjIsMTIuMyA0MiwxMi44IDQyLDEzLjMgTDQyLDEzLjMgTDQyLDEzLjggQzQyLDE0LjIgNDIuMSwxNC42IDQyLjIsMTUgQzQyLjMsMTUuMiA0Mi4zLDE1LjQgNDIuMywxNS42IEw0Mi4zLDE1LjcgQzQyLjUsMTYuOCA0Mi41LDE3LjkgNDIuNSwxOS4xIEM0Mi40LDE5LjQgNDIuMywxOS43IDQyLDE5LjkgTDQyLDIwLjEgTDQyLDIwLjEgTDQxLjksMjAuOSBDNDAuOCwyMSAzOS43LDIxLjIgMzguNSwyMS40IEMzMy44LDIyLjQgMjkuNSwyNC45IDI2LjIsMjguNCBMMjUuNiwyOCBMMjUuNSwyOCBDMjUuNCwyOCAyNS4zLDI4LjEgMjUuMSwyOC4xIEMyNC45LDI4LjEgMjQuNywyOCAyNC41LDI3LjkgQzIzLjYsMjcuMiAyMi43LDI2LjQgMjIsMjUuNiBMMjIsMjUuNiBDMjEuOSwyNS40IDIxLjcsMjUuMyAyMS42LDI1LjIgQzIxLjMsMjQuOSAyMS4xLDI0LjYgMjAuOCwyNC4zIEMyMC43LDI0LjIgMjAuNiwyNC4yIDIwLjUsMjQuMSBDMjAuNCwyNCAyMC40LDI0IDIwLjQsMjQgTDIwLjQsMjQgQzIwLDIzLjcgMTkuNSwyMy41IDE5LDIzLjUgQzE4LjQsMjMuNSAxNy45LDIzLjcgMTcuNiwyNC4yIEMxNywyNS4xIDE3LjIsMjYuMyAxOCwyNyBMMTgsMjcgQzE4LjEsMjcgMTguMSwyNy4xIDE4LjEsMjcuMSBDMTguMSwyNy4xIDE4LjMsMjcuMyAxOC40LDI3LjMgQzE4LjcsMjcuNSAxOS4xLDI3LjcgMTkuNSwyNy45IEMxOS43LDI4IDE5LjksMjguMSAyMC4xLDI4LjIgTDIwLjEsMjguMiBDMjEuMSwyOC44IDIyLjEsMjkuNCAyMi45LDMwLjIgQzIzLjEsMzAuNCAyMy4zLDMwLjggMjMuMiwzMS4xIEwyMy4yLDMxIEwyMy4yLDMxIEwyMy44LDMxLjYgQzIzLjcsMzEuOCAyMy42LDMxLjkgMjMuNSwzMi4xIEMyMC40LDM3IDE5LjEsNDIuOCAyMCw0OC41IEwxOS4yLDQ4LjcgTDE5LjIsNDguNyBDMTkuMiw0OC44IDE5LjEsNDguOCAxOS4xLDQ4LjggQzE5LDQ5LjEgMTguNyw0OS4zIDE4LjQsNDkuNSBDMTcuMyw0OS44IDE2LjIsNTAgMTUsNTAuMSBMMTUsNTAuMSBDMTQuOCw1MC4xIDE0LjYsNTAuMSAxNC40LDUwLjIgQzE0LDUwLjIgMTMuNiw1MC4zIDEzLjIsNTAuMyBDMTMuMSw1MC4zIDEzLDUwLjQgMTIuOCw1MC40IEMxMi43LDUwLjQgMTIuNyw1MC40IDEyLjYsNTAuNSBMMTIuNiw1MC41IEMxMS41LDUwLjcgMTAuOCw1MS43IDExLDUyLjggQzExLDUyLjggMTEsNTIuOCAxMSw1Mi44IEMxMS4yLDUzLjcgMTIuMSw1NC4zIDEzLDU0LjIgQzEzLjIsNTQuMiAxMy4zLDU0LjIgMTMuNSw1NC4xIEwxMy41LDU0LjEgQzEzLjYsNTQuMSAxMy42LDU0LjEgMTMuNiw1NCBDMTMuNiw1My45IDEzLjksNTQgMTQsNTQgQzE0LjQsNTMuOSAxNC44LDUzLjcgMTUuMSw1My42IEMxNS4zLDUzLjUgMTUuNSw1My40IDE1LjcsNTMuNCBMMTUuOCw1My40IEMxNi45LDUzIDE3LjksNTIuNyAxOS4xLDUyLjUgTDE5LjIsNTIuNSBDMTkuNSw1Mi41IDE5LjgsNTIuNiAyMCw1Mi44IEMyMC4xLDUyLjggMjAuMSw1Mi45IDIwLjEsNTIuOSBMMjAuMSw1Mi45IEwyMSw1Mi44IEMyMi41LDU3LjQgMjUuMyw2MS41IDI5LjIsNjQuNSBDMzAuMSw2NS4yIDMwLjksNjUuOCAzMS45LDY2LjMgTDMxLjQsNjcgTDMxLjQsNjcgQzMxLjQsNjcuMSAzMS41LDY3LjEgMzEuNSw2Ny4xIEMzMS43LDY3LjQgMzEuNyw2Ny44IDMxLjYsNjguMSBDMzEuMiw2OS4xIDMwLjYsNzAuMSAzMCw3MSBMMzAsNzEuMSBDMjkuOSw3MS4zIDI5LjgsNzEuNCAyOS42LDcxLjYgQzI5LjQsNzEuOCAyOS4yLDcyLjIgMjguOSw3Mi42IEMyOC44LDcyLjcgMjguOCw3Mi44IDI4LjcsNzIuOSBDMjguNyw3Mi45IDI4LjcsNzMgMjguNiw3MyBMMjguNiw3MyBDMjguMSw3NCAyOC41LDc1LjIgMjkuNCw3NS43IEMyOS42LDc1LjggMjkuOSw3NS45IDMwLjEsNzUuOSBDMzAuOSw3NS45IDMxLjYsNzUuNCAzMiw3NC43IEwzMiw3NC43IEMzMiw3NC43IDMyLDc0LjYgMzIuMSw3NC42IEMzMi4xLDc0LjUgMzIuMiw3NC40IDMyLjMsNzQuMyBDMzIuNCw3My45IDMyLjYsNzMuNiAzMi43LDczLjIgTDMyLjksNzIuNiBMMzIuOSw3Mi42IEMzMy4yLDcxLjUgMzMuNyw3MC41IDM0LjIsNjkuNSBDMzQuNCw2OS4yIDM0LjcsNjkgMzUsNjguOSBDMzUuMSw2OC45IDM1LjEsNjguOSAzNS4xLDY4LjggTDM1LjEsNjguOCBMMzUuNSw2OCBDMzguMyw2OS4xIDQxLjIsNjkuNiA0NC4yLDY5LjYgQzQ2LDY5LjYgNDcuOCw2OS40IDQ5LjYsNjguOSBDNTAuNyw2OC43IDUxLjgsNjguMyA1Mi44LDY4IEw1My4yLDY4LjcgTDUzLjIsNjguNyBDNTMuMyw2OC43IDUzLjMsNjguNyA1My4zLDY4LjggQzUzLjYsNjguOSA1My45LDY5LjEgNTQuMSw2OS40IEM1NC42LDcwLjQgNTUuMSw3MS40IDU1LjQsNzIuNSBMNTUuNCw3Mi42IEw1NS42LDczLjIgQzU1LjcsNzMuNiA1NS44LDc0IDU2LDc0LjMgQzU2LjEsNzQuNCA1Ni4xLDc0LjUgNTYuMiw3NC42IEM1Ni4yLDc0LjYgNTYuMiw3NC43IDU2LjMsNzQuNyBMNTYuMyw3NC43IEM1Ni43LDc1LjQgNTcuNCw3NS45IDU4LjIsNzUuOSBDNTguNSw3NS45IDU4LjcsNzUuOCA1OSw3NS43IEM1OS40LDc1LjUgNTkuOCw3NS4xIDU5LjksNzQuNiBDNjAsNzQuMSA2MCw3My42IDU5LjgsNzMuMSBMNTkuOCw3My4xIEM1OS44LDczIDU5LjcsNzMgNTkuNyw3MyBDNTkuNyw3Mi45IDU5LjYsNzIuOCA1OS41LDcyLjcgQzU5LjMsNzIuMyA1OS4xLDcyIDU4LjgsNzEuNyBDNTguNyw3MS41IDU4LjYsNzEuNCA1OC40LDcxLjIgTDU4LjQsNzEgQzU3LjcsNzAuMSA1Ny4yLDY5LjEgNTYuOCw2OC4xIEM1Ni43LDY3LjggNTYuNyw2Ny40IDU2LjksNjcuMSBDNTYuOSw2NyA1Nyw2NyA1Nyw2NyBMNTcsNjcgTDU2LjcsNjYuMiBDNjEuOCw2My4xIDY1LjcsNTguMyA2Ny41LDUyLjYgTDY4LjMsNTIuNyBMNjguMyw1Mi43IEM2OC40LDUyLjcgNjguNCw1Mi42IDY4LjQsNTIuNiBDNjguNiw1Mi40IDY4LjksNTIuMyA2OS4yLDUyLjMgTDY5LjMsNTIuMyBDNzAuNCw1Mi41IDcxLjUsNTIuOCA3Mi41LDUzLjIgTDcyLjYsNTMuMiBDNzIuOCw1My4zIDczLDUzLjQgNzMuMiw1My40IEM3My42LDUzLjYgNzMuOSw1My44IDc0LjMsNTMuOSBDNzQuNCw1My45IDc0LjUsNTQgNzQuNyw1NCBDNzQuOCw1NCA3NC44LDU0IDc0LjksNTQuMSBMNzQuOSw1NC4xIEM3NS4xLDU0LjIgNzUuMiw1NC4yIDc1LjQsNTQuMiBDNzYuMyw1NC4yIDc3LjEsNTMuNiA3Ny40LDUyLjggQzc3LjMsNTEuNyA3Ni41LDUwLjkgNzUuNiw1MC43IFogTTQ2LjcsNDcuNiBMNDQsNDguOSBMNDEuMyw0Ny42IEw0MC42LDQ0LjcgTDQyLjUsNDIuMyBMNDUuNSw0Mi4zIEw0Ny40LDQ0LjcgTDQ2LjcsNDcuNiBaIE02Myw0MS4xIEM2My41LDQzLjIgNjMuNiw0NS4zIDYzLjQsNDcuNCBMNTMuOSw0NC43IEw1My45LDQ0LjcgQzUzLDQ0LjUgNTIuNSw0My42IDUyLjcsNDIuNyBDNTIuOCw0Mi40IDUyLjksNDIuMiA1My4xLDQyIEw2MC42LDM1LjIgQzYxLjcsMzcgNjIuNSwzOSA2Myw0MS4xIFogTTU3LjYsMzEuNSBMNDkuNCwzNy4zIEM0OC43LDM3LjcgNDcuNywzNy42IDQ3LjIsMzYuOSBDNDcsMzYuNyA0Ni45LDM2LjUgNDYuOSwzNi4yIEw0Ni4zLDI2LjEgQzUwLjcsMjYuNiA1NC42LDI4LjUgNTcuNiwzMS41IEw1Ny42LDMxLjUgWiBNMzkuNSwyNi40IEw0MS41LDI2IEw0MSwzNiBMNDEsMzYgQzQxLDM2LjkgNDAuMiwzNy42IDM5LjMsMzcuNiBDMzksMzcuNiAzOC44LDM3LjUgMzguNSwzNy40IEwzMC4yLDMxLjUgQzMyLjgsMjkgMzYsMjcuMiAzOS41LDI2LjQgWiBNMjcuMywzNS4yIEwzNC43LDQxLjggTDM0LjcsNDEuOCBDMzUuNCw0Mi40IDM1LjUsNDMuNCAzNC45LDQ0LjEgQzM0LjcsNDQuNCAzNC41LDQ0LjUgMzQuMSw0NC42IEwyNC40LDQ3LjQgQzI0LjEsNDMuMiAyNS4xLDM4LjkgMjcuMywzNS4yIFogTTI1LjYsNTIuMSBMMzUuNSw1MC40IEMzNi4zLDUwLjQgMzcuMSw1MC45IDM3LjIsNTEuNyBDMzcuMyw1MiAzNy4zLDUyLjQgMzcuMSw1Mi43IEwzNy4xLDUyLjcgTDMzLjMsNjEuOSBDMjkuOCw1OS42IDI3LDU2LjEgMjUuNiw1Mi4xIFogTTQ4LjMsNjQuNSBDNDYuOSw2NC44IDQ1LjUsNjUgNDQsNjUgQzQxLjksNjUgMzkuNyw2NC42IDM3LjcsNjQgTDQyLjYsNTUuMSBDNDMuMSw1NC41IDQzLjksNTQuMyA0NC42LDU0LjcgQzQ0LjksNTQuOSA0NS4xLDU1LjEgNDUuNCw1NS40IEw0NS40LDU1LjQgTDUwLjIsNjQuMSBDNDkuNiw2NC4yIDQ5LDY0LjMgNDguMyw2NC41IFogTTYwLjUsNTUuOCBDNTksNTguMiA1Ni45LDYwLjMgNTQuNSw2MS44IEw1MC42LDUyLjQgQzUwLjQsNTEuNiA1MC44LDUwLjggNTEuNSw1MC41IEM1MS44LDUwLjQgNTIuMSw1MC4zIDUyLjQsNTAuMyBMNjIuNCw1MiBDNjEuOSw1My40IDYxLjMsNTQuNyA2MC41LDU1LjggWiIgaWQ9IlNoYXBlIiBmaWxsPSIjRkZGRkZGIi8+JiN4YTsgICAgICAgIDwvZz4mI3hhOyAgICA8L2c+JiN4YTs8L3N2Zz4=;" parent="1" vertex="1">
                    <mxGeometry x="1190" y="-116" width="70" height="68.25" as="geometry"/>
                </mxCell>
                <mxCell id="SLsqdyoGx3VEHhg5HpJQ-32" value="" style="group" parent="1" vertex="1" connectable="0">
                    <mxGeometry x="140" y="-143" width="238.5" height="84" as="geometry"/>
                </mxCell>
                <mxCell id="SLsqdyoGx3VEHhg5HpJQ-26" value="" style="group" parent="SLsqdyoGx3VEHhg5HpJQ-32" vertex="1" connectable="0">
                    <mxGeometry width="238.5" height="84" as="geometry"/>
                </mxCell>
                <mxCell id="SLsqdyoGx3VEHhg5HpJQ-19" value="" style="rounded=0;whiteSpace=wrap;html=1;strokeWidth=4;strokeColor=#666666;" parent="SLsqdyoGx3VEHhg5HpJQ-26" vertex="1">
                    <mxGeometry width="238.5" height="84" as="geometry"/>
                </mxCell>
                <mxCell id="SLsqdyoGx3VEHhg5HpJQ-20" value="" style="shape=image;verticalLabelPosition=bottom;labelBackgroundColor=#ffffff;verticalAlign=top;aspect=fixed;imageAspect=0;image=data:image/svg+xml,PHN2ZyB4bWxucz0iaHR0cDovL3d3dy53My5vcmcvMjAwMC9zdmciIHhtbG5zOnhsaW5rPSJodHRwOi8vd3d3LnczLm9yZy8xOTk5L3hsaW5rIiB3aWR0aD0iMjU2cHgiIGhlaWdodD0iMjU2cHgiIHZpZXdCb3g9IjAgMCAyNTYgMjU2IiB2ZXJzaW9uPSIxLjEiPiYjeGE7ICAgIDwhLS0gR2VuZXJhdG9yOiBTa2V0Y2ggNTcuMSAoODMwODgpIC0gaHR0cHM6Ly9za2V0Y2guY29tIC0tPiYjeGE7ICAgIDx0aXRsZT5GYXZpY29uQDF4PC90aXRsZT4mI3hhOyAgICA8ZGVzYz5DcmVhdGVkIHdpdGggU2tldGNoLjwvZGVzYz4mI3hhOyAgICA8ZyBpZD0iRmF2aWNvbiIgc3Ryb2tlPSJub25lIiBzdHJva2Utd2lkdGg9IjEiIGZpbGw9Im5vbmUiIGZpbGwtcnVsZT0iZXZlbm9kZCI+JiN4YTsgICAgICAgIDxwYXRoIGQ9Ik00MCw4IEwyMTcsOCBDMjM0LjY3MzExMiw4IDI0OSwyMi4zMjY4ODggMjQ5LDQwIEwyNDksMjE3IEMyNDksMjM0LjY3MzExMiAyMzQuNjczMTEyLDI0OSAyMTcsMjQ5IEw0MCwyNDkgQzIyLjMyNjg4OCwyNDkgOCwyMzQuNjczMTEyIDgsMjE3IEw4LDQwIEM4LDIyLjMyNjg4OCAyMi4zMjY4ODgsOCA0MCw4IFoiIGlkPSJSZWN0YW5nbGUiIGZpbGw9IiMwMDlFREEiLz4mI3hhOyAgICAgICAgPHBhdGggZD0iTTE3MC4xMzcyNTUsMTAyLjkzNzI1NSBMMTcwLjEzNzI1NSw4Ni4zMTk2MDc4IEMxNzAuMTM3MjU1LDYyLjgzMzMzMzMgMTUwLjYzOTIxNiw0NCAxMjcuMTUyOTQxLDQ0IEMxMDMuNjY2NjY3LDQ0IDg0LjE2ODYyNzUsNjMuMDU0OTAyIDg0LjE2ODYyNzUsODYuMzE5NjA3OCBMODQuMTY4NjI3NSwxMDYuMjYwNzg0IEM3Mi44Njg2Mjc1LDExNy41NjA3ODQgNjYsMTMzLjI5MjE1NyA2NiwxNTAuNTc0NTEgQzY2LDE4NS4zNjA3ODQgOTQuMTM5MjE1NywyMTMuNSAxMjguOTI1NDksMjEzLjUgQzE2My43MTE3NjUsMjEzLjUgMTkxLjg1MDk4LDE4NS4zNjA3ODQgMTkxLjg1MDk4LDE1MC41NzQ1MSBDMTkyLjA3MjU0OSwxMzEuNTE5NjA4IDE4My40MzEzNzMsMTE0LjQ1ODgyNCAxNzAuMTM3MjU1LDEwMi45MzcyNTUgWiBNMTQwLjg5MDE5NiwxNzUuMzkwMTk2IEwxMTUuNDA5ODA0LDE3NS4zOTAxOTYgTDEyMi4yNzg0MzEsMTUyLjEyNTQ5IEMxMTcuMTgyMzUzLDE0OS45MDk4MDQgMTEzLjYzNzI1NSwxNDQuODEzNzI1IDExMy42MzcyNTUsMTM4LjgzMTM3MyBDMTEzLjYzNzI1NSwxMzAuODU0OTAyIDEyMC4yODQzMTQsMTI0LjIwNzg0MyAxMjguMjYwNzg0LDEyNC4yMDc4NDMgQzEzNi4yMzcyNTUsMTI0LjIwNzg0MyAxNDIuODg0MzE0LDEzMC44NTQ5MDIgMTQyLjg4NDMxNCwxMzguODMxMzczIEMxNDIuODg0MzE0LDE0NC44MTM3MjUgMTM5LjMzOTIxNiwxNDkuOTA5ODA0IDEzNC4yNDMxMzcsMTUyLjEyNTQ5IEwxNDAuODkwMTk2LDE3NS4zOTAxOTYgWiBNMTU1LjUxMzcyNSw5Ni4yOTAxOTYxIEMxNDkuOTc0NTEsOTEuNDE1Njg2MyAxNDAuODkwMTk2LDg3LjY0OTAxOTYgMTI5LjE0NzA1OSw4Ny42NDkwMTk2IEMxMTcuNDAzOTIyLDg3LjY0OTAxOTYgMTA2LjU0NzA1OSw4OS44NjQ3MDU5IDk3LjI0MTE3NjUsOTUuNDAzOTIxNiBMOTcuMjQxMTc2NSw5My4xODgyMzUzIEM5Ny4yNDExNzY1LDcxLjAzMTM3MjUgMTA2LjMyNTQ5LDU4LjYyMzUyOTQgMTI4LjI2MDc4NCw1OC42MjM1Mjk0IEMxNTAuMTk2MDc4LDU4LjYyMzUyOTQgMTU1LjczNTI5NCw3Mi44MDM5MjE2IDE1NS43MzUyOTQsOTUuMTgyMzUyOSBMMTU1LjczNTI5NCw5Ni4yOTAxOTYxIEwxNTUuNTEzNzI1LDk2LjI5MDE5NjEgWiIgaWQ9IlNoYXBlIiBmaWxsPSIjRkZGRkZGIiBmaWxsLXJ1bGU9Im5vbnplcm8iLz4mI3hhOyAgICA8L2c+JiN4YTs8L3N2Zz4=;align=left;" parent="SLsqdyoGx3VEHhg5HpJQ-26" vertex="1">
                    <mxGeometry x="12.5" y="18" width="49" height="49" as="geometry"/>
                </mxCell>
                <mxCell id="SLsqdyoGx3VEHhg5HpJQ-21" value="CustomRessource&lt;font&gt;&lt;span style=&quot;font-size: 16px&quot;&gt;&lt;br&gt;&lt;/span&gt;&lt;span style=&quot;font-size: 18px&quot;&gt;&lt;b&gt;Scan : scanType&lt;/b&gt;&lt;/span&gt;&lt;br&gt;&lt;/font&gt;" style="text;html=1;strokeColor=none;fillColor=none;align=left;verticalAlign=middle;whiteSpace=wrap;rounded=0;" parent="SLsqdyoGx3VEHhg5HpJQ-26" vertex="1">
                    <mxGeometry x="70" y="17.5" width="144" height="50" as="geometry"/>
                </mxCell>
                <mxCell id="SLsqdyoGx3VEHhg5HpJQ-41" style="edgeStyle=orthogonalEdgeStyle;rounded=0;orthogonalLoop=1;jettySize=auto;html=1;entryX=1;entryY=0.5;entryDx=0;entryDy=0;endArrow=block;endFill=1;strokeColor=#666666;strokeWidth=4;" parent="1" source="WwHgvZpowAIh_IYd4Kne-27" target="SLsqdyoGx3VEHhg5HpJQ-19" edge="1">
                    <mxGeometry relative="1" as="geometry"/>
                </mxCell>
                <mxCell id="SLsqdyoGx3VEHhg5HpJQ-70" value="" style="ellipse;whiteSpace=wrap;html=1;strokeColor=none;fontSize=14;fontColor=#666666;fillColor=#009EDA;" parent="1" vertex="1">
                    <mxGeometry x="41.75" y="-116" width="28.5" height="30" as="geometry"/>
                </mxCell>
                <mxCell id="SLsqdyoGx3VEHhg5HpJQ-72" value="&lt;font style=&quot;font-size: 21px;&quot; color=&quot;#FFFFFF&quot;&gt;&lt;b style=&quot;font-size: 21px;&quot;&gt;1&lt;/b&gt;&lt;/font&gt;" style="text;html=1;strokeColor=none;fillColor=none;align=center;verticalAlign=middle;rounded=0;fontSize=21;fontColor=#666666;whiteSpace=wrap;" parent="1" vertex="1">
                    <mxGeometry x="46.75" y="-109" width="18.5" height="18" as="geometry"/>
                </mxCell>
                <mxCell id="h4DD63BsNahQlmRNBtQ3-6" value="Security &lt;b style=&quot;font-size: 10px;&quot;&gt;Scanning&lt;/b&gt;" style="shape=step;perimeter=stepPerimeter;whiteSpace=wrap;html=1;fixedSize=1;strokeColor=#E6E6E6;fontColor=#999999;dashed=1;dashPattern=1 2;strokeWidth=2;fontSize=10;" parent="1" vertex="1">
                    <mxGeometry x="360" y="-620" width="220" height="30" as="geometry"/>
                </mxCell>
                <mxCell id="h4DD63BsNahQlmRNBtQ3-7" value="Result &lt;b style=&quot;font-size: 10px;&quot;&gt;Parsing&lt;/b&gt;" style="shape=step;perimeter=stepPerimeter;whiteSpace=wrap;html=1;fixedSize=1;strokeColor=#E6E6E6;fontColor=#999999;dashed=1;dashPattern=1 2;strokeWidth=2;fontSize=10;" parent="1" vertex="1">
                    <mxGeometry x="650" y="-620" width="250" height="30" as="geometry"/>
                </mxCell>
                <mxCell id="h4DD63BsNahQlmRNBtQ3-8" value="Data Processing &lt;b style=&quot;font-size: 10px&quot;&gt;Hooks&lt;/b&gt;" style="shape=step;perimeter=stepPerimeter;whiteSpace=wrap;html=1;fixedSize=1;strokeColor=#E6E6E6;fontColor=#999999;dashed=1;dashPattern=1 2;strokeWidth=2;fontSize=10;" parent="1" vertex="1">
                    <mxGeometry x="994" y="-620" width="259" height="30" as="geometry"/>
                </mxCell>
                <mxCell id="h4DD63BsNahQlmRNBtQ3-9" value="Analytics &amp;amp; &lt;br style=&quot;font-size: 10px;&quot;&gt;Vulnerability Management" style="shape=step;perimeter=stepPerimeter;whiteSpace=wrap;html=1;fixedSize=1;strokeColor=#E6E6E6;fontColor=#999999;dashed=1;dashPattern=1 2;strokeWidth=2;fontSize=10;" parent="1" vertex="1">
                    <mxGeometry x="1300" y="-620" width="155" height="30" as="geometry"/>
                </mxCell>
                <mxCell id="h4DD63BsNahQlmRNBtQ3-11" value="" style="shape=image;verticalLabelPosition=bottom;labelBackgroundColor=#ffffff;verticalAlign=top;aspect=fixed;imageAspect=0;image=data:image/png,iVBORw0KGgoAAAANSUhEUgAAAGQAAABkCAYAAABw4pVUAAAMiklEQVR4Ae1bC1hVVRZmmqaZaiorLc3MntP0brKXNYk1o5mpWanZw7KHGiqIgJVPIE3ML62msnyUiYgYMOKj0rKIeEgFKO83ohcEEbgIFy/3gf98a5178HLvucJcL7Whfb5v333O3mvvvc7699prrX329YK8hJKAl1DcSGYgARFsEkhAJCCCSUAwdqSGSEAEk4Bg7EgNkYAIJgHB2JEaIgERTAKCsSM1RAIimAQEY0dqiAREMAkIxo7UEAmIYBIQjB2pIRIQwSQgGDtSQyQggklAMHakhkhABJOAYOx0Cw05ZjAis6QC+ykV65T8VPe2On3TccHE3TE73QKQr1Nz0GdUIPqOfa3T6eKRAfhvwr6OJSAYRbcAZHtSJv40dDrOe3hWh+n8Ef64ZMwcnDvcD9Hx6YKJu2N2ugUgFTV6bN7zCwv4i/h0zknYjvexCfvw0dYE9H/8Dfx1+CzE/CAB6XgKdDFFcUUNBjw51wZIRheP5vnuu4WGaL12VbMZiVUGJFcbOD/cbGay7NJKXP4EaYif1BAtwXmi7MSJEzBZrJzonq6IojoMiMjBdVG5nH9eUMvl2WUEiKohcsnyhPyd+kjYX4y7py3DkJnvIKeskusji+txdWQOrt+Si4GROQwQVUhAnMTn+YKdyVk4+9++6PXIbKTmHuABNhbV4bKN2Ri4KYfzzwu1NETaEM+jAeDLlGxcwO5sEH7KUwCJr2zEKwkHMTNJx/l3FY08tqIh0oZ0CRBqpyogfcYE4Zf8crVYM889cFjaEE3JeLDQHpDv0gtAWym1xwyobWhSctt9g+E49uaW2bwsGYd4EIL2XTEgj8xG38dew9+fC8HNL7yJm18ItaX29zc8F4J+Y1/DeTIwbC9ETz7tSMrirZNzhvnhL/+aiT+fIlE90Z0xxIeje0/y8Wv01S0Cw5KKGrwdsRvLI3fj7UglP9X98shvEBaxC3nlVb+GDD06RrcAxKNvLHhnEhDBAJKASEAEk4Bg7EgNkYAIJgHB2JEa4mFA1M8D7nbrFiDNRpNyCoRPgOg0ToLQyRClnDb7zBYr6CsGxQX71DbqKRKis93vKzqEBttJkfKqWmQUHVL6sae1tae6yqMN/N5HG5oU2nZ9t++XYhm6aNuFxlH5U8ZWaXXMH+2HWVtbYbG24ue8ciRmliApyz6VIimLUgmSspX8x8xi1DYY3MWhrZ1bgKQVlOOSUYHoNXI2Lno0wGXqMzoI1z29iAVHH5gG+yzHxaMCOTm3C0SvEf6gAw10vRwWztvtvUcHavZP0Xro+p1Mu25nEuhwA43n3G8Azn/YH+MWrGbaHzIK0XtUIB+E0KQd4Y8bJ4WiwWBEfWMzbnw2mHcGKPqndN4If1z0aCCPp5ZRftZDM7EtUeGdB3Lzxy1A6DPpvVOX4a4pYbh76jKndM+0ZRj08lJ+6aufWoCKo3qYzBamu2hkAG5/aQmIxrHtoJffQnxGIb/K5KUbWAA3PR+Ke6a97UR7y+TF+DA2nmnX7UjCucP8cO3TC3GvBu0dL70F33ejmJb6v+CR2ej/xBtOfRI/g15ZipFzPmRNamw2YmLwWjww8x14+67AUL+VuHXyYvQeFYRrJy6Et98KLqe6+3yWg7TkdC+3AGk9cQJGkxlGk8WWzGgxWThRuclsZRBopl05YX6bhhCANIvp0JvV2ooWs9rmZD/UN10vhm3AGd4+WP91Cj+fpFXHNcNitXLdup3J+ONQH8xbEwdqrtKqOfNkUWgJEJrRwwPeh8FoYtqT70F8mLnMxoby6dhs4ZwGW70tEWd4T8f0lZt5bP60bLbyhFN55wo3f9wCpDNj1TQ04SYbIKwhFitrVO/RQaCTIR1dKiCRe37uiBSfEiDePgj+bEeHtATI2cN8MSLoA7S2KuB32MiOgJZHrwemYYZN4+yqPHLrFiBkpGv0jahrbIYrr+JIfSOvxaqG0LHOGyeF8Bo/Zu4qTAxZh6dC1mH8wjX8RdD+bWh2Tghei3OG+WKo3wo8HfopPz+5YDVWRn1rT8r3n2z7kT/xkgY+86ZCO37RGvi+t4U12L5BGyCB/2GjbV/Xmfu1OwQEhLyUvz2zCKNe/wjkcWldR/QnATlc24AafRO3IYN61kMz8Ichr/KS5DV4Ct7dsqddF6T6Y+d/wp9tySATLSWvwa/giXkft6Olh1VbE/j7Bxl2hdYHXv+chmsmLuRlyb5BjwQkreAge0DkNdE6rHXZA0LuKdGRMScb8nFcAuISMxGXuJ9PIRbpjjh1MWnJegYu6KMY7EjOQtyP+xETn4GU7FInWlpGCGTSDqLdSrQ/ZOCrvTlOWtAjAUkvPIgLRwawG3u8RTmg5iglig3IQ1KXLFrm7pq6jAE5UFXnSO70/GJYOGtQ1PdpTnWOBWTUyQEI/kxxgx3r7Z/bAAn6wOVya0/veK8sWa+KZUMIEPLh6axUZW0DB3MU0FEiW9HY3IKyw0dxw6QQXDVhvuL22hl1OqhAGqO2UdtRW9VzIqNOy8/G3amOMnF6JkDOHDodc1bF4rjJDPq27ti34XgLtyNAyDYNm/0+xxlES+Pa80DBoyvbKKQNSS84yDOdToHQN2xybx3T9c8Gt49DLFbcOSWMNYvsjyM9PdOav+unXBYcaciZD05HeCcAISFRHDJw/DyeBI59Xz1hAV5auqENELI16vd5R1ri29t3JYPkhDyANTsS4XX/1Da3V4vmdMrc8rJo24ICPlqOrhg3D1eMm6uZSEB0IIGMOi1ZD856lw9Cn2xj33YeLnv8dXyVmsPvQ24luchR33W8ZG3YlcoCvnL8fAxw4mUeLn1sDtsX6pi2OwaOn8+8O9PO5ZPz5K1RlK510Vi0QxG0Klar+rTL3AKEAq6D1XUot0v07FhG9boaPe8LkcdPxt2xjf0z3Te3KE4C2aADVbVosi01p3pTiqiJVu1L5aONp6o69vKoDy3e1XZqTnGTqyCPlj5apmmZ64rLLUC6ghHZpyIBCYhgM6HLAGm2tOKDnBosTq/CWxnVp0xEU9RgZNFEl9YjJO1UbZS60LQqfKM71mlxHmg0gdp8avvbQnmjCUs6wduSjCqsyDyChhZlL6zTA7pJ2GWA1BotuC0mHxd+nok+G7JcpssjstE/Ihu7bcKdknAQfcOz0G+j6zZ06v3S8CwEpx3u9GsnVjWhb3g2Rn+tBJbJVQYMiMjm5Iq/S8KzmLfbovNRadCOtzrNQCcJuwwQo7UV9B+O1Xm1WJOvpLW2nJ7pnmbr8C+LcVVkDr61nV6fkaTDFZtyELi3AusL69raqn18VlDLp90JFNKszl4p1QYeZ9w3Zdxkb7UB10TmYuj2Ih7Dnjcaa11BLd7LrsEt0fm4L64Q9I+tX+PqMkA6y/zk+HKepd/qlL8TzEg6xP/32HZA+Rqo1Q+BQrP6/wGE/vp21aYc2ANy5aYcjLcBpDXOMbMVd8YWYPDWQqh/mdOi82TZbwoI7eo+/z0B0l5DaPbHlOldvifNXlpOFmecnoYQIGN3l8LVLvxRowWDCJCeoCGm1hPYUqJHeGEdGk3aBpG2J5wBUTQkprQDQNzRkEhnDfndAFLXYsHdWwtwfVQeDjVp7wh7SkOy6oxYtq8ae2x2SEu1tGzI70pDCBAymP+IKYDOJSCe0ZDIknr0Wp+J11OVP4RqAcI25PeuId7bi3B7TD5qjlu0ZMRlbUa9zcuyGfVy10advC97ox5dpselG7Kw6BfXbnBaTbOTl0Ua8mRnjHpPsCGkIUO2F+GGLXn4JO8ookrqsam4fdpcosfIr0qc3F4y8nN/qmTDTsKOLtWD8i9K9Ygt02NWsg797Nxequu/MRvPfV/ONI7j0Nhh+6pxzebcdl4Wub3DvyzB5pJ6ZQwax5ZoHPLmbo3Ox/09BZB7txawB0VeU79w7USzlILDXYeUqJsCQ6IlAXMbxzw8i91kCgxDbIEhCZzGICBdjUP1NM6YXUpgmGQLDGn8duPY8UltKCa6I7YHBIYGSytC06vgn6xDQEqFkvZq575JOmTXKbunFCxScBig0jq2TVH6ozZxtlgl9YgBFL9ojmPXj1+yjrdBaK3M1xu1eVPHs+X+KTrM//kwGlx4ii7XYjcrftM4xE2ee3QzCYhg8EpAJCCCSUAwdqSGSEAEk4Bg7EgNkYAIJgHB2JEaIgERTAKCsSM1RAIimAQEY0dqiAREMAkIxo7UEAmIYBIQjB2pIRIQwSQgGDtSQyQggklAMHakhkhABJOAYOxIDZGACCYBwdiRGiIBEUwCgrEjNUQCIpgEBGPnf7EVZqxkxlziAAAAAElFTkSuQmCC;" parent="1" vertex="1">
                    <mxGeometry x="1327.5" y="-474.5" width="100" height="100" as="geometry"/>
                </mxCell>
                <mxCell id="h4DD63BsNahQlmRNBtQ3-12" value="" style="shape=image;verticalLabelPosition=bottom;labelBackgroundColor=#ffffff;verticalAlign=top;aspect=fixed;imageAspect=0;image=data:image/png,iVBORw0KGgoAAAANSUhEUgAAAEYAAABTCAYAAAAiNXGsAAAMkklEQVR4Ae2aC3BU1RnHg4ggtlUsFAWN1tGx1Rl1KlSrKGIdVCji2LRWR2qn1L6ddkQEHUdHbaUKIiAB0TxMeAjkgSZk8yAxr00Ir7wx5rV5kAebze4mu8m+d/+d7969m3Nv9mbv7maBmezO3LnnnHvuOef75XudcxOD6M8vgRi/rdFGXAJgPOI/g8sEjNYAxgxAlwzokgDDYcBcCTgHxX3Dr0kmHxvwEgDjXYypDOj6C3D2dqD2B0D1NKA6ZuyqmQ003gx0PA8M5QAe95gUEShdfDCkHe1PAzWzeAg1VwA1VwK1syUXtc3kgdVcDjQ/DJiKI4CEH/LighnYBdRezQtb6w+GFA5Tr7mMh9n7VkTgXDwwvW8D1STcTIlmMMKP0xrpM6+Wdb4EQNZdhAQufDCesQW5B82wZtXC/L88mN7OgvmDPK7u1o+IF9e/ZUxLyHdIAfhrk/Zh62digK6XxXMoq40tXtI/fDDeAW25DTC+kAj949uhf3IHDCs+4e5UN76QBEdtN99z5DhQexVQO2s8EFbYoMpX8qB1iRLxQq9OChjrwVPQP7EdhlU7YXh617iL4NjLW/lV9n8A0F84KMH9aJX0fXLaDbGAvSd0GsybYYNx1vfA8FQ8DKvjxwHhIK2OhzFuD1zden5azfNeM1IgrFT4QHUK7z0bGfFCL4YNxvxONgxkOn40hWtbtRNDa1PhsToBOIGmxQCF20BChvKctKbxFsDl/SOEziW8zNdjHIVxTRKvMXJgVuyA+Z2j/BId54D6+ZPsXySaR5HO+HUYSPhXw9IYl0YnryleUOR7LEkV/GyUkHHhOcicJRjtIXM6t+4ig+kchOGZ3RPDeXIH7CXN/EIH4vnsNhhBg+1bMx1o+9XFBeMZtcP4h2Tol2+DfsWO8VGJHPIzu0Gaxf0oEaM9ULDCBtO/ZgbQdA/gcYUFJyxTopmdrVpYM6phfl+FoT+lctpD5kO5DMEy/j4ZnhE7v8jmByPneAV4HJi7AI93zhDxhA1GNK/NAVfbAKw59RjZUoChl1JhesvrCB39QMPCMLcAEkcrwGDvBOa7n4W9+w4JjNXlQULzMFYU9OFfx3U4rDGjyWiHXXoSYHeCIhf3M6n5TV+wm0VWaCVlcr6tF8HHVOtsWKrqxRUpGsxO1WBWigZXpmow70AHFmf14M/qAXzePIzqQRvMTmYrYiqJPBjKj+rmAsP5IkUOpRKUxqj7LbjxUCcH5Nr9HWCvOfs0+P5eHtTMlHbM2deBOzO78fJxHdzEhw6WWpYB1dPFztffhtFfWyBtofyl8RZ46KQPgNvt5q4AUJi/nLinYjAakwO3pnXhe3s1IiAsHLY8Z3+HD1Rhr9ec6IiSBGCF9AfBXxv7jrRM5tN0HzzWdk66UZsDv0spxCPx2Shv7xNLLK6FD2ZNqRakCazwSspkZnFF5/nlUKRoWjS5kYmgtD3pOw/uGx7FkvhsxKz7HDGvJuCKjcn4T8EZMQ4FNUUaU6e3gTSAzEMJDLYPvXf1vg5Uaa38cnQJ/O46rAMqik501BADdP4R8Ni4sRt7B3Hn5nTEvPo5ZryezF3TNyZxkN7OPaUAx1gXRWDerzVwzpYVOJgyOeoXS7X8rG4L0P13oG6e94w3lBM8OrmbDvS86ZOkrL0PC9/dj5j1CT4oY3CSMW19ArIaOn39AxUUgYkr6vfrcJXAIYc890AHDrSZxGuxtQG9bwINN3kBzRjzPRP5GO6wfDYw8IlvvC/PtOGqN1MQ81riOCgCHHp210cZsDpol+/7he5jKKIszelV7HRZWOSobzjUiQKv87W73cjqO4cBm9esaH0OLaD9GPj2Lu8ZsCRqsY5WCMeGIz7JtpfUY8aGJEzbkCQLxQfn1QQcPdvle3eiQkCNoSNdyluURiMBDOU4P0nvwqkB3v5tbhdeqqnCnJzDuLtYhfeaG9A1ypwFu0eAwb2AsG2grwBsMkj1xpsAs9onz7+zqjh/Mn0j708EAHJ3csj/zPTu9H2j+C8EBEOvxX1zPihToqRvUVYPWob4/YrRYcdvT5bjR6p03Jx/BDfmZWKeKg0/LczG+sYzaBg2MqtzA0NHgbbV/NkwOVguHN8LWPldus3hxIv7izmnernXycrBYNvJ/zzxmYqZS76oCMymOuXOl6A8rOpFn4Xf3fZYRvF45Tc+KARGuGLzM7n22IKvsLamCurBAfFKR6qAjueAtlW8yQHQjlixfI+Kg8IKraRMfuaBHV/DzWWc4qmkNUVg6vR2LkxT6BVMxd99ZooGvy7sh8m7aWoyDeOBsnzMz+U1RQAivd+Uf4Trc0NeJn5zshzZ/T1wMJ9lAH4T1qI14u6tmaJwrASI0CdmfSIe250jZeC3rggMvUnhVi7BI2D0bG2ZFnYX7+irDDrc/U0Ors/N8GmIFIi/+vW56ZinSsfyiiLs69bA7OSjiM5kwe2bDnFJmyBosHfyMWsPlrIgQo9KwiidMluCa/ZpMCtVg3Unx/4TIf98L247loWFQUJhQdG7c3PSsPJ4MSia0W91Yn7I2kIQCcz+097POLxg4YOhccr7LYg91OVzxNfs4/dDWxuG+GkApPV0gUyDzIIVNNTyD1VpSOnWcONXdWox8/VkBONwBa2K2ZCEH79/EEYLHyV9C5YpKDYl4f3aQRuW5PRixhftIDDJzcPCI3za0cIBoagTKgjpewvzMrCkrACjLt6k1hwoCUlrSFt2qc/61hqoEDQYGtDm8iCxeRjZ3WN5yH+bGzE/N4PTFqlw4dbnq9Kxp6OFk6Wx34DZbyQj5pXPuPT/so1JATWI+j6bWhSIheh5SGDYEZxuN9Y1nOEcJplQuBD8vU9mubgkF4N23gyKWnrwhuoUHtl1FAve3Y/LXkvk/AflKZQBC6Y2bQPfHvdFIUbtDnbZActhg3nr21pcm5MWESAsJEoOs/vOjRNIa7KguLUXmwprsCoxH7dsOoTLvTvq2PcOYHtpA0SRXzzC5Dhf8ZiUXXiwTH0M5AdYISJRXpifieohA7eE1sEyaAwVGLF7P8swCxuy2HGiU4u06jacH/YekDHPlRbD0hhyiItL87gUPxIwhDHJmd9brILeTlsMD1Jq1uDD8p9j94mV+LL+ryjWbEervhRD1l461FQq+4T9wgJjdjqwqDQ34mAW5GZw+QxJMmIf5IB8XPEw6PpI/SA2l9+HLepfYGfVcqRUr4G6a8+EQjMPI2NKNrcb95flT1rOImiI9E7+ZX0DfzzZM1yHrRUPYVvlI+OujyuWYov6Aeysehxm21jCyYCQFiMDhmaJO1EadNovFTxQnXbiSV38QXdt/1fYrL5/HBQBFMHZXrkMAyOiDFcKRKhHDsw7TfV+d86BhA3m+YK8TFTpeUdb2L55YjCVSzmTMljGRzCBhpJ7WD6GJijRnceCCEYlOpq4oygb/Vb+1O9g/d/wUcWDshqztWIJkqufg9OtLPWXgxQ2GIvLiYfKCyIWsmkz+WhFEffRzuYcxp5TqzmnK5iO9E7RqrzzUzl5FbeHDYZm2tPRirmqyCR51+Wm4x91JzmBzpu/w7bKZdhWudSvxlBkSjrzLCxO9kRQMQtRx0kBY3G58Et1YUSc8LU5hxGv4Y80z2pzsansnnEaQ2GbNCXhdBy05u84AT0TpLsMgcg5X2GS43odbi74alJzGspfaI/UZ7Vw04w69Chq34LdJ1dyfmaz+j6QT9l1YiUK2j6A2U8mLKwv2PukaIww6YHuDpAwsZNw7EDbjFuPfQ0CTj8P8y/xlOR1GU+iWVeE7qHTIiAKNUVYcuQ1Rphpb7cGsflHOEDBhGS273WqdNxRdJSLeMK4F/o+qRojLL5sUMsdgpNDDubQirSEznufqipBs1ny5VIY/ALdIwKG1j7ksOPDlrNYVJzLJYB02LQwL5MzMzq3oYtMjsIxPaNDLgr7yV3tcHjPeC8QA7/TRAQMa7gGuw2Hejq5r5CPlh/jTOS2wizcWpiFO4uO4jF1IV5pOI0CbZ/v+NLvSiPTyC5VNENEwIhmYCr0mXbAbsM5yyi6LCPQ2W2gE8BL8XdBwVyKAOTWFAUjQyYKJgpGhoBMc1RjomD8Erg0wrXfpV2ijVFTkvnDTHUwUVOSUQzZ5qmuMVEwsgRkHkx1jYn6GBnFkG2e6hoTBSNLQObBVNeYqI+RUQzZ5qmuMVEwMgSipiQDRrZ5qptS0BojvCDcBbLSOrULbcI9mDa2rzCHXBv7XK5MaxDWwZal/YVnbF9Rn6muMSIYbCUKhqXBlKc6GMGUGCR8caqDGQdEaIiCEUhI7v8Hnf95DHWoECYAAAAASUVORK5CYII=;" parent="1" vertex="1">
                    <mxGeometry x="1342.5" y="-344.5" width="70" height="83" as="geometry"/>
                </mxCell>
                <mxCell id="h4DD63BsNahQlmRNBtQ3-13" value="Security Test&amp;nbsp;&lt;b style=&quot;font-size: 10px;&quot;&gt;Definition&lt;/b&gt;" style="shape=step;perimeter=stepPerimeter;whiteSpace=wrap;html=1;fixedSize=1;strokeColor=#E6E6E6;fontColor=#999999;dashed=1;dashPattern=1 2;strokeWidth=2;fontSize=10;" parent="1" vertex="1">
                    <mxGeometry x="120" y="-620" width="190" height="30" as="geometry"/>
                </mxCell>
                <mxCell id="h4DD63BsNahQlmRNBtQ3-15" value="" style="group" parent="1" vertex="1" connectable="0">
                    <mxGeometry x="669.25" y="-449" width="220" height="89" as="geometry"/>
                </mxCell>
                <mxCell id="SLsqdyoGx3VEHhg5HpJQ-45" value="" style="group;strokeColor=#666666;" parent="h4DD63BsNahQlmRNBtQ3-15" vertex="1" connectable="0">
                    <mxGeometry width="220" height="84" as="geometry"/>
                </mxCell>
                <mxCell id="SLsqdyoGx3VEHhg5HpJQ-46" value="" style="rounded=0;whiteSpace=wrap;html=1;strokeWidth=4;strokeColor=#666666;" parent="SLsqdyoGx3VEHhg5HpJQ-45" vertex="1">
                    <mxGeometry width="220" height="84" as="geometry"/>
                </mxCell>
                <mxCell id="SLsqdyoGx3VEHhg5HpJQ-47" value="&lt;font&gt;&lt;span style=&quot;font-size: 16px&quot;&gt;Parser Container&lt;br&gt;&lt;/span&gt;&lt;span style=&quot;font-size: 18px&quot;&gt;&lt;b&gt;Parse Results&lt;/b&gt;&lt;/span&gt;&lt;br&gt;&lt;/font&gt;" style="text;html=1;strokeColor=none;fillColor=none;align=left;verticalAlign=middle;whiteSpace=wrap;rounded=0;" parent="SLsqdyoGx3VEHhg5HpJQ-45" vertex="1">
                    <mxGeometry x="65.5" y="17" width="139" height="50" as="geometry"/>
                </mxCell>
                <mxCell id="SLsqdyoGx3VEHhg5HpJQ-90" value="" style="shape=image;verticalLabelPosition=bottom;labelBackgroundColor=#ffffff;verticalAlign=top;aspect=fixed;imageAspect=0;image=data:image/svg+xml,PHN2ZyBpZD0iZW1vamkiIHhtbG5zPSJodHRwOi8vd3d3LnczLm9yZy8yMDAwL3N2ZyIgdmlld0JveD0iMCAwIDcyIDcyIj4mI3hhOyAgPGcgaWQ9ImNvbG9yIj4mI3hhOyAgICA8cGF0aCBkPSJNMzkuNzc5Miw1Ny44ODE5SDUyLjc3VjQ0Ljg1MWM1LjI5NzYsMCwxMS42MzE0LDEuNCwxMS42MzE0LTYuMTkzNCwwLTYuNzYxMy02LjMzMzgtNS44NTM1LTExLjYzMTQtNS44NTM1VjE5LjUxMzNIMzkuNzc5MmMxLjgyMzktNS44MTU3LDEuODIzOS0xMS42MzE0LTQuOTc3NC0xMS42MzE0cy02LjczLDYuMzMzOC02LjczLDExLjYzMTRIMTQuNDAxNlYzMy41MjM5YzQuMjQzMy0xLjU3MTUsMTEuNjMxNC00LjQxODQsMTEuNjMxNCw1LjE3MzdzLTguNDgsNi41ODE0LTExLjYzMTQsNS4xNzM3VjU3Ljg4MTlIMjYuMzcyOWMwLTUuMjk3NiwwLTEyLjM4Myw3LjIxMy0xMi4zMTEyQzQwLjM2ODYsNDUuNjM4MiwzOS43NzkyLDUyLjU4NDMsMzkuNzc5Miw1Ny44ODE5WiIgZmlsbD0iIzkyZDNmNSIvPiYjeGE7ICAgIDxwYXRoIGQ9Ik0zOS4wNTQyLDUxLjA5OTJjMS43MzU5LDEuNzM1OSwxLjExLDQuMTMzOSwxLjExLDYuNzgyN0g1Mi43N1Y0My44NzEzYzUuODE1NywxLjAzNTcsMTAuOTk2OCwzLjYwNDUsMTAuOTk2OC01LjIxMzcsMC01LjI5NzYtNC45NzQzLTYuMTkzNC0xMC4yNzE5LTYuMTkzNFYxOS44MTU0SDQ5LjM3ODgiIGZpbGw9IiM2MWIyZTQiLz4mI3hhOyAgPC9nPiYjeGE7ICA8ZyBpZD0ibGluZSI+JiN4YTsgICAgPHBvbHlsaW5lIHBvaW50cz0iMTQuNDAyIDMzLjUyNCAxNC40MDIgMTkuNTEzIDI5LjYyOCAxOS41MTMiIGZpbGw9Im5vbmUiIHN0cm9rZT0iIzAwMCIgc3Ryb2tlLWxpbmVjYXA9InJvdW5kIiBzdHJva2UtbGluZWpvaW49InJvdW5kIiBzdHJva2Utd2lkdGg9IjIiLz4mI3hhOyAgICA8cG9seWxpbmUgcG9pbnRzPSIyOCA1Ny44ODIgMTQuNDAyIDU3Ljg4MiAxNC40MDIgNDMuODcxIiBmaWxsPSJub25lIiBzdHJva2U9IiMwMDAiIHN0cm9rZS1saW5lY2FwPSJyb3VuZCIgc3Ryb2tlLWxpbmVqb2luPSJyb3VuZCIgc3Ryb2tlLXdpZHRoPSIyIi8+JiN4YTsgICAgPHBvbHlsaW5lIHBvaW50cz0iNTIuNzcgNDMuODcxIDUyLjc3IDU3Ljg4MiAzOC4zNDggNTcuODgyIiBmaWxsPSJub25lIiBzdHJva2U9IiMwMDAiIHN0cm9rZS1saW5lY2FwPSJyb3VuZCIgc3Ryb2tlLWxpbmVqb2luPSJyb3VuZCIgc3Ryb2tlLXdpZHRoPSIyIi8+JiN4YTsgICAgPHBvbHlsaW5lIHBvaW50cz0iMzkuOTc2IDE5LjUxMyA1Mi43NyAxOS41MTMgNTIuNzcgMzMuNTI0IiBmaWxsPSJub25lIiBzdHJva2U9IiMwMDAiIHN0cm9rZS1saW5lY2FwPSJyb3VuZCIgc3Ryb2tlLWxpbmVqb2luPSJyb3VuZCIgc3Ryb2tlLXdpZHRoPSIyIi8+JiN4YTsgICAgPGc+JiN4YTsgICAgICA8cGF0aCBkPSJNMTQuNDAxNiwzMy41MjM5YzIuNjgxMy0yLjM0MTMsMTEuNjMxNC0zLjI4NzMsMTEuNjMxNCw1LjE3MzciIGZpbGw9Im5vbmUiIHN0cm9rZT0iIzAwMCIgc3Ryb2tlLWxpbmVjYXA9InJvdW5kIiBzdHJva2UtbGluZWpvaW49InJvdW5kIiBzdHJva2Utd2lkdGg9IjIiLz4mI3hhOyAgICAgIDxwYXRoIGQ9Ik0xNC40MDE2LDQzLjg3MTNjMi42ODEzLDIuMzQxMywxMS42MzE0LDMuMjg3MywxMS42MzE0LTUuMTczNyIgZmlsbD0ibm9uZSIgc3Ryb2tlPSIjMDAwIiBzdHJva2UtbGluZWNhcD0icm91bmQiIHN0cm9rZS1saW5lam9pbj0icm91bmQiIHN0cm9rZS13aWR0aD0iMiIvPiYjeGE7ICAgIDwvZz4mI3hhOyAgICA8Zz4mI3hhOyAgICAgIDxwYXRoIGQ9Ik0yOC4wMDA1LDU3Ljg4MTljLTIuMzQxNC0yLjY4MTQtMy4yODczLTExLjYzMTQsNS4xNzM3LTExLjYzMTQiIGZpbGw9Im5vbmUiIHN0cm9rZT0iIzAwMCIgc3Ryb2tlLWxpbmVjYXA9InJvdW5kIiBzdHJva2UtbGluZWpvaW49InJvdW5kIiBzdHJva2Utd2lkdGg9IjIiLz4mI3hhOyAgICAgIDxwYXRoIGQ9Ik0zOC4zNDc5LDU3Ljg4MTljMi4zNDEzLTIuNjgxNCwzLjI4NzMtMTEuNjMxNC01LjE3MzctMTEuNjMxNCIgZmlsbD0ibm9uZSIgc3Ryb2tlPSIjMDAwIiBzdHJva2UtbGluZWNhcD0icm91bmQiIHN0cm9rZS1saW5lam9pbj0icm91bmQiIHN0cm9rZS13aWR0aD0iMiIvPiYjeGE7ICAgIDwvZz4mI3hhOyAgICA8Zz4mI3hhOyAgICAgIDxwYXRoIGQ9Ik0yOS42MjgxLDE5LjUxMzNjLTIuMzQxNC0yLjY4MTQtMy4yODczLTExLjYzMTQsNS4xNzM3LTExLjYzMTQiIGZpbGw9Im5vbmUiIHN0cm9rZT0iIzAwMCIgc3Ryb2tlLWxpbmVjYXA9InJvdW5kIiBzdHJva2UtbGluZWpvaW49InJvdW5kIiBzdHJva2Utd2lkdGg9IjIiLz4mI3hhOyAgICAgIDxwYXRoIGQ9Ik0zOS45NzU1LDE5LjUxMzNjMi4zNDEzLTIuNjgxNCwzLjI4NzMtMTEuNjMxNC01LjE3MzctMTEuNjMxNCIgZmlsbD0ibm9uZSIgc3Ryb2tlPSIjMDAwIiBzdHJva2UtbGluZWNhcD0icm91bmQiIHN0cm9rZS1saW5lam9pbj0icm91bmQiIHN0cm9rZS13aWR0aD0iMiIvPiYjeGE7ICAgIDwvZz4mI3hhOyAgICA8Zz4mI3hhOyAgICAgIDxwYXRoIGQ9Ik01Mi43Nyw0My44NzEzYzIuNjgxMywyLjM0MTMsMTEuNjMxNCwzLjI4NzMsMTEuNjMxNC01LjE3MzciIGZpbGw9Im5vbmUiIHN0cm9rZT0iIzAwMCIgc3Ryb2tlLWxpbmVjYXA9InJvdW5kIiBzdHJva2UtbGluZWpvaW49InJvdW5kIiBzdHJva2Utd2lkdGg9IjIiLz4mI3hhOyAgICAgIDxwYXRoIGQ9Ik01Mi43NywzMy41MjM5YzIuNjgxMy0yLjM0MTMsMTEuNjMxNC0zLjI4NzMsMTEuNjMxNCw1LjE3MzciIGZpbGw9Im5vbmUiIHN0cm9rZT0iIzAwMCIgc3Ryb2tlLWxpbmVjYXA9InJvdW5kIiBzdHJva2UtbGluZWpvaW49InJvdW5kIiBzdHJva2Utd2lkdGg9IjIiLz4mI3hhOyAgICA8L2c+JiN4YTsgIDwvZz4mI3hhOzwvc3ZnPg==;" parent="h4DD63BsNahQlmRNBtQ3-15" vertex="1">
                    <mxGeometry x="12" y="17.75" width="48.5" height="48.5" as="geometry"/>
                </mxCell>
                <mxCell id="h4DD63BsNahQlmRNBtQ3-19" value="" style="group" parent="1" vertex="1" connectable="0">
                    <mxGeometry x="669" y="-143" width="220" height="84" as="geometry"/>
                </mxCell>
                <mxCell id="SLsqdyoGx3VEHhg5HpJQ-25" value="" style="group" parent="h4DD63BsNahQlmRNBtQ3-19" vertex="1" connectable="0">
                    <mxGeometry width="220" height="84" as="geometry"/>
                </mxCell>
                <mxCell id="WwHgvZpowAIh_IYd4Kne-27" value="" style="rounded=0;whiteSpace=wrap;html=1;strokeWidth=4;strokeColor=#666666;fillColor=#f5f5f5;fontColor=#333333;" parent="SLsqdyoGx3VEHhg5HpJQ-25" vertex="1">
                    <mxGeometry width="220" height="84" as="geometry"/>
                </mxCell>
                <mxCell id="WwHgvZpowAIh_IYd4Kne-28" value="" style="shape=image;verticalLabelPosition=bottom;labelBackgroundColor=#ffffff;verticalAlign=top;aspect=fixed;imageAspect=0;image=data:image/svg+xml,PHN2ZyB4bWxucz0iaHR0cDovL3d3dy53My5vcmcvMjAwMC9zdmciIHhtbG5zOnhsaW5rPSJodHRwOi8vd3d3LnczLm9yZy8xOTk5L3hsaW5rIiB3aWR0aD0iMjU2cHgiIGhlaWdodD0iMjU2cHgiIHZpZXdCb3g9IjAgMCAyNTYgMjU2IiB2ZXJzaW9uPSIxLjEiPiYjeGE7ICAgIDwhLS0gR2VuZXJhdG9yOiBTa2V0Y2ggNTcuMSAoODMwODgpIC0gaHR0cHM6Ly9za2V0Y2guY29tIC0tPiYjeGE7ICAgIDx0aXRsZT5GYXZpY29uQDF4PC90aXRsZT4mI3hhOyAgICA8ZGVzYz5DcmVhdGVkIHdpdGggU2tldGNoLjwvZGVzYz4mI3hhOyAgICA8ZyBpZD0iRmF2aWNvbiIgc3Ryb2tlPSJub25lIiBzdHJva2Utd2lkdGg9IjEiIGZpbGw9Im5vbmUiIGZpbGwtcnVsZT0iZXZlbm9kZCI+JiN4YTsgICAgICAgIDxwYXRoIGQ9Ik00MCw4IEwyMTcsOCBDMjM0LjY3MzExMiw4IDI0OSwyMi4zMjY4ODggMjQ5LDQwIEwyNDksMjE3IEMyNDksMjM0LjY3MzExMiAyMzQuNjczMTEyLDI0OSAyMTcsMjQ5IEw0MCwyNDkgQzIyLjMyNjg4OCwyNDkgOCwyMzQuNjczMTEyIDgsMjE3IEw4LDQwIEM4LDIyLjMyNjg4OCAyMi4zMjY4ODgsOCA0MCw4IFoiIGlkPSJSZWN0YW5nbGUiIGZpbGw9IiMwMDlFREEiLz4mI3hhOyAgICAgICAgPHBhdGggZD0iTTE3MC4xMzcyNTUsMTAyLjkzNzI1NSBMMTcwLjEzNzI1NSw4Ni4zMTk2MDc4IEMxNzAuMTM3MjU1LDYyLjgzMzMzMzMgMTUwLjYzOTIxNiw0NCAxMjcuMTUyOTQxLDQ0IEMxMDMuNjY2NjY3LDQ0IDg0LjE2ODYyNzUsNjMuMDU0OTAyIDg0LjE2ODYyNzUsODYuMzE5NjA3OCBMODQuMTY4NjI3NSwxMDYuMjYwNzg0IEM3Mi44Njg2Mjc1LDExNy41NjA3ODQgNjYsMTMzLjI5MjE1NyA2NiwxNTAuNTc0NTEgQzY2LDE4NS4zNjA3ODQgOTQuMTM5MjE1NywyMTMuNSAxMjguOTI1NDksMjEzLjUgQzE2My43MTE3NjUsMjEzLjUgMTkxLjg1MDk4LDE4NS4zNjA3ODQgMTkxLjg1MDk4LDE1MC41NzQ1MSBDMTkyLjA3MjU0OSwxMzEuNTE5NjA4IDE4My40MzEzNzMsMTE0LjQ1ODgyNCAxNzAuMTM3MjU1LDEwMi45MzcyNTUgWiBNMTQwLjg5MDE5NiwxNzUuMzkwMTk2IEwxMTUuNDA5ODA0LDE3NS4zOTAxOTYgTDEyMi4yNzg0MzEsMTUyLjEyNTQ5IEMxMTcuMTgyMzUzLDE0OS45MDk4MDQgMTEzLjYzNzI1NSwxNDQuODEzNzI1IDExMy42MzcyNTUsMTM4LjgzMTM3MyBDMTEzLjYzNzI1NSwxMzAuODU0OTAyIDEyMC4yODQzMTQsMTI0LjIwNzg0MyAxMjguMjYwNzg0LDEyNC4yMDc4NDMgQzEzNi4yMzcyNTUsMTI0LjIwNzg0MyAxNDIuODg0MzE0LDEzMC44NTQ5MDIgMTQyLjg4NDMxNCwxMzguODMxMzczIEMxNDIuODg0MzE0LDE0NC44MTM3MjUgMTM5LjMzOTIxNiwxNDkuOTA5ODA0IDEzNC4yNDMxMzcsMTUyLjEyNTQ5IEwxNDAuODkwMTk2LDE3NS4zOTAxOTYgWiBNMTU1LjUxMzcyNSw5Ni4yOTAxOTYxIEMxNDkuOTc0NTEsOTEuNDE1Njg2MyAxNDAuODkwMTk2LDg3LjY0OTAxOTYgMTI5LjE0NzA1OSw4Ny42NDkwMTk2IEMxMTcuNDAzOTIyLDg3LjY0OTAxOTYgMTA2LjU0NzA1OSw4OS44NjQ3MDU5IDk3LjI0MTE3NjUsOTUuNDAzOTIxNiBMOTcuMjQxMTc2NSw5My4xODgyMzUzIEM5Ny4yNDExNzY1LDcxLjAzMTM3MjUgMTA2LjMyNTQ5LDU4LjYyMzUyOTQgMTI4LjI2MDc4NCw1OC42MjM1Mjk0IEMxNTAuMTk2MDc4LDU4LjYyMzUyOTQgMTU1LjczNTI5NCw3Mi44MDM5MjE2IDE1NS43MzUyOTQsOTUuMTgyMzUyOSBMMTU1LjczNTI5NCw5Ni4yOTAxOTYxIEwxNTUuNTEzNzI1LDk2LjI5MDE5NjEgWiIgaWQ9IlNoYXBlIiBmaWxsPSIjRkZGRkZGIiBmaWxsLXJ1bGU9Im5vbnplcm8iLz4mI3hhOyAgICA8L2c+JiN4YTs8L3N2Zz4=;align=left;" parent="SLsqdyoGx3VEHhg5HpJQ-25" vertex="1">
                    <mxGeometry x="12.5" y="18" width="49" height="49" as="geometry"/>
                </mxCell>
                <mxCell id="WwHgvZpowAIh_IYd4Kne-29" value="secureCodeBox&lt;font&gt;&lt;span style=&quot;font-size: 16px&quot;&gt;&lt;br&gt;&lt;/span&gt;&lt;span style=&quot;font-size: 18px&quot;&gt;&lt;b&gt;Operator&lt;/b&gt;&lt;/span&gt;&lt;br&gt;&lt;/font&gt;" style="text;html=1;strokeColor=none;fillColor=none;align=left;verticalAlign=middle;whiteSpace=wrap;rounded=0;" parent="SLsqdyoGx3VEHhg5HpJQ-25" vertex="1">
                    <mxGeometry x="70" y="17.5" width="144" height="50" as="geometry"/>
                </mxCell>
                <mxCell id="h4DD63BsNahQlmRNBtQ3-21" value="" style="group" parent="1" vertex="1" connectable="0">
                    <mxGeometry x="765" y="-210" width="28.5" height="30" as="geometry"/>
                </mxCell>
                <mxCell id="SLsqdyoGx3VEHhg5HpJQ-82" value="" style="ellipse;whiteSpace=wrap;html=1;strokeColor=none;fontSize=14;fontColor=#666666;fillColor=#009EDA;" parent="h4DD63BsNahQlmRNBtQ3-21" vertex="1">
                    <mxGeometry width="28.5" height="30" as="geometry"/>
                </mxCell>
                <mxCell id="SLsqdyoGx3VEHhg5HpJQ-83" value="&lt;font style=&quot;font-size: 21px&quot; color=&quot;#FFFFFF&quot;&gt;&lt;b style=&quot;font-size: 21px&quot;&gt;3&lt;/b&gt;&lt;/font&gt;" style="text;html=1;strokeColor=none;fillColor=none;align=center;verticalAlign=middle;rounded=0;fontSize=21;fontColor=#666666;whiteSpace=wrap;" parent="h4DD63BsNahQlmRNBtQ3-21" vertex="1">
                    <mxGeometry x="5" y="7" width="18.5" height="18" as="geometry"/>
                </mxCell>
                <mxCell id="h4DD63BsNahQlmRNBtQ3-22" value="" style="group" parent="1" vertex="1" connectable="0">
                    <mxGeometry x="455" y="-206" width="28.5" height="30" as="geometry"/>
                </mxCell>
                <mxCell id="SLsqdyoGx3VEHhg5HpJQ-80" value="" style="ellipse;whiteSpace=wrap;html=1;strokeColor=none;fontSize=14;fontColor=#666666;fillColor=#009EDA;" parent="h4DD63BsNahQlmRNBtQ3-22" vertex="1">
                    <mxGeometry width="28.5" height="30" as="geometry"/>
                </mxCell>
                <mxCell id="SLsqdyoGx3VEHhg5HpJQ-81" value="&lt;font style=&quot;font-size: 21px&quot; color=&quot;#FFFFFF&quot;&gt;&lt;b style=&quot;font-size: 21px&quot;&gt;2&lt;/b&gt;&lt;/font&gt;" style="text;html=1;strokeColor=none;fillColor=none;align=center;verticalAlign=middle;rounded=0;fontSize=21;fontColor=#666666;whiteSpace=wrap;" parent="h4DD63BsNahQlmRNBtQ3-22" vertex="1">
                    <mxGeometry x="5" y="7" width="18.5" height="18" as="geometry"/>
                </mxCell>
                <mxCell id="h4DD63BsNahQlmRNBtQ3-23" value="" style="shape=image;verticalLabelPosition=bottom;labelBackgroundColor=#ffffff;verticalAlign=top;aspect=fixed;imageAspect=0;image=data:image/png,iVBORw0KGgoAAAANSUhEUgAAAggAAAB8CAYAAAAM0EidAAAgAElEQVR4Xu1dBXQcR7a9Yma2ZGZmZqbYcZw4sHGYNrjZMDNnk5/dOOBsNonjMDpmiJkhZplZksXSiGbE+ueWrUSWp2mmB2T1O8dHm53q6qrX1V23HtznUVNTUwNDDA0YGjA0YGjgktdATXUN+A/n/3p4egCeHvDw8oCHh8clP39jgto04GEABG0KM1obGjA0YGigIWiguqIKpVlmlOWYUVNZLYZsyTKjNKsYpZlmVBaXwyfMD/6xQQhMDIFvmJ9o4+nnJf4/v6gAeHh5NoSpGmN0kAYMgOAgxRrdGhowNGBowBUaKDicC9O+LFSYypCx9hRyNqah0lyheii+kf6IH9kC0f0T4R3kI/4GJoWovt5oeOlowAAIl86zNGZiaMDQQGPVQE0NUhcdQ8GBHORuP4us9Sn6aMITSJrcFmGdohHVtwliBycBhitCH902gF4MgNAAHpIxREMDhgYMDUhpIG3pcZxdchzZm1JhTil0iKLoaghpG4HoAYlocXUnRPaKd8h9jE7dSwMGQHCv52GMxtCAoQFDA6o0YE4twuEPdwhwUJpZci740MHi6eOJgMQQNJvREe3u7AWfEF8H39Ho3pUaMACCK7Vv3NvQgKEBQwM2aMCUnI01U39AVVnVnwGINnRj8yUECp5+3piy9w54BfrY3I9xoXtrwAAI7v18jNEZGjA0YGjgTw1UFJXh1LfJ2PPcOrfRSv+PJyJhXCt4G0DBbZ6JXgMxAIJemjT6MTRgaMDQgAM1UHg0D7ufWYOstWcceBftXXv5e6PZlR3Q8aH+Il3SkEtHAwZAuHSepTETQwNWNVBeVYOyKsf7p2tv7u3hAT9vD/LvGKKTBvJ2Z2LXE6uQvycLcENuO7oc4se2RNenhiCkTYROsza6cbUG7AIIXKdF5dVIK6xEenElskqq4OflgQAfDyQEeyMx1Bvh/p7wdtGXIs9ShcziKpw2VYhxUkL8PBEX5I34YC/EBnnBy0Vjk3rw/I6Xnyc18fTwgK+3Bxzxna2qrgE3Dikhq5qvl74feUvFuWcgJZ6eHmL9aBHFPs9vVkp9VlTVILukCimFlSgoq0LrCB+0jtQnAKukvBqZJVXIOP+OFJdVi3UYE+SNJiFch94I9NE2b6X51P19zSkz1p6yaLnErrbto3wwrk0QIgO87OrHuPicBvJ2ZmDPC+uQtyPdKYGItuqdbIwJE1qj+3NDEdQ8zNZujOvcSAM2AYQ/zpbi631FIEtzaWUN8i3VMJVWobCsGj5eHuIfgUGEv5f48HETbhLshWu6hKBpmOMCWrhZLD1Wgg1nSsGtr7i8Wowpp6QKpec3XX9vT4T5n/sX6ucJbsL8SF/VKQTNw30cshlLPe+K6hrsTi/DvEPFsFSe26yra2pwfqhiLARXtWnHwT4eGN4iEAOb+iPQxz6Gs6O55fj3VpPkUgz388TdfcMFyNNL7lucJdtV+yhf3N8/XNPtlPpsF+mDBwZYP9HwVL36pBnLj5tRWV2DorJqEFQyGPyuPmG4rF2wprHUNmZfO86WYukxs1h/XHv8W1B67i/fGX9vD7H++I4QLPDEHeTjgTGt+HwDBDjTSz7YZsKH26WftV73qe1nZMsAPD440qHvut5jdtf+io7lY/ez59wKtmYp+McFIXFya8QMbKo4TRIqZa49jYzfT6GisEyxff0Gnr5ewt3Q7bmh8I3w13y9cYF7aUA1QOBH88s9BVh61IwcSxXSiyo1zYQfwPggLwT4eKJHvB8eHRwpPpJ6CIHBYytykFJQgRxzFfJL5U+q9e/JscUFeSHI1xOPDopE30R/h5pHT5rKMXtHAQ7nVIhNKaukEmoswGQ9jfT3EuCGoOvRQRFiM7FFtqeV4uZ5GZKX0roye0oc2kXpc4rmjTp/cEp2qAOT/PHp5dryq5X67Jfoj8+nXdwngQEBEgFBrrnqgnFxHTw5JBJXdNQGEGiR+TG5CD8dKEZhWRVyzNUCeKgVPt+oAC+E+3thavsg3NA9VBfrmwEQ1D4B92pXUVyOw7O248iHO1FdfuEaVRppcOtwdHigLyK6xArqZL/oQPiGK2/YNVU1KM+3oCzXIrIjDs3ajpRfjyjd7oLfvQK80eut0Wg+o6Om64zG7qcBVQDhSG453t6Yj21ppZo+eFLTpVWfJ6SZ3UJxb79wu05L/1ichQ0pFuFj1cM1x3GF+XlgzS3NdH9aVdXA9T+ng/qk9UDD3mF1LBwrN5XnhkVhagdtm1ljBQi00Iz4PAWF5TWgW8Ga2AIQdqSV4q6FmcL6owUUSC0yWo68PYH/TY1Hj4RzHPm2igEQbNWca68z7c/CygnfaUpj9A71w8QtNwuKZE8fL4hiTHYI6znUVNZg5+O/4/QPh1T3xHtffuxuePnpZ4FUfXOjoW4akAUI3HA3pVjwjyVZf5rAdbvz+Y6iA7wwa3Isusap/wjypHYyvwJP/J4jNltHCN0k30yPR9toX/jY+ZLRtLzutFmM11HSK8EPr4yKRkKItyrA1dgAAqFAdkklbpmXiVMmeV56tQCB74eprAq3zcvA4Vz1XPda1gCX3uCmAXhrXIxwSdgiBkCwRWuuvYan+PkdZ6sbhAfgFxGA/rMnInao/geb2kFkb07F5tsWojy/FMKHq0KmnbjXSH9UoSd3bSILEA5ml+OGX9IdBg5qlfKfibEY2TJQlVmfJvn5h4vx+a4CpBdrM7tpfQhRgV54YkgkxrYKFHEVtgg3oxfW5IJxG/ZaDJTuz8DQG7uHYlrHYMXNpLEBhJOmCjyzMge7M5T9qmoAAp/lsbxyvLgmV1WfSs9O6ffBzQLwwogoNAnRfiIzAIKSdt3v9023LBAMiUrCwMCQdlHo+59xiOgaq9Tc7t/Tfz+JPc+uRfEpkyqQ0P6BPiKzwZCGqQFJgECAeOu8DOFWcKTQcvD66Gi0jFAOXmTQ4Tf7ivDlnkLkWxwLDmrnzHHRHz2oWYDmAEZaN15dlycC1pwldDvc1D0Ud/QJQ5BMIGNjAggvjozCGxvyVEfyKwEEgoOD2WX416ZzbjdnycQ2QXhkcATig7WBBAMgOOsJ6XOfjNWnsOG6eYqd0X0Q0TMO3V8chqg+TRTb69UgbdExkVWhpu4Dy0YPmjMFkT21xRbpNVajH/s0IAkQeEp/UsEkzs2oTxM/9E8KuOD0b65gdHgJTuRXyqfSAXh6WBRmdA5WDMbiR3nRkWK8uSFPdRBimJ8nJrQNQlK9SPzUgkqsOmlGdr3gNClVdon1w1NDI9E9Xr0b5Hh+BV5dl4utqc7bQGrHz+ey4G+JF8277vwaC0DomeCH8a2D8M6mfBH3oUaUAALTZmkVUgsOGCfSLdYPo1oFXnB7xqSsOlGC5OxyVUGqDOp9ZFAEruwUosqNVHszAyCoeepu0qYGWDnxW+TvzlQcUGiHKPR6c5Qox+xsSZl3GLueWo3yPPnvm4e3J5pOa4d+syY4e4jG/XTQgCRAuOzrNNAsKyVMf+Om2TzMBy0iLkwPZIwAT8/MKOBHcOGRYqw5ZbkILAxpFoDHh0SilQrrAaPCr/kxHWcK5LMn6AigiX1oswAE+3qic6yfSLmsK7Q+HMmtQGF5Nf5Is2Du3iJFVV7fLQT39I24qC9rF+aXVomgzvmHitW66gTAoitjskRqHbNGPtlZcFHEvbX739k7DHf0DpfNrW8sAIF+e7qKGLOiJAHe5PDwRIivB+7vH4GJbYMuuqSgrBr3L8rEH+nKroroQC+RLskTf2KIN9pHX5gRQrxyOKdccIhwXX+ywwT2Lyctwn0wa1KsKoubARCUnrj7/X7qu3M0ykophgHxwej/ySRE93Oe5aCutpjtsOnWBUhfdkJRicGtI9DrjVGIHaqcZqnYmdHAqRqwChDIbzDksxSYZNIFl85MQtMwdabOXEuVyAHfmmrBK+vy/pzgHb3CRI66mhhAJcDCTumfvb1XGMa3CRKpgGqiBhjT8PsJM/5vcz44Tikh2PjosjgwGFBJ9meV46Zf00W+u5IwWv39ibGCbyAiwFOSXIagiyCBfAn//cOEZcfMVsHH1Z1DcF+/cLEpykljAQhyOqClZWr7YJFOSOE6ZKgJuTH4LPjM68vc3YV4Y+Nfa1iqf/Z5XZcQsSbVxK+UVdYgragSX+wuwM8HimWfHV1IDw6MUG1FMCwISm+h+/y+8YbfkP77KXm2RA+g9S3d0fPVkVD1kXPQ9CwZxVjc63+K/Ay0IrS9oye6PT/UQSMxunWUBqwCBKZs3bMoCyUSzHe39gzFw4MiNY+JJyZudN/tK8Sm1FK8NjoaPGUpycLDxXhcwd3RMtwHs6fEokmIz5/EQkr91v7OaHTGCdBPfShHOivinr7huK1XmCx/A83YfWafUZXqNrFNIP45MBJNQr01vefMzjttKsdtv2UK9spa6Z/ojyeHRqKtCu6Cxg4QJrcLwqujowUY0BJ/2vXDU7LBpgQZ0zuG4PkRUaqAb/01ymf72PJsQfglJbzH5tubWQUw1q4xAILaL4Fr2+Xvz8KOB5aj4IB8thMDE6efeQD862pZddl3yNshzadSO76kqW3R47WR8I++0M3m6vEb95fXgFWA8ENykfD1S52A3x0fI07pzhACijFfpsqa1iMCvPDjjASR4meP/HKgCO9tNcnea+VNSbJBYr8cKMazq+VfcNIJ84RpLwcE5zrxq1RBD8wMhocGWjeLW9NJYwUIMUFeWH5DkurTd13d/XNpNpYfl964+b0e1zoI/xofY88yFNfeMT8Tm1Mtktwe/zc+RtAZqxEDIKjRkuvb7Hx8FU7M2as4kK7PDkH7e/sotnNWg5/i31O8lZefF7q/NBytbuqm2NZo4D4asAoQ/rezALO2mSQDDCe1DcLb4+z/CKpRw28Hi/HK+jyYZXj8eWom6ZIewrS1Xw8WSwa0/TijCTrFWmcXpCWiy4fybIF0KYxrHYhnh0cppiKqmQ/vee/iTMFOeWdv9TTFjREgdIj2BVNqbaGPprtt9JwUWbcRn8HXVyaoeWyKbRgIedUPZ8GAX2tCy9vaW9T5dA2AoKhulzcgUyKLMZ38Jll2LB4+nrgy5QGXj7fuABZ0ni2YF5Wk2wvD0O6uXi51iyiN0fj9Qg1YBQiLjxTjudW5svwHb42Nlgyo01PJN/6SgT/SpSNlGRMwd7o+H2WOmwV1GAzJAEtrcmWHYLw0Otrqb5tTLLh9vnz0cVywlwBXvROUaU/11GP9vhobQOgU44sXRkSjswS4U9L1x9tN+HCHSQTdSsmcafHok6jfc/3n0ixRJ0JKku9toTRs8bsBEFSpyaWNCg7mYPfTa5C9KVV2HAnjW2HwnKkuHWv9mx94ZwsOvL1FcUxtbuuBTo8OUEX5rNiZ0cApGrAKEM6YKnD1j+l/VkC0NhJGhzNC+9ouobrVVKh/H27W9y/OwoFs6biAOVfEo08T/T7KHAPpkKUIdUJ8PbHlDutsZSSV2ikT3U7fMTMMGCHvamlMAIGUxdT5zT1sr23A0zyJw6SkS6wvvp+hb0Q5q6SOmyu9Yfx6TQLaRSsHzRoAwdVvm/L9T32bjD3PK2cvjJh/tcsyF6RmUXAoFytGzFWcZEjbSEHoZHAiKKrKbRpYBQgMJhz62RnZLAbOgFHe3eP80DHGV3AZJIUqkx1pmfm3+wrF6Ueq+BIL28y7ronuZWWVgiKlTm6MlZArYkX3As3C9dMutehEr7aNCSAMax6AZ4ZF2eRaoL5ZW2HGD+dqaEjJt1cloJsGunC1z1GuGJXaYGEDIKjVtuvaHfl4J/a+sE5xABO33YqgZvq4UxVvprJByakCLBnwuWJrukdo/Ygfpc7ypdih0cDhGpDkQSCL4laVLHEkcGHtd6aNMT6BlgVuhvbK86tz8fNBlpW23tOtPcNEoJ9eVSFr78KUs16zT0sO3xpAOJFXjlt+y5R0TbAz5sH/co2+p0xbddyYAMKMziGCpthW2XjGIgJPM2WovXfc2RwBPvav+fpjHPdlqkh/tCbkVlh+Y5LitAyAoKgilzdQAxBC2kZg2E9XISBOXXCqsyZlTi3EygnfoixHOQ5h8NzLkTC2pbOGZtzHTg1IUy2rCLizdm9+Ij08IAoc8cPMAEJb5ZlVOSJgUEoc4V6ovZfcyW3FjUkXceKT/vn9rSbZYMpPLovD4Oa2lWe2VYdS1zUWgBAX7I1HB0eANMW2ygdbTfhiT4FkwCD7dRRAeGRZNpZIpDwye2fDrcqBigZAsPXJO+86NQCh3T290enhAaJSoztJualUxE+c+Vm52qMBENzpySmPRbZY05e7C/DOZpOqnH65WzUJ9sazI6JArgK15ErsTwkgKE/PMS0+uzwe/ZMujHt4eFkWVhw3y1Lmqg0qc8yoL+y1sQAEZhaQ4MrWSojU2oNLzz1bdxMDILjbE7FtPNUV1Tg8azuS39ws28Hgry9HwqiWbpcFUF1WhRNz92L3M2sVFWAABEUVuVUDWYBAHoTnVudgU0qpbsWRPpkSJ1j+mHKmJO4KEF4fE4Wp7UMuGP6tv2Uo1l0wAIJ8CujAJH98erm2oi5ylh4+oH6J/vh8mrY+669LAyAovakX/j6yZQAeHxyJpmHuddLVNgvnta60VODQe9tw6N/bZW869PvpiBvuuHLO9sw4c81prL/2V8UuDICgqCK3aiALEDhScsMvOVqC3w4VY2+mMv+80uzofmgf5Yt/DowAazHIiQEQlLRp+++NxYJgAAQjzdH2t8Q5V1aazwOE/zgeINRUVsOcVoSy/FJUFJaC9/YO9IFPqD+CkkLgZyPToQEQnLNWnH0XRYBQO6B9WWVYc9IseOLVVkGUmwyLPLFQ0/AW0iDBAAiOWw4GQFCvW8OCoF5XbGlYELTpq8pSiYP/3iasCHKi1oJQU12DwqN5SFt4FOX5pahbtKW6shoWARAsoiBUZUmFiGnwCfVDYGIo/GP+okImlXPM4CQ0Gd9acUIGQFBUUYNsoBogcHaWihoczCkThZceWZ6tqhiRnFYYj/D88CgMbGodJLgrQJg1KQYjW14Y9Ga4GJTXv5I7wHAxKOuwbgsjBkGbvty1tR4AoaqsEntfXI+SkyaR9VWeZxEgoaq08gKAoEkHnh4IahqCkFYRYMElVmNse2cvq10YAEGTZhtMY00AoXZWXIBMvaqqrsG602a8t8VkM1hoHeGDd8bHWC0w5K4A4YcZCaKMdF251IIUGSfy9rho9E/UL+uioQKE51fnYN6hYlTKV2J2+ktvAASnq9whN7QVINBScPqHAzj8/g4w0JHVFUnZ7BDxALyDfIULou0dPdBqZld4+v1VaM8ACA7Russ7tQkgWBs1wcLHO0z4bFehqOFAsiW18uUV8ehthQ1RCSCwlC43a34oXS2f7jTh4x0FwsoiJf+dEodBCnEXzpqHkouBZE7PDY/SrSjXpjMW3LFAnobaXS0IX+8tFLVJCsukEYKj0hz1WA9GmqMeWnRcH5oAwrBmorzykU/+wL4XNzhuUEo9ewCjllyHiG6x8PD0gAEQlBTWMH/XDSDUnb7JUoV/LM3GmYIKQRykBBa6x/ni4ynxF6WivbQ2Fz8lF8mmDlrjJHDFo0jOKsPfF2YhzyKN4Jm58XMDIUry8/bA9V1DbCrrbU3/o75IQWad0tTW2rgrQDiWV477FmchpcA6YRHn8v6kGIyq53ZyxTq0dk8DILjLk7A+DrUAoc97Y1Gabcb+Vze6zYQCmoZgxM9XofiEychicJunot9AHAIQaoe3N6MMH2w3YV9mmciGkJN1tzQV6Y91ZcXxEryxIV8UUJKShwaG47Ze6qsY6qe6i3tSQ7XMeYb5ezpyGKr65jO59qd02bbMMpk9JU5Vf3KNTpkqMOWbNEWg6K4AgXOb/v1ZHM6RploO8fPAltub260rR3TQkAFCVQ1QUFr1p2WObK0hfp66s6c6Qu9q+1QLEEAWOg2WWbX3t7edf1wQWt/UDclvyfM48D5GmqO92nbu9Q4FCJxKVkkl3tmUj2XHzJIllNnOGkAoKqvGnQsyZdMrvTyATbc3E3UhXC1Xfn8Wh2Q2EbJPk4b6vn6uL9ZEwDbo0zOyKmNtgbfGxmgit7LWIQNalx4tUfy2uTNAuHthJtafsUjSfnPeb4+NxqR2wa5ehhfdv6EABBanYuVWltaupVevqK4RlhtaJSnBfp5gRdSwOv5vpk4H+nhgYFKAYDjlfzckUQ0QGtKkJMZqAISLFZNvqUJ2SZWspdxRj577ZzsZTiKHAwRObH9WGZ5YkYOTpgrJeVoDCGzMao5rTpllT59XdAzGK6Osl2B2lGKt9Tv/UDGeXJkje8u4IC+8NS5G1wqUPFTQjcOHrUWUggYJulh98rZeYVq6vaDt9/uL8N6WfFn/fe0F7gwQtqWV4q4FmSK+RkqahnrjW8bE+Ls+JqbuGN0ZIFRU1eCL3QVIL64Shc7ItcIsKS0HZQKCAG8P9G3iD1Jrs3pn30R/jGttO722zQvehgsNgKBOaR9tN+mSYq/ubhe36hLrh8vaBYmaQ3oKywkwCLpaquiQnjer19djgyPRVabInCRAeGZlDl4Zrc+my5edpZB3yZRClgII9O3fMT9T1kXB53Vjj1A8Msj2ug/1n8HPB4rESUbL5lhWVYNeH0sXeeI9WMRqbOtAkd5JU6kewgDA5cfNuKVnKJqHq2evUwIIHFtSqLeopzGixV/50WrH/MvBIvx7i0m2gFXdvtwZIBCA9f3ktGy2DuuPTO8ULII79RKeLmb/UYAnhti+tt0RIBBoPbcqR8SlJGeXoaRcCySQ1y4BQ3yQN1qEe4tKsyxJnxjqrdcj0b0fAyCoU+naU2ZxYJTB6Oo6srFVdKAXHhscgck6Wgk3p1jAWLszMvFNNg5X8TJWuWUGYaCP9D5kFSCwvO3IL1IREeCJd8ZZT0FUvHu9BjNtBAgEVSO+SFHcZGhivL5rKB4caL/5/tHlWVh3ulRU53ugfzimd7yQVllu7h9sy8eH2wtk1ePn5YFru4Tgnn7hdrtG3t2cJ8ir+IEd0ypQzJ+buhrpPVt+w2MfxMo029LqwboGamXhkRK8ti5XMfakoQAEjnNTikWAVTnh6eL6bgSr9q/D/ZlleGBpFvIt1fhb1xA8Otg2kOBuAIEWpcVHSpBRwlRptSvKtnZ810L9PdE5xhevj4mxqyaHbSNQvsoACMo6YgsCg2t+OIuDMm5cdT3Z3uqGbqGigrAeh7vi8mp8trNAHABcIawp1C/JX3zjpcQqQOBHcHPqOX8r/eZT2wfjhZFR8PLwEP+tVY7nVeChZVk4lqfdxcB7FZZVYdCnKYpmR46NJ/77+oXDy9NDduL158AToqm0SiDU3Rl/UUq3CCfjYwSGNg9U1R99pr1nnxEcEUpCFkmaeMgqqcVvyheF5qhp36bhlOnCAM4p7YIEjTVNrUry1d5CvL4+T6mZ+J2P/bNpcegZ7w9PDw941QOdXCtVNTViM2P9jnWnlUu/1r+xO1sQasfa/aPTqoqXTe8QjPsHhCMmyFvVuqntn8uGerx3YRY2nX8Ha/XPD9NdfcI1v4PuABC4Phhf8PLaXNnvgKrFaEcjlqN/fUy05u+DHbdUvLQxAYQ2d/ZEp4f6wzf8wmJ3ikqq06DbR6ccDizlxvN/E2J0cV8ppZpr0YmWtvyWvzo6GlPaByt+Sy4CCMwYuHthFo7kXhixzZPRPX3DMLxFIIJ8PcFa9ErCjx3T/l5ck4tVJ6Wr4bUM98bXVzaRje7/x5Is/H5CXUW9NpE+eHBABFpG+CAh2BtM2bMmNHNyvuQu+PVQMb7ZW2jVfNUzwU+cCLvFcXOUnzVhwfrTFgE0aIlRErpH3hwbjbZRfgjx9URMkJfVe1CPDCwsq6zBnN0FWHS0RPIlmd4xWKDceAWQwDRUZhdoIQDi9Me3CRKxCQRhtcKsiHc358umeSrpoiEABK6Xad+dBQNolYSnV1peWMU0MsBTkq+DyySzpBLm8hosOVaMuXuKwNNFfeFaIaCc0SUE7FutuBog8D1bfdIs2FdVvBJqp2VzO367Xh4VjfbRviDfh6ulMQEE6jphXEv0fnsMmP1gi3Af+OfSLJetpWkdgsV+YA//DjlV7lqQgb2Z0plRtuhGzTXcz54eFoWOKgomXgAQuJ29sDoHDJqQ8/O0jfTB/f3PmVAZEBTm7yU+gIws5gk611wlXALc0BYdKcaaU/KnyZdHRmFqh2Dhn5cSbozMaNhxtlSNDkQbukhu6xmGZhJV5fix/2xXATKKldnHRrYIwJNDo1T5Mjl3+lfXajhFc+Yki7q6c8hFKVx8LkuOlGBjigVFVjYOawp5dlgkru0aKqsrgo6nV9p22lf9EM43pL9LyarQEAACK5x+vqsAn/xRIBuwWFc/3MsntAmSJJ1in3P3FCA5u1zxo0dXGtH/mFZBimC1dgyuBAiMoVh0pASvb1BnqdK6rmxt7+/tgYltgnB333BV77St91FznTm1UNAkpy44qqb5JdEmYWxLdHt+GELaaHfF0dL7yLJsbE5VvxforbQPJ8eB3zQtlt+6Y5h/uBhP/i4f0K73mNkfD6APD4wQ1gM1cgFAYATxK+tykZylDtVwU+PpnKf05uHe4i8/dsx7P55foSpynX5tfvBoyleSlIIKYY1wxcJgVcDnR0SpGifnQXcKdUkzkrOFJ1a6hPpYYaesPxaO76Fl2Xad/JXmx+j+X65NFEF+ctIQAALHT2D5r435WH5C2oqjpBNbf+cL/vc+4biqkzygrtu/qwACAf/nuwrx9b5CW6fr8OvGtgoU+mSql5J10BGDYTGlfa9swKlvklHjgih2R8xJbZ9NJrRC12eHIqS1dpBwILsMj6/IwYl8abe12nHY0o4ZM59MjbMpoyGnpApjvkxBhbIR0pahSV7D93FahyA8NTRK0qpe/+ILAAI3i9fW513kXtB1lHU6I2EQ68ZPbrc3QYoAACAASURBVBckaz2ovYTmycM5Zfi/zSZxmnaWsJjUo4MiRL0ILR8REutQn1qsHvbOidadO/uEi4BFNek4zNSYtS0f3+4rsvfWVq+nhenlkdGY0iEYXT44dUkABE6C7pn/bDVh5QmzakuCvQomE+ffuoZiQptzbj614gqAQMsdS8TPO1Qiy3+idg6ObNcrwQ+39gzDyJbaM3XsGRcpk3c+thKnvk1GjatC8+2ZgJ3Xevp6odlVHdD1qcGay0zTLUxL3oc7zhWncoUwloXxeVqF1o8lx0q0XmZ3ex7C3xobfVEdIbmOLwAI9BXy5Pv4imyHIzP6UK/pEiLQuxZmQYKEM6YKsfE6GiTQNDy42TnXAitPqvf6/qVyWlOoz/0qrTL2rAJaDGgy7Rnvpxoh8n48ETNYUW2Mh9oxEkwxYJKbGk26SmmVDcWCUDt/6u3H5CJ8s69IlbVMrd6staMF62GC1EhfTc+WfTkbIJCBM8jHA+vOWGRrk9ijD72vZRrkU0OiMKKlfsXJlMZ45OM/sP+1TY4rsKQ0ADf43TvYF+3v64MOD/QVNR20SGZxJd7ckI9lx52/2XKcsUFeWH1zUy1DxsLDxXh2da7TDhW1g2NG3ksjSOSmLe7DahYDfdM8Gb2wJlfT5NU2ZorILT1CcUP3UNkcTLn+GOTx/tZ8/HSg2CHKZk77J1Pi0CHG1+7UKJ7SP/3DhM93O8bUytdqQJI/3hwbIwJnNL5nQs2FpdX4x9IskBBID6Gv/N5+Ebiu618BdZcaQKCe6FLjh4pUzPzfegutQNd2Dcbf+0Qg1NfTJp+nswECx8xTHeORGpJEBnjhjbHRGCxRfl7PuRQczsHqid+j0uwaE7mec7G3L+9AH3R7cRha3dBVc1eMcWNwtJo4Ms2dq7jg1h6heFhD+vH1P6dfkCWn4ha6NGEIwG/XJYL7mhaRZVIkyxlzNGnKYaS7mqh8uZvzw0F2vgV/a4JwndjmKqtqMOGrVOSVVoP/2x5LHZXH9D26E5QC/LQoubatubwarNdgqawBdWvv55P6pAl/zrR4dKpXftqW8fEaWjtoSWBQqC3jow47xfjixZFRF5XwvhQBQl0910bqcw1yLdqiP/ZHXyGfa7tIX3x1ZfwF2SK2PFdnAwRbxugu1zQL88ZHk+PQIkI5JsrWMbMk89KBX8Cc5hi3nq3jcuV13kE+GPDJZMSPanEup1qDMIZq+fESl7gaGBO04oYk+ChkFfFbwIBwWhDs2aM0qOXPpvye7LnbtjoxqqiWuVksPFIsshtKKmpQUl4tGNCUAAN1RiDAbAJuZs+NiEJXnTay+opitPR//yjAlrRSYVHgfzOLQs4/RbNLVICXsGLwxMvTLulZ1fjubXlQvIbj2Z1RKsoHZ5urRMaH0jhr70XwF+bnichAL7GJkOGQwTJ6C5/vPYsyBZNkrqXqAm58a/ci6IsJ9IKvt4dIf2TEvjW51AEC58xTMxnf5u4pRGHZuXeFOpSzLvA9YaGyUD9PAQYmtw0S7je96osYAEHbG0J3zhtjolVxiWjrGagsLsemWxYga0OKWxZe0jofPdsnTW2Lnq+Pgl+UNjePuaIaN/2agQPZ6oLr9Rwzgfw5bo0Y2W4Zj0aLPBMBnCnEWgyun9FZPdlf3fGpAgh1LyAoIJPVz8lFKFSgR+WmOzjJH0NbBOr2sVOjXBa+4GmOwYFyVl/yL4xpHQQG9smlWKq5py1t6CYh8qVZnxYaRjFzI6kb3UpDiy9XITNGvDzQP9Efo1oF2u32UDNebm60JpBBUC7ilix15ChXImci0peTdlE+IiZFiyj1SU6Me/pq61PL/eXa0kp0OLccy46VIK1IOpWW/vqxrYLA/GQ9GNrqj8kACNqf6MS2QYJzgn5mPYUBiftf34jSLHWcLnreuyH01fO1EWh9S3do9aX9kFyEV9bmOv10Tp3yG/P2uBi0i/K1qmLWFnnnPOOts58BXc+zJseJWiW2iGaAYMtNjGvUaYAuWxLk0GJTK0G+HjbHaai7q9HqUteAARC0P2GCNtZ2YSE4JfOx2t5N+7Ow++k1yNl6Vu0lja4dMxvGrb8Rwc21F4hjCjyBgrOFbukZnUIE+ZA1Fz/5X15ck+P0OAlS5M+aFCsIwWwVAyDYqjnjOkMDDUQDBkCw7UExrZSuBqY32yvVldU48vFOJL+xCTVaqEvtvXEDvD5uZHMM/fYKzSOnRXbiV6nCJepsYQohC6oNbX6he4Slys9x9zgvLb927mTTvbmH7YkA7McACM5eScb9DA04WQMGQLBd4Vd0CBaxPlp4J6zdLWdLGrbdtxTmVOefcG2fveuu7PfhBDSb3kHzABj/c8+iLM3X2XsBDfh39gkTLtLaGDYGI/5+vASPLs92uuuDcUwPD4pEXLB9LjIDINi7MozrDQ24uQYMgGD7A2JWzrIbkxBnRywCsxZOfZeMnY+tsn0gjezK0HaRGLfuRs2zZsAiCcwYJOxsYczdv8bFiHpFFAagT/o6zWpdFUeOLcLfU/DPTO8UojUh5KJhGQDBkU/K6NvQgBtowAAI9j0Epu3+eHUTmzspPJyLFSO/ApkTXS0kI/Ly94ZHvbQ8ZldVl1Wi2tn8vxIK8QnxRdfnh6LVTO3cCLvSS0XBQbV1a/R8JqwkfNN5s/7za3LwU3Kxnt0r9sUYiOkdQ0SauR5iAAQ9tGj0YWjAjTVgAAT7H87SmUmCTVWz1NTg9E+HsP3+ZZov1fuC8K6xCEgKFtTGoW0v3ECqq6px5IMdSJl3BJazxSg36UOYZs8cYgYlYcg30wSg0SKEYQsOFePldbkwVzgflH15RbzIRrriO+cHo3aJ9cW/J8YqVvJVq08DIKjVlNHO0EAD1YABEOx/cKQv/+rKBM0d8UQ+v9PHqCxyfo5+7WB9wvzAzbb/RxMVN9uyPAvO/HwIxz/fg+ITJs3z1fOCwKah6PHycDSZ0Fpzt2mFpGHOw8qTzk8nndI+CBvPWJBncW6wJAsnPtg/HDf20J4BIqVgAyBoXnrGBYYGGpYGGgJAYKoYc7XLKt2TopmBZ79d10SydLzUisjekoa103502YLxjw1Eyxu6ov3dvcG6B6qkBkhfeRJ7nl2L4pOuBQmtb+6Gnm+MUjXs+o3Wn7aIMuOnTY2DzpqFo1hASk8xAIKe2jT6MjTghhpwV4AwpV2QKIZG8fTwgK8XwQFQdd5XT9bWn5KLBDGbq4W+3cvbB+OV0do+wL+P/Qamfc6Pqhc69fFEmzt6ikJIvuHaGVcz153B9nuXojTb+afw2ucdO7Qperw2EqFtIzUvAS4j1mn4dl+hQ+qkaB6QAy8gl97imUlIDNHmjlEakgEQlDRk/N5gNUDCqa0yxaf4UjUL80FSqL4vlbspzN0AwvXdQjG+dSCah/sgOlA6DYusrSmFlTiSUy6i0ndlOJemtv5zJFPer9dqC1b8Kf49ly2Hple0FyZ6v2gby1jXAIdmbcf+Vze6bA5eAd7ozkJON3azaQxk1b1pXsYlb0X479Q4DHJAkTEDINi07IyLGoIGMourcNk3qZJDDfH1xK09wzCze2hDmI7NY3QXgEAgdn//cEErTX+pWuFJ0FJRjbc25mHeoWJBS+4KIe3yK6Oi/7R6KI0hbfExbL51oVIzh/zuHx+Erk8PRvMZnezqnymavzR7364+7L242wvD0O7vvWzu5kR+BaZ/d7bBVRdVO+EJrQPx6pgY+Gt4p9T2bQAEtZoy2jU4DWQUV2L0HHmA8Pc+Ybi5p35BPe6oJFcDBEKBdtG+eHVUNDrGqPSDSyiSgWek03VEaW01z25sq0C8NzFWTVMsHzkXhQdzVbXVu1HCmJYY/NXlunSb/PYWHHxniy592dJJ4pS26Pb8UAQl2Q7k71yQKQIHLzUh98Lc6Qkg66cjxAAIjtCq0adbaMAACOceg6sBAjnh35sQg846VXJ9bX0evtlbaHM5bXsW58iWgfj3hBhVJbgX9/6fS0o6k+ugyaQ2GPjpZHumesG1rnSVeIf6YuB/JyNuuG0li2snMunrVJw2VeqmE1d3xOJ9L42MwqR2wVZrQOgxPgMg6KFFow+31IABEFwPEGg9eGVUFKZ1tK3crNTCenxFNhYeKXH6uuse7yfcDK0ifGTvbckswcrx36A0w/lj9A7yQfv7+6Djg/11048rAQInMWjOVDQZ38qu+WxLs+DOBVlgldVLQQY3DcATQyMV16I9czUAgj3aM651aw0YAMH1AOGGbqHiI6a30MVw7U9ncTTXuSlsoX6eIFseAy3l5PiXe7HvpQ2oLHZ+BoZvhD96vDICza7UXstAak6uBgh9Z01AsyvawYP5sDZKSUU13t2Uj+/2N/x6GC3DffC4leJQNqpG8jIDIOitUaM/t9GAARBcCxAYNLVkZhIY3Ke3MHBxydESPLYiW++uFftjYOvDgyJk2225YxEYpFjjgtMqiZG6PDUYrW+yLfLf2sRcDRDa3NodnR8fBM7NHjmZX4FnV+dgV7prM2LsmYO3pwemdwwW1SO1BPvack8DINiiNeOaBqEBAyC4FiA8PTQSV3cJAT9ojpDUwko8siwL+7Kce0pXAxDWXfUzsjakOGLain2S/6DZ1R3R552xim3VNnA1QAjvGoNBX0xFYKJ9rqqK6hp8t68Ib2/Mc3qFRbW6VmrHgMQPJutHpyx3PwMgKD0N4/cGqwEDILgWIHw1PQE9E+w78cktPhYYWuwCK8K1XULwyKAIBPhIm7tdCRCos4SxLTF4rj5ZDEXH8rBsyJcu/Q4w8HLsmhvAKo/2SnlVDf61MR9f73N+xUd7xx7s64l3x8eoTrW1934GQLBXg8b1bqsBAyC4DiAMaRaA50ZE6c7sVn+xrThhxsPLslDlRG6EQU398cSQKLSOlA5UdDVAiO6fiP6zJyIgPtju93PJgM9RcqrA7n7s7YDln/UACBzH5hQLmA1DjoSGJN3ifPHtVdrIuuyZnwEQ7NGeca1ba8AACK4DCC+MiMKVnUIcln5Vu/AO5ZTjlbW5TmVZbBbmjWeGRUme4ligaf01vyB7kzQHh6NfHJ64W9/eA92eGwpPUobaKAUHc0SpancQPQEC5/PO5nyRLusqTg2tOo0P9sbKm5K0XmZXewMg2KU+42J31oABEFwHEFg0hsVjHC2Wihp8sD0fn+9ynrmYRaWeHxGFKRLzM6cXY8utC5G3K8PR05ftP7J3vMhmiOwZb9M4zGmF2HjDfBQcyLHper0v0hsgEBj8fWEmdqSVuoRTQ4t+GMXz1tgYTGoXpOUyu9saAMFuFRoduKsGDIDgGoDAyoevjo7GpLbO+Zh98kcB/r0l36nLkBaSGZ2tB8wVncjH1ruWuKxIU11FxA1vJoodhbSWz7qorzxLRjEOvb8dp75JRpXFPciF9AYInPO60xbcvzgLrPvhznJ15xA8OTQSfLecKQZAcKa2jXs5VQMGQHANQEgI8cILI6LBOARniLsBhPy9Wdj+wDIUHnINzXJ9nUf3byJAQnjnGFWPw7Q/C0c+3on05SdRUeg+6YCOAAhUyJe7C/HmxjxVunFFoxZh3vjPpFi0jnQMnbLcnAyA4IonbtzTKRowAIJrAEKPeD88PSwKneysu6B2kbgbQCg8modtdy+Bab/zORqkdBbUPAw+Ef4Ys/Q6SbWyMFPKvCM48K8toAWB/+1O4iiAwKqv4+amIMfsxEhXDYp9ZlgkruoUAh8nWw84RAMgaHhQRtOGpQEDILgGIPRp4o+nhkaivYMKyNRfhe4GENzJxXCBrjw8cFX6PyRf4pqqagEQtt271C1fdEcBBE72TEEFJn6V5nbzbh7ujZdGRoPvlCvEAAg2aJ2Is6CsGtU1NcgpqcKO9DKsOmHGnswy4cuin6hTtC+6xfuhd4I/2kT5iJxpeo/C/T0d6keiJ62kvBrmihrBOb7hjBmf7izA2SLp00DbSB/c0D0UfRP94e/tiTB/T7AQiDOFYy4ur0ZGSSW+2lOIlScsKJNgoWsX5Yu7eoeJHHsvTw9EBnhZjZZ3FUAgGUtxWTUqqoGMokrB+PfDAesVCEN8PXBNl1CMbhmI+BBvMOCcZaj1PC04u1hTYwcI5aYybLzhN+RuP+vMV0jxXolT2mDgfy+TbZex6hQ2XD8P7hi15yiAQD6N+5dkYfVJs6IOXdHgscGRIPeGo1kTrc3NAAgqnzg33uN5FcgvrRJRr7O2mVRe+VczEso9OjgSHaN9ERfshaRQH93SwLjI04srccpUgXkHi8H8cBKC2CIPDghHrwR/JIR4g5X4HClniyqRVliJXw8W47fDxZpvFR3giWeHR4uc9BbhPvCog2ucDRAIaPZllol18s2+QhzL055j3TzMBzO7haBtlC9oqtcDKDgbIPSM98NTjdjFwEXsah4Eay/SpF23ITBBnomQoGbL3xfDkqb9XdT88mq8wFEAYdMZC+5YkKlxNM5t/u+JsRjVMlC3/ULt6A2AoEJT3HR3Z5Th672FYN61vQGv3MP6J/ljbOsgDG8RgIRg+zbhwrJqLD1WgvWnLVilEwqmFWRwM39c2TFEbFQRAfry6RO8bEktxQ/7i7DmlNnuAws3pZt6hKFfor+wgFCcCRB+P1EiwNmsrSZhObBXCCYfGhiBNpG+GNrcvmA/ZwOEpmHeYJT/gCT7xq1Wh+7mYnBHgODh7YkrUx9QVGl5QSkOvrMVRz/ZpdjWmQ28ArwxZsX1CGmjLRtDaYzHcstx1Y/pbl/hkfE8X0yLR5Cv7ZwWSrowLAgaNcQD+P7MMny0w4RtqaWSJm+N3V7QfGzrQIxrFWRzfuvhnHJ8tbcQ8w4V2w1crM0jLshLfOhv6xUmyxynRQfcSGl2/+VgMWhB0EtYFGhEi0Dc3z9cuB2cARCYh/99chE+22lCrkUHZFBPGYkh3rilZxiu6WI76ZCzAQLdU0xznNhI0xzdESA0mdgKgz6fqupVO/bpbux+Zo2qts5qFN7lfC2GJPtqMdQdLw96T/yeLei6aYF1d/lb11A8Pcx+qmkt8zQsCBLa4uL5dl+h2MRoNXCkkCGrZ7wv/jU+VtNtPt9VgGXHzNiX5fhUpO5xfuJU2M7OwDOa319fnyviNRgnobfQhz8gyR8fTI5DjrkKo+dIs9nR1//3PmG4uWeYTcM4lV+Br/YVYv7hEhH34SihReSu3uGY2T0EXnV9KCpv6GyAwGE5iyiJMT+zdxTgw+3aXX4q1We1mRwPggAIV/+CrHVn7LmFrteO+G0GSL+sRlIXHBUAoTSzRE1zp7Rpfb6ao6+d1RzrDva/fxSI+CzGPjUU+b/xMRjXxjn8ItSJARAkVsazq3Lw+wkzaL53hvC7P7x5oKjSpUbe2pCHXw8VO218HBPjEVgopGucbQV4cs1VeGBJFvZmljnE2lGrN7pwLmsfhAcHRDgMIBA0kpxnq4MsS/XXAMHMgwPDRUCj1vDRSxkgpBRU4M2N+U4PMFMCCEwVPPzBDrchGZq45RYEtVAHhEtzzAIgpM47ouZT5JQ2/WdPQtKUtiCFtB6SnFWGF9bk4kC2Yw9/eoy1bh+tInww77omNh0UbBmLARCsaO3dzfn4bFeB081OXPqjWwWCASlyQuTLfyV6OLs1rhqW7l06M1EEMGqVx1fkYNGRYrvjDdTcl4DrPxNicP8S6Vx0Wy0ImcWVeHtTHpYetT92Qs1catswseStcTGYoPEE4QqAMK19MP45KALRgfrGrtTX1/LjJXhoWbZT31VmnrAQ1aS20lTSBQeyse6aX1GW7frI+LiRzdFv1gT4RamPCdn99Boc+99uLcvToW0HzZmKJuNb6XIP2i3/j9/4nQVO+RbpMug6nTDbjPEIzhADINTTMgP9HluRrfpkzvKbIX6e4MebHw6mCXIBMgiP/unaVD2enqXS9mqH0DzcB6+Pjkb3eOkTOjMoXt+Qp9rtwWBDfqT5t12kDwY29UeHGD8cz63AujMlOJZXCUtlDYrKzqUZqhGCg2+vTEBMkPqP/x9ny3Djr+lquhdtqFf+C/LxwMxuoZjeMRje51Mv04sq8dF2E7amlYIphUw1tSVhwxaAQJP2/EPFeHa1MkteqJ+nCCrqm+CH18dKs9g9tDQLezLLhZuiSOEZ9Gnih9dGxyAxVD1AcwVA4DP8+soEEeDqKKEbcPHRYhB4OlM6RPsKXzAzfeRkce//wZxW5MyhWb3X4LlTkTCmFbSYnpLf3iwsINWlridL8vT1wqDPLkP8mJZ265Jr5vv9haKSo73B5nYPxsYO4oO98MSQSBHk7mgxAEIdDR/PK8djK3JUbb7cuHomMBMhENM6BIMnazl5Z1M+DmSXIaO4SkS715cAHw88OSRSVMCTkjxLFf6zxYQfDyh/dDic/okBaBftA+bRyglflJ+Si0Rq5M70UlXVzcjv8N7EGBEMqCSphZWY+FWqqheSAW5MV7y+WwgmtwuGv7e8XgtKq/HqulwczCnHyfwKTScCWwACASQLvMiJlyfAdMUH+oeLoEk1qYosHMNMlNk7TKC+5D5er42OxmXtgwUoVSOuAghvjGE9hmBQH46Q7JIqvLY+F8uPO/eUznf+8cGRila05SPmupxumZvrkK8vR+zQZpoeQeGRXGy/fzny97g+/Y8WEBad0lpPwtqESYj08tpcbEop1aQPd2vMkuMsGMZUeUeKARDOa5fkRy+tzcVvh5RN4IyWv65rCO7sHa7p2dCysC3Vgrl7i0Q98toyo/zO3903HPf2k+6PJ1eO7TkVJ1daDEa0CMCLI6M1ja+qGvh4hwkMfqRVQU5I+HRfv3Bc1zVU8R6Pr8jGoiMlipt3VKAXJrcNEoBLKwvfrvRSvL0xH/uzy8B5qBGtAIEaGTsnVfBNSAnJTPo28cddfcIUT5jW+thwxiLMn0dypdNpmVmy4PpEBPmo23ldBRDoL6UVgZYUvYXPgmD2xl+cXzGRFq2HB0UoEp4d+s927H9to95T19RfVL8m6P2v0QhtF6XpOjbe8Ld5IHGSq6XLU4PQ/t4+8LATaVoqqsF34fPdzqv86Sjd0YV6Y7dQsWc4MvXRAAjnn+DaUxa8uSEPpwvkyW3aRPrgnr7hGK/RD1x3oTD9buHhYiw4QhN/Bf7eJ1yk5skJ/d7/WJKtmLFAN8X1XUMwvVMIWJbWFvkhuQjvbMpDcbk8SBjUNEBQ6raMkEaxR3PLcfeiLNAtICd009DSMaFNIAJVbnz1+yNJ0Vsb8wRnhRrzoVaA8N8/THhvi3S0PK02tKxQJ/Zke2xNteCZVbmyKaBzpsWjT6I6+lVXAQQ+n38OiMDtvdUFx2lZq3ThPbwsWzfeDy33vrVnmAAISlKWa8GCzrOVmjn0906PDUT7e3rDy1+9S6p2QLueWIWT3yS7tCaDp68nur0wDG1u7WG3nhhQfOeCDFSqPEDYfUMHd0Ar5YsjowQDrqPEAAiAoEdm0J8SOyI3lHfGx2CwDlXqaLHYfrYU5opqDGseqGhK33jGgjsV2L4CfTxwV59wXN81FHRZ2CMLDhfjyZU5ssFfvB99YXJuEZrzfj5YrEhEQurke/qFK7pqlObEkzfLt9JMryRaAcKg/50BXRpSQqvKZ5fHa7Z+WOuPvBt3L8qUdPeQbvrXa5soTVH87kqAQOvB/OsSNcWrqJkUg4jptnOF3NYzDA+pAAgc228dP0ZFvuvM2T1fGwmmCNoidC9summBKNzkKokekIger45QXYlSbpzTvzuLw7kNK2tBSe/d43zx5rhYNNUQk6TUZ93fDYAAYHd6GZ5ZlYOTVmID6irrzbHRmNgmSPD/6yFV1TXw8PBQpM/kafiyr1NxukB+07uiY7DYsBncZ68w+I/BeEoujb91DcF9/SL+ZC+sf997FmWC1hk5oS990+3NdBk370Pq5slfp4kARjnRAhBIRPXC6lzZPv87NQ60qughHPmYOSkiZkVKku9toepWrgQIHCDBzC/XJIi1rofQjzzjh3TVQbV63LO2D6b6PjIoQrUF8ezyE9h043w9h6C6L5IL0XfPTdYWqamqwbIhc1B80rkcE3XH2nJmF/R6c5Td7oWbf03H9rOO54uxRc/2XMNX6qURUbi8IzlS7OnJ+rUGQAAE38E/lmTJavfyDkH458BIxDg4bcvaILjPdf1Q3hfYPsoXL4yMQjcbOQqs3fdgdjmeWpkj/OFSwiDC9yfFWt0YafVgtLC1oMy6/e2+uzl8dAJdtf1e82M69isQSGkBCFd+f1YxeFXthq32NSYR0+RvpCvMbb1DHahyNUDgfLvG+uG7GQlqpy7ZjgXIxn6Zimyza6LrSXv9zrgY1X5flkz+pdn7ds/blg7a3tET3V8ebsulf17jykBL3wh/dHp0gN3uBX6/rv4hXfHAYJeiXHgxccEWld8CrcNs9ADhXNpaCZ5dLZ0qxc2LEaM8obtCdqWXYeYv0imC3FvJn/DeBHUkS1rmwKJDr67Lk73ko8viMMxKvQDGdHy5Rz4giCySy29Mcgj67fyBPKhSCxAI0AgQ5IDS8yMicXVn5YBNLbpnW7k5PD4kAjd2V/bvuwNA4FxYd+S54VGI8PfSXJmOabgkp2Ig8Yl87UWwtOpdqv0YFTwlda/lKfyPR37HqW+T9RqC6n5aXNsJHR/sr7q9tYZnfz+BPc+stasPWy+OHdYMw36Ybuvl4joW15v5c4biIcWum7jBxQycX3ZDkmLgrNahNnqAwOC/p1fmYHOqtJ+wdxN/PDn0XBVGV8jtv2Vic6q0mZ4f3KeHRwr3h97C1LvX1uUh1yJ9YntzbIzg3a9v4lIDEAgueCpzgHUMI75IAVPhpEQtQGAg6X2LM5Ei4+LZcWdzu+M+rI1z4KdnJDk5mC3xxRXKhCnuAhA4P5ro6ZZiYBXfJyV3HWN09mWWC74DunlcGWBGaxn58NUEKNZ9lkVH8/D7uG/chlVR72+EI/rz8vNCq1u6o/sLt8DNHgAAFk1JREFUw2zuntYmsiUuPFIi4swudVFi97Rl/o0eILA2wHU/nUWJTF2Am3vwoxCpGCtgywNQc43SSZi8AQwEszMLyOpQyL3w+vo8UdBESq7qFCI+mvXT2dQAhAV/SwTT4RwhDDx9b4t0IJtagPDF7kKR/slTrDWhBWfR9UmKgaa2zPHRZdnYkW4dvLLC5oZbmyp2604AoXawLcO9RaYNeS9ILsZqdUxzra6pQXpRlQgmY4wOXQlf7y0SwbyulmZhPvhkShxYrVKLlOVZsPeFdTj9w0EtlzXqtoGJIRi79gb4BNt+KGPKML9dSi7OS0XRTHdkrQY9guhrddLoAQLNxld8d1Z2jahNa3LUQlMDEBZdb1sgkpox8yVjxUgp4Ulw1uRY0F1QK0xDe2NDHr7fL03qxHiOudMTNH9w1YyZbZhiOU3m2aoFCM+szMH8I8WS/AoECCREsqWQktJc9maVgVYua9KQAULd+fBk3inGD1EB5wFCceV5gKCkHef+TgbFn69RlzlSf2SZ685g612LUe7CjAbnasu+u/V8YxRa39zN5k747vO7RbZVZ8uMTiEC6DJ7y5nCgMX+if6YNSlON2umARAMgKC4hpUAAvkWfr62iWAPrBVSSxMgyFkeRrcMwPMjosXJ0RGiV7nnB5dmYYWT2frU6ONSAQhq5urqNmRKfWVUFKa0ty0OqbygDAfe3gyWUjZEXgNeQd64/NA98LSRD4XuhJ+SiwUnihK9vd7PItjXA/+7PB4Jwd4Y9nmK3t0r9scMttt7heEOnbhHDICgABDIjMccffILuEqULAi9m/jhyyvsjxCXmp8SQOB1tGDQ1VErWSVVeGN9HpYdl3ZNkE75/n4RopaFI8QACOe06o4uBkc8b0f2yVomzBrhX1sla/0Z7H5mLQoPK9fxsPUel8J14zfeZBetMonS7l2UCZMMZ4mj9MQg3OmdgkVWFr99Dy2VLhbnqDGQE4Gkc6NaBdp9CwMgKAAEmj/v7hOG2zXSKtv9ZOp0oAQQ+if64bNpDQ8gsBzzzO6hNjM+KunYAAgGQFBaI2p/v7dvuCDysld2Pr4KJ+bstbebS/b6ptPbi8qTtpZ1ZszUfYuzsCfD+ZwHzHB5bHAEEs/XR8gxV2Hslykod0FG7h29wgQNs5o6MHKLyQAIhotB8WOjZEFg7Qdy7ifVYfMqKD3nYph/WNqCcE2XEBAkOIKrn5MyAIIBEBQXt4oGNNvSeqCHVJVWYvNtC5G5+jRqGkFkvRadBcQHY8S8GQhqoZy6K9Xv2tNm3LNQntNGy5jUtuUaYaD21Z0vLLa3La0Ut/+WYVO1WbX3lmpHa8aVnZQLCRoAQUYDRpCi8jJUAgjd4/zw3sRYMBe3VmpqgDc35mGuDA9C51hf/GfihcGNyqNR34LRy2RUlBK1QYosNsVYCnf7nhsxCOrXgj0tWZVTTxdj6sKj2PnISpSbnB9AZ48eHHmtX1QA+n0wAXHDm2sqS113TGq+5Y6YA0/p13UJwaODL850O22qwLOrcvBHuvMtGm2jfPHu+Bi7ssQMC0IDsCD0++S0bBomff+OymIoLq8W0cDMQZeSmd1CcF//CHDDrStKaY6+XsAv1yaiZZ3YBT1f4O/2FeJlGZIntQDhw+3nKlyaZVJhr+8WCm/HhFJIqoRFrVhRU0mMGAQlDUn/3iXWFx9PiRPkTnrKwXe3IvmtzXp22WD78vD2QMuZXdH5kQHwi7bNb07wfuOv6SCpnLOF369XRkejR7yf1VsvP14i+Bjk6rg4asysy/PIYOXKo1L3b/QAgbzudy3IxBkZEpyRLQNFjYO6JnRHPVBr/SpF0fPk/n8TYtAjXv+qXptSLIIoSa5OhVSNCiWAwLnOu7YJiHQdIbQeyOVAqwUILCv82Ioc2YqU31wZj+4O0L8eejEAgu1afH1MNCa1DbK7iJi1ERz41xbwX2OX2CFNRUGm0PbaS1LX6o4g/qPtJqdb+QjSyWhKLhgpYcD22xvlM7ocuQZeHR2NaR1sy75p9AChqLwas3fwhCid508CiueHR2FyO/2ZCtUsjON55Zj6rTRXA1OwprQPwiujotV0p6nNd/uL8Nq6XFkfmhTV8he7CvDRjgLZojpXdAjGS6OidSehYqpT949Oy85VLUBgqhRrOzC3WkraR/kIa4g7igEQbHsqM7uFitLuYf6OMQ1VllRg19Orcfq7A7YN8BK4KrxrrHAthLaLtHk2689YhBlfjjXV5s4VLmwV4Y0fr05UJElbfqwEb2/Kly3h7qgxxgV7YdVNyoRq1u7f6AECfeVMR2FteTm5u084bu0VCiJGZ0tVNdDtI/m6AqSDZhGZmDpxAPaOk1URaQVYedIs2VWTEC+8NTYGPRMutl6czK8QxZ72Zkqb/Zg2RppivVkg7/gtA5tk6LM5IbUAgW2nf38Wh3PkS8Vuub2Zw1I27XmWBkDQrj0WPXtqaCS66lj8zNooio7nY8eDy5C7PUP7IBv4FQEJwRjx29UIamZfDZNHl2eDlPCuiBFac3NTVd9cHjIeWZaNVTLfUkc+zs4xvvjhau0kX40eIPChrDxhBs34Sgvs06lxGKhTOd/axVBVA8VCRRzX9T+fxd5M+Q2KJx66QvSoqkvm8nWnzLhnkXxEMH3gt/UKk8wPv3dRFtackgYY1AP9vN/NaKJbPQZSIg/9PAXkYpcTLQDh050FeH+rSZbTPS7IC7/f1FR3a4i9Hw4DIGjToLNTm037s7Dz0ZXI250JXPolA8TDIAnSpJ23wT/GdqssVfXOxjyQCt0VamNK40091GdcHMgqw0PLspFSaJ0ZVdsq1daaZHZPD4vEFR2lXSGGBUFCp8yd/feWfPx0QJ4akyjs3QmxusUi0CQ2a5sJTPcjF72cHMkpxxXfy1NCJ7JW/eAIjG4ZqFgER2l58dR/228ZsoF5XHRPDI2U9b/N2pYvXmCLTIAfx0KO+0HN7C/alFlShVvnqavepgUgcIx9Pzktqw9uLMw/JmCyN/+49vkUllWLYk0scmRrRWwDICit9r9+p0WLqWoszuZMydmahn2vbkDezkzUuLIilRMmHdQsDCMXzIB/nG1+8doh7kovFeXkD2TLH5wcMSXGo7H+DYn0tMj9i7Ow+pQZtFw7W0gVTndw3WwzpTEYFoTzGvr5QJHwEUkV5KlV5NWdgnFzr7ALaIWVlFz/d9YpYJEoFhJiQRE+OFbikjNnMqf/gcVZSFZ4GQY19Rd+U5pIlSrlSY2b4OBfG/Pxh0SRoNrrWL73qaFRsoCptLJGmOeZ7iMnkQFeIiWnVxN/RYuKVD8sA/zK2lxsP1uqaA1iH1oBwpMrsjH/iDSvA/skSGM+NCtU2uuO2p1ehoVHirAptQyvjopGjwQ/m6wszgYIBEq0enGdNyQhALuua6gAB9o++/rMMntrGo5+vBMZK0+h2hXsOvpMQ/497xWPvu+Pt4spkTfIt5w7XDFGytlC5tfPL49HR4VDnbVxkR9m3Nw02bgsR82HluXxrYPwwsioizLOpO5pAITzmqG//eV1uVh/Wrqsct2NcUq7YFHiWKuwRsEPyUVYc8qC/Vl/+ebbRfkKFi4pFwY/uKtPmvHI8mzFDy/LAI9rEyhK02qV3w4V47NdBWCJYzlhoaUHB0aoio79eLsJs7abFFEzUTkLYw1pFoDEOqRLSnMgGj+YU453N+dhW2qpalISrQCBgY9DP0uRLL9cO85mYd64vH0wLu8QjIQQbZX/2IelohpLj5lBt0ZtFgYtTARjPROsp1LJ6cjZAIE89N3ifLHjbJlsmXCl5+rs32/tGYoHB0TqHg+jZR4lZwpw4st9ODxrh5bL3L+tByCyFV4ZgdB2UTZzHXCidB0y7frltfLB045SynVdQ3B//wiE2UgR/8FWEz7cYXLU8GT7pSXy0cERGNda3d5lAIQ66lxz0ozXNuSBYEFJGAxINDayZQAGJAUoNcf2NAsWHzWD7gxu9NYOV9wEuPCGNbfeH9Nl/m+zPDth7UDI7DWhTRD6Jfqryr7YeMaCtactWHykGPkKHOY8aQ1vHoA3x8aAGR5KwpPkhLmpoPlfSYjOmU88vnUgxrcJUjyFm0qrRHrT/qxykINdi2gFCOz7x+QikdOsJEE+HujTxB8T2gZhcttgVZsOrVfMmaYFZO0py0VAhMRSZEfrEqsNJDgbINCK8viQSKQVVeDfW0ygFcnd5Z8DInBzT3JZuMJ2cKF2yLZ46vsD2PX4KndXm6rx+YT6InFyG7T7e2+7Uhlrb0YKY7o/lQ4xqgansRG/p08Pi0KbSNtL1DPofMycFGSZlb+HGoenqjmty88MiwK/J0piAIQ6GuJGRhM16YErlCIWAfHR58cwLthbmGxYJ75ZqDc8PDwEyMgyV4KLmS7FrJJKnDFVygbTsA5MjwR/PDooQtLdwMyAV9fnYnOKOhY2+puah/uIUrpc3Mw2YGpOZnEVdqSVYnNaqaAkziiqFCk4aqzCDMb79PJ4TQxdtJYwVVCtkL6Z+mScA8c8tFmA8MPTTEYyFPIz0KXAzedAdpnQsVaxBSDwfp/8YcLsHQWqbkcgySqX0YGeAiiMaBl4QSxBZkkl5h8qFqdtklKlFFTKnrpbR/oI9sm6hbGUBuIKgECXWfcEPyw6UoIXVQAqpTk46neSW5EBb0bnEPjZUYhJ7/HV1NTg7OLjODRrO/J3ZerdvdP6I/FR73fHILJHHPxj1Z1alQZHcLBFIUNJqQ9bfmdc0f39wnFTD/uBJA9kdy5wzXMlBmZWHgGxkhvUAAj1Vgo/0tO+TUN6sTZ0R6Xz9FHLpscNq6qmBtXV6gOT2QcDDN8aFyOZFUBz+pZUC15ZlydLAlT/BeC3z8/bUwTVMFOTKLa0qkZssFUqwFDd/n6/Mckm0/mG0xbctVDbS8HzHMdMv3bt6a6s8ty4lUDc+5NicP9i6fRVWwAC9UCz/yvr1IM0XkP9B/p6XlSYioCspLwanJPaczaJT1h2WO1+5iqAwKBTmoO3p5XiDhd9DOU2graRPvjHgAjh0tIrqNSWjUfqGtZqKMsx4+jsXTj8QcNzOYR2jMKw76+EX3SAzcWX6utm0xkz7lyYpeiu1PM51PZFHpwXRkQj0Md+KxMDj+9ZlOkS5kfOh3OYc0WCYnC8ARAkVlLv2aedahrlyZhZEt/PUJeruvyYGa+tz0W2E81UPGGtuaWpzcWVaKFh/MXbG/Nl0wXtfbkJtG7qHoKZ3cMwek6qZHe2AgR2yEDON9bnYl9WuaqASHvnxOsJkGgKv7ZriCIxS937uRIg1I5jX2YZbvo1Q4A6jXhUD9Vd0AfBwMgWASBLor+z+bFtnE3O9rPY/dRqFBzIRQ3RvZuKh7cnPL09MfSHKxDdT1/iMH4/+n5yxqHfDim1soTys8OjMLiZsjtZ7aPZmV6Gm39NV2W1VdunlnYR/p5YNDNJNpbCAAgSGuXJZ+bP6ThuqlBM0dPyUKy1Dff3FH7l2VPiNHXF4iSPr8gB/zpSuDGREImpiE3DbPe9cYwMwGM66cc7TA6p105kzACcl0ZGI9tc6TCAwLmQWZEUr4wXIBGKo4TnlfAAL1F2nCmxWv3k7gAQqJtjeeXCNcPMHZ6gnC1kRGQgLM3EQ5vbxvnv7DHXv9++1zYg4/dTKD5pQpVFOVbKWeP18vdGQJNgNLuyA9rc2gO+EfrSvtNiyKqIuzTGGekxf0cx1TJgnZlsvxyUT6/XYw5SfTw9NBJ/6yYdzG4ABBntm0qrMWd3AVacMIO+f0dIz3g/kQlwVb0yoWrvRVRNFshDOeUOofFkFH7/RH+R298qwj5wUDsnZgMwW+J/uwqRUlCh24mSMQsT2wTh5h5hgh5Xr3LPcs/CXFGNWVtNWHysxCFUrzztDmkagDGtA1VljFgbq7sABI6N7qzvk4tAHyzjaBwJrGp1ER/shfbRviKw9pou2jN71L6LTmtXU4P9b2yCaV82SLJUmiVPROboccUOa4rwzrFodVM3BNtRqllunAsOF+PNDfnIL9Xm+tVj7sww++6qBM2cB2ruve60RcTo8FvlKvl8WryIT7MmBkBQeCo0iTJ1bsnREqw5bRH5t3pI6wgfkdJIUpZWkT525V0TXa87bRbZEZtSSkVgpL1SexJnPv+IFoGaTNpq783a7X+cLcOXewpQYceQSW7D9D8ySVKnDGykOAMg1M51/uFiHMgqx6KjJSJTRQ8Z3yYQ/Dhd1yXUrnoA7gQQavXCuItv9hUKK9KK42akFen7geSa6Brri27xfugU4ycyg5jZcylJWZ4F6StOoCA5B5nrz6DoSB5qHGjJqqu7kDYRiBvRHN5BPmh9S3cExNtHeiT3XJidxE3U0ZZSqTG8PS5GFOxyhDDm7d1N+QI0u0paRvgIAGTt/TAAgsqnQuS682yZqGr46R8FYJEnrcJti6lvXGx8KCRGYvCdXkKTFX3jHOO8g8U4boPVg6RNBC2hfp4YkOSPiAB9y9zWnytdOUuPl6CwtBrcZJmuqEWoy+EtAsFiSfWrQjoTIHDMDDTcmGIBK4QuO2YG/e5aHQ/Nw7wxuV2wyNgY2NQf8cHaeRTq64+ndY7LWcL8cKYAt1BhceLz33Y+k4brlvwP6TaCBa7ZMa0CQaucr7enSEXjP60uGWfpSa/7VJVVIW93BsynC1GWb8HpHw6iIFm+towt9yYIaDajI0JahSOwaSii+iSArgVHC4EB66DYkqmkx9iu6Og48MPxkQlSqc6LHvOQ6oNWylEtA60GXxoAQaPmuQlwwdK0zxQ11nHgqd2aT5VR5m2jfDCmZSB6NTkXKc10t6RQH5tpc9UMl2MjcyFBDE/mTAMkKyLTA3liqxV+yLvH+aFvoj/aRfuKBRLm5yXAi7PTwel2YIofgViepRq7M0qxOcWCwzkVf26yHF/XWD8Rdd451g8+XhC6lKIOLamoFrwFUsJTJufPvvQU6p8nYlqbGE92MLtMcBvsySBx0F/6jwzwRLtIX/RP8hcmcHJAEMXTT66UfqRlvFyzzjDl146Ja6du1omasRJIFZdVC73RbUPJt1SLjBFSkpO/vpbllNXpGDQWFeglCLUIDCg+IlbGG5GBXnZZ5NSM113bkIGx+JQJ5aYyVFkqUHAwBynzj8C0N1szhXNohygkXtYWMQMT4enjBe8AbwS1CIdPiHL+vLvqxxiXNg0YAEGbvi5oTWteaWU1yislIrM9zn20mKbHzUg/W4H6QfPDy1Ma/3HjqhtBzg85QQvHxnHqUeRJ/cikW9bS9HK8dQsucXwcL7Mp+FdJn5x7pYLJlXTUjgZDtbq3pn/v8/PhKdfR49Dj2TizD64DAsfav7X89eQf8fLwgGftX6WF4MxBu9O9mGZdUY1KSyVqKqouSg2sKCpHpflcbFVA3MUmdBZU8grwhpevt13Mh+6kEmMs2jRgAARt+jJaGxowNGBowNCAoYFGoQEDIDSKx2xM0tCAoQFDA4YGDA1o04ABELTpy2htaMDQgKEBQwOGBhqFBgyA0CgeszFJQwOGBgwNGBowNKBNAwZA0KYvo7WhAUMDhgYMDRgaaBQaMABCo3jMxiQNDRgaMDRgaMDQgDYNGABBm76M1oYGDA0YGjA0YGigUWjg/wFFX7O4FbFdhgAAAABJRU5ErkJggg==;" parent="1" vertex="1">
                    <mxGeometry x="110" y="-562.68" width="168.5" height="40.18" as="geometry"/>
                </mxCell>
                <mxCell id="h4DD63BsNahQlmRNBtQ3-29" value="" style="rounded=0;whiteSpace=wrap;html=1;strokeColor=#666666;strokeWidth=4;align=left;dashed=1;fillColor=none;verticalAlign=top;" parent="1" vertex="1">
                    <mxGeometry x="993" y="-350" width="254" height="159" as="geometry"/>
                </mxCell>
                <mxCell id="h4DD63BsNahQlmRNBtQ3-30" value="&lt;div align=&quot;right&quot;&gt;Kubernetes Job&lt;/div&gt;" style="text;html=1;strokeColor=none;fillColor=none;align=right;verticalAlign=top;whiteSpace=wrap;rounded=0;fontColor=#666666;fontSize=14;" parent="1" vertex="1">
                    <mxGeometry x="1129.25" y="-346" width="109.5" height="26" as="geometry"/>
                </mxCell>
                <mxCell id="h4DD63BsNahQlmRNBtQ3-41" value="" style="group" parent="1" vertex="1" connectable="0">
                    <mxGeometry x="1016" y="-301" width="220" height="84" as="geometry"/>
                </mxCell>
                <mxCell id="h4DD63BsNahQlmRNBtQ3-31" value="" style="group;strokeColor=#666666;" parent="h4DD63BsNahQlmRNBtQ3-41" vertex="1" connectable="0">
                    <mxGeometry width="220" height="84" as="geometry"/>
                </mxCell>
                <mxCell id="h4DD63BsNahQlmRNBtQ3-32" value="" style="rounded=0;whiteSpace=wrap;html=1;strokeWidth=4;strokeColor=#666666;" parent="h4DD63BsNahQlmRNBtQ3-31" vertex="1">
                    <mxGeometry width="220" height="84" as="geometry"/>
                </mxCell>
                <mxCell id="h4DD63BsNahQlmRNBtQ3-33" value="&lt;font&gt;&lt;span style=&quot;font-size: 16px&quot;&gt;ReadOnlyHook&lt;br&gt;&lt;/span&gt;&lt;b style=&quot;font-size: 18px&quot;&gt;Persist Results&lt;/b&gt;&lt;br&gt;&lt;/font&gt;" style="text;html=1;strokeColor=none;fillColor=none;align=left;verticalAlign=middle;whiteSpace=wrap;rounded=0;" parent="h4DD63BsNahQlmRNBtQ3-31" vertex="1">
                    <mxGeometry x="56.5" y="17" width="139" height="50" as="geometry"/>
                </mxCell>
                <mxCell id="h4DD63BsNahQlmRNBtQ3-28" value="" style="shape=image;verticalLabelPosition=bottom;labelBackgroundColor=#ffffff;verticalAlign=top;aspect=fixed;imageAspect=0;image=data:image/svg+xml,PHN2ZyB4bWxucz0iaHR0cDovL3d3dy53My5vcmcvMjAwMC9zdmciIHdpZHRoPSIyNCIgaGVpZ2h0PSIyNCIgZmlsbC1ydWxlPSJldmVub2RkIiBjbGlwLXJ1bGU9ImV2ZW5vZGQiIHZpZXdCb3g9IjAgMCAyNCAyNCI+PHBhdGggZD0iTTIyLjY3MiAxNS4yMjZsLTIuNDMyLjgxMS44NDEgMi41MTVjLjMzIDEuMDE5LS4yMDkgMi4xMjctMS4yMyAyLjQ1Ni0xLjE1LjMyNS0yLjE0OC0uMzIxLTIuNDYzLTEuMjI2bC0uODQtMi41MTgtNS4wMTMgMS42NzcuODQgMi41MTdjLjM5MSAxLjIwMy0uNDM0IDIuNTQyLTEuODMxIDIuNTQyLS44OCAwLTEuNjAxLS41NjQtMS44Ni0xLjMxNGwtLjg0Mi0yLjUxNi0yLjQzMS44MDljLTEuMTM1LjMyOC0yLjE0NS0uMzE3LTIuNDYzLTEuMjI5LS4zMjktMS4wMTguMjExLTIuMTI3IDEuMjMxLTIuNDU2bDIuNDMyLS44MDktMS42MjEtNC44MjMtMi40MzIuODA4Yy0xLjM1NS4zODQtMi41NTgtLjU5LTIuNTU4LTEuODM5IDAtLjgxNy41MDktMS41ODIgMS4zMjctMS44NDZsMi40MzMtLjgwOS0uODQyLTIuNTE1Yy0uMzMtMS4wMi4yMTEtMi4xMjkgMS4yMzItMi40NTggMS4wMi0uMzI5IDIuMTMuMjA5IDIuNDYxIDEuMjI5bC44NDIgMi41MTUgNS4wMTEtMS42NzctLjgzOS0yLjUxN2MtLjQwMy0xLjIzOC40ODQtMi41NTMgMS44NDMtMi41NTMuODE5IDAgMS41ODUuNTA5IDEuODUgMS4zMjZsLjg0MSAyLjUxNyAyLjQzMS0uODFjMS4wMi0uMzMgMi4xMzEuMjExIDIuNDYxIDEuMjI5LjMzMiAxLjAxOC0uMjEgMi4xMjYtMS4yMyAyLjQ1NmwtMi40MzMuODA5IDEuNjIyIDQuODIzIDIuNDMzLS44MDljMS4yNDItLjQwMSAyLjU1Ny40ODQgMi41NTcgMS44MzggMCAuODE5LS41MSAxLjU4My0xLjMyOCAxLjg0N20tOC45OTItNi40MjhsLTUuMDEgMS42NzUgMS42MTkgNC44MjggNS4wMTEtMS42NzQtMS42Mi00LjgyOXoiLz48L3N2Zz4=;" parent="h4DD63BsNahQlmRNBtQ3-31" vertex="1">
                    <mxGeometry x="16" y="27" width="30" height="30" as="geometry"/>
                </mxCell>
                <mxCell id="h4DD63BsNahQlmRNBtQ3-48" value="" style="group" parent="1" vertex="1" connectable="0">
                    <mxGeometry x="1008.5" y="-491" width="220" height="84" as="geometry"/>
                </mxCell>
                <mxCell id="h4DD63BsNahQlmRNBtQ3-24" value="" style="group;strokeColor=#666666;" parent="h4DD63BsNahQlmRNBtQ3-48" vertex="1" connectable="0">
                    <mxGeometry width="220" height="84" as="geometry"/>
                </mxCell>
                <mxCell id="h4DD63BsNahQlmRNBtQ3-25" value="" style="rounded=0;whiteSpace=wrap;html=1;strokeWidth=4;strokeColor=#666666;" parent="h4DD63BsNahQlmRNBtQ3-24" vertex="1">
                    <mxGeometry width="220" height="84" as="geometry"/>
                </mxCell>
                <mxCell id="h4DD63BsNahQlmRNBtQ3-26" value="&lt;font&gt;&lt;span style=&quot;font-size: 16px&quot;&gt;ReadAndWriteHook&lt;br&gt;&lt;/span&gt;&lt;span style=&quot;font-size: 18px&quot;&gt;&lt;b&gt;Modify Results&lt;/b&gt;&lt;/span&gt;&lt;br&gt;&lt;/font&gt;" style="text;html=1;strokeColor=none;fillColor=none;align=left;verticalAlign=middle;whiteSpace=wrap;rounded=0;" parent="h4DD63BsNahQlmRNBtQ3-24" vertex="1">
                    <mxGeometry x="62.5" y="17" width="139" height="50" as="geometry"/>
                </mxCell>
                <mxCell id="h4DD63BsNahQlmRNBtQ3-34" value="" style="shape=image;verticalLabelPosition=bottom;labelBackgroundColor=#ffffff;verticalAlign=top;aspect=fixed;imageAspect=0;image=data:image/svg+xml,PHN2ZyBpZD0iZW1vamkiIHhtbG5zPSJodHRwOi8vd3d3LnczLm9yZy8yMDAwL3N2ZyIgdmlld0JveD0iMCAwIDcyIDcyIj4mI3hhOyAgPGcgaWQ9ImNvbG9yIj4mI3hhOyAgICA8cmVjdCB4PSIxMSIgeT0iMTAuOTU4MyIgZmlsbD0iIzNGM0YzRiIgc3Ryb2tlPSJub25lIiBzdHJva2Utd2lkdGg9IjIiIHN0cm9rZS1saW5lY2FwPSJyb3VuZCIgc3Ryb2tlLWxpbmVqb2luPSJyb3VuZCIgc3Ryb2tlLW1pdGVybGltaXQ9IjEwIiB3aWR0aD0iNTAiIGhlaWdodD0iNTAiLz4mI3hhOyAgICA8cGF0aCBmaWxsPSIjRDBDRkNFIiBzdHJva2U9Im5vbmUiIHN0cm9rZS13aWR0aD0iMiIgc3Ryb2tlLWxpbmVjYXA9InJvdW5kIiBzdHJva2UtbGluZWpvaW49InJvdW5kIiBzdHJva2UtbWl0ZXJsaW1pdD0iMTAiIGQ9Ik01Mi41NDk4LDQ3LjExNzJjLTMuNTg2Nyw1LjMwOS05LjY2MDYsOC43OTk0LTE2LjU0OTgsOC43OTk0Yy0xMS4wMjI3LDAtMTkuOTU4My04LjkzNTYtMTkuOTU4My0xOS45NTgzUzI0Ljk3NzMsMTYsMzYsMTYgYzYuODU2OSwwLDEyLjkwNjEsMy40NTc4LDE2LjQ5OTIsOC43MjQ5Ii8+JiN4YTsgICAgPGNpcmNsZSBmaWxsPSIjRDBDRkNFIiBjeD0iMzUuOTI3MSIgY3k9IjM1Ljg4NyIgcj0iMTkuOTU4MyIgc3Ryb2tlPSJub25lIi8+JiN4YTsgICAgPHBhdGggZmlsbD0iI0QwQ0ZDRSIgZD0iTTE3LjUxMjgsMjYuMzg1OWMzLjA3OC01LjkzNzUsOC45NTQ0LTEwLjI4OTgsMTYuMDk3NS0xMS4xMjE0IGMxMS40Mjg5LTEuMzMwNSwyMS43NzI1LDYuODU1OCwyMy4xMDMsMTguMjg0N2MxLjMzMDUsMTEuNDI4OS02Ljg1NTgsMjEuNzcyNS0xOC4yODQ3LDIzLjEwMyBjLTcuMTA5NiwwLjgyNzctMTMuNzk5Mi0yLjAyNzQtMTguMTYwNC03LjA1NDkiIHN0cm9rZT0ibm9uZSIvPiYjeGE7ICAgIDxwYXRoIGZpbGw9IiNEMENGQ0UiIHN0cm9rZT0ibm9uZSIgc3Ryb2tlLXdpZHRoPSIyIiBzdHJva2UtbGluZWNhcD0icm91bmQiIHN0cm9rZS1saW5lam9pbj0icm91bmQiIHN0cm9rZS1taXRlcmxpbWl0PSIxMCIgZD0iTTUyLjU0OTgsNDcuMDQ1OGMtMy41ODY3LDUuMzA5LTkuNjYwNiw4Ljc5OTQtMTYuNTQ5OCw4Ljc5OTRjLTExLjAyMjcsMC0xOS45NTgzLTguOTM1Ni0xOS45NTgzLTE5Ljk1ODMgUzI0Ljk3NzMsMTUuOTI4NiwzNiwxNS45Mjg2YzYuODU2OSwwLDEyLjkwNjEsMy40NTc4LDE2LjQ5OTIsOC43MjQ5Ii8+JiN4YTsgICAgPGNpcmNsZSBmaWxsPSIjM0YzRjNGIiBzdHJva2U9Im5vbmUiIHN0cm9rZS13aWR0aD0iMiIgc3Ryb2tlLWxpbmVjYXA9InJvdW5kIiBzdHJva2UtbGluZWpvaW49InJvdW5kIiBzdHJva2UtbWl0ZXJsaW1pdD0iMTAiIGN4PSIzNiIgY3k9IjM1Ljk1ODMiIHI9IjUiLz4mI3hhOyAgICA8cG9seWxpbmUgZmlsbD0iI0QwQ0ZDRSIgc3Ryb2tlPSJub25lIiBzdHJva2Utd2lkdGg9IjIiIHN0cm9rZS1saW5lY2FwPSJyb3VuZCIgc3Ryb2tlLWxpbmVqb2luPSJyb3VuZCIgc3Ryb2tlLW1pdGVybGltaXQ9IjEwIiBwb2ludHM9IjQ0LDM2LjUwMDUgNDQsNDEuOTc1MSA2MSw0NC40MzM0IDYxLDM2LjUgNjEsMzYuNDMzNCA2MSwyOC41IDQ0LDMwLjk1ODMgNDQsMzYuNDMyOSIvPiYjeGE7ICA8L2c+JiN4YTsgIDxnIGlkPSJoYWlyIi8+JiN4YTsgIDxnIGlkPSJza2luIi8+JiN4YTsgIDxnIGlkPSJza2luLXNoYWRvdyIvPiYjeGE7ICA8ZyBpZD0ibGluZSI+JiN4YTsgICAgPHJlY3QgeD0iMTEiIHk9IjEwLjk1ODMiIGZpbGw9Im5vbmUiIHN0cm9rZT0iIzAwMDAwMCIgc3Ryb2tlLXdpZHRoPSIyIiBzdHJva2UtbGluZWNhcD0icm91bmQiIHN0cm9rZS1saW5lam9pbj0icm91bmQiIHN0cm9rZS1taXRlcmxpbWl0PSIxMCIgd2lkdGg9IjUwIiBoZWlnaHQ9IjUwIi8+JiN4YTsgICAgPHBhdGggZmlsbD0ibm9uZSIgc3Ryb2tlPSIjMDAwMDAwIiBzdHJva2Utd2lkdGg9IjIiIHN0cm9rZS1saW5lY2FwPSJyb3VuZCIgc3Ryb2tlLWxpbmVqb2luPSJyb3VuZCIgc3Ryb2tlLW1pdGVybGltaXQ9IjEwIiBkPSJNNTIuNTQ5OCw0Ny4xMTcyYy0zLjU4NjcsNS4zMDktOS42NjA2LDguNzk5NC0xNi41NDk4LDguNzk5NGMtMTEuMDIyNywwLTE5Ljk1ODMtOC45MzU2LTE5Ljk1ODMtMTkuOTU4M1MyNC45NzczLDE2LDM2LDE2IGM2Ljg1NjksMCwxMi45MDYxLDMuNDU3OCwxNi40OTkyLDguNzI0OSIvPiYjeGE7ICAgIDxwYXRoIGZpbGw9Im5vbmUiIHN0cm9rZT0iIzAwMDAwMCIgc3Ryb2tlLXdpZHRoPSIyIiBzdHJva2UtbGluZWNhcD0icm91bmQiIHN0cm9rZS1saW5lam9pbj0icm91bmQiIHN0cm9rZS1taXRlcmxpbWl0PSIxMCIgZD0iTTUyLjU0OTgsNDcuMDQ1OGMtMy41ODY3LDUuMzA5LTkuNjYwNiw4Ljc5OTQtMTYuNTQ5OCw4Ljc5OTRjLTExLjAyMjcsMC0xOS45NTgzLTguOTM1Ni0xOS45NTgzLTE5Ljk1ODMgUzI0Ljk3NzMsMTUuOTI4NiwzNiwxNS45Mjg2YzYuODU2OSwwLDEyLjkwNjEsMy40NTc4LDE2LjQ5OTIsOC43MjQ5Ii8+JiN4YTsgICAgPGNpcmNsZSBmaWxsPSJub25lIiBzdHJva2U9IiMwMDAwMDAiIHN0cm9rZS13aWR0aD0iMiIgc3Ryb2tlLWxpbmVjYXA9InJvdW5kIiBzdHJva2UtbGluZWpvaW49InJvdW5kIiBzdHJva2UtbWl0ZXJsaW1pdD0iMTAiIGN4PSIzNiIgY3k9IjM1Ljk1ODMiIHI9IjUiLz4mI3hhOyAgICA8cG9seWxpbmUgZmlsbD0ibm9uZSIgc3Ryb2tlPSIjMDAwMDAwIiBzdHJva2Utd2lkdGg9IjIiIHN0cm9rZS1saW5lY2FwPSJyb3VuZCIgc3Ryb2tlLWxpbmVqb2luPSJyb3VuZCIgc3Ryb2tlLW1pdGVybGltaXQ9IjEwIiBwb2ludHM9IjQ0LDM2LjUwMDUgNDQsNDEuOTc1MSA2MSw0NC40MzM0IDYxLDM2LjUgNjEsMzYuNDMzNCA2MSwyOC41IDQ0LDMwLjk1ODMgNDQsMzYuNDMyOSIvPiYjeGE7ICA8L2c+JiN4YTs8L3N2Zz4=;" parent="h4DD63BsNahQlmRNBtQ3-24" vertex="1">
                    <mxGeometry x="11.5" y="19" width="48" height="48" as="geometry"/>
                </mxCell>
                <mxCell id="h4DD63BsNahQlmRNBtQ3-52" value="" style="group" parent="1" vertex="1" connectable="0">
                    <mxGeometry x="941" y="-285.5" width="28.5" height="30" as="geometry"/>
                </mxCell>
                <mxCell id="h4DD63BsNahQlmRNBtQ3-43" value="" style="group" parent="h4DD63BsNahQlmRNBtQ3-52" vertex="1" connectable="0">
                    <mxGeometry width="28.5" height="30" as="geometry"/>
                </mxCell>
                <mxCell id="h4DD63BsNahQlmRNBtQ3-44" value="" style="ellipse;whiteSpace=wrap;html=1;strokeColor=none;fontSize=14;fontColor=#666666;fillColor=#009EDA;" parent="h4DD63BsNahQlmRNBtQ3-43" vertex="1">
                    <mxGeometry width="28.5" height="30" as="geometry"/>
                </mxCell>
                <mxCell id="h4DD63BsNahQlmRNBtQ3-45" value="&lt;font style=&quot;font-size: 21px&quot; color=&quot;#FFFFFF&quot;&gt;&lt;b style=&quot;font-size: 21px&quot;&gt;5&lt;/b&gt;&lt;/font&gt;" style="text;html=1;strokeColor=none;fillColor=none;align=center;verticalAlign=middle;rounded=0;fontSize=21;fontColor=#666666;whiteSpace=wrap;" parent="h4DD63BsNahQlmRNBtQ3-43" vertex="1">
                    <mxGeometry x="5" y="7" width="18.5" height="18" as="geometry"/>
                </mxCell>
                <mxCell id="h4DD63BsNahQlmRNBtQ3-56" value="" style="group" parent="1" vertex="1" connectable="0">
                    <mxGeometry x="941" y="-475.5" width="28.5" height="30" as="geometry"/>
                </mxCell>
                <mxCell id="h4DD63BsNahQlmRNBtQ3-20" value="" style="group" parent="h4DD63BsNahQlmRNBtQ3-56" vertex="1" connectable="0">
                    <mxGeometry width="28.5" height="30" as="geometry"/>
                </mxCell>
                <mxCell id="SLsqdyoGx3VEHhg5HpJQ-84" value="" style="ellipse;whiteSpace=wrap;html=1;strokeColor=none;fontSize=14;fontColor=#666666;fillColor=#009EDA;" parent="h4DD63BsNahQlmRNBtQ3-20" vertex="1">
                    <mxGeometry width="28.5" height="30" as="geometry"/>
                </mxCell>
                <mxCell id="SLsqdyoGx3VEHhg5HpJQ-85" value="&lt;font style=&quot;font-size: 21px&quot; color=&quot;#FFFFFF&quot;&gt;&lt;b style=&quot;font-size: 21px&quot;&gt;4&lt;/b&gt;&lt;/font&gt;" style="text;html=1;strokeColor=none;fillColor=none;align=center;verticalAlign=middle;rounded=0;fontSize=21;fontColor=#666666;whiteSpace=wrap;" parent="h4DD63BsNahQlmRNBtQ3-20" vertex="1">
                    <mxGeometry x="5" y="7" width="18.5" height="18" as="geometry"/>
                </mxCell>
            </root>
        </mxGraphModel>
    </diagram>
</mxfile>
